<svg width="1200" height="438" viewBox="0 0 1200 438" fill="none" xmlns="http://www.w3.org/2000/svg">
<rect width="1200" height="438" rx="20" fill="#3734A9"/>
<path d="M294.834 160V119.68H307.882C308.199 119.68 308.852 119.689 309.842 119.708C310.831 119.727 311.783 119.792 312.698 119.904C315.946 120.296 318.699 121.425 320.958 123.292C323.216 125.159 324.934 127.529 326.11 130.404C327.286 133.279 327.874 136.424 327.874 139.84C327.874 143.256 327.286 146.401 326.11 149.276C324.934 152.151 323.216 154.521 320.958 156.388C318.699 158.255 315.946 159.384 312.698 159.776C311.783 159.888 310.831 159.953 309.842 159.972C308.852 159.991 308.199 160 307.882 160H294.834ZM302.562 152.832H307.882C308.386 152.832 309.067 152.823 309.926 152.804C310.784 152.767 311.559 152.683 312.25 152.552C314.004 152.197 315.432 151.376 316.534 150.088C317.654 148.8 318.475 147.251 318.998 145.44C319.539 143.629 319.81 141.763 319.81 139.84C319.81 137.824 319.53 135.911 318.97 134.1C318.428 132.289 317.598 130.759 316.478 129.508C315.358 128.257 313.948 127.464 312.25 127.128C311.559 126.979 310.784 126.895 309.926 126.876C309.067 126.857 308.386 126.848 307.882 126.848H302.562V152.832ZM333.472 125.56V118.84H341.088V125.56H333.472ZM333.472 160V129.76H341.088V160H333.472ZM359.618 160.84C355.81 160.84 352.73 159.981 350.378 158.264C348.045 156.528 346.626 154.083 346.122 150.928L353.906 149.752C354.223 151.171 354.923 152.281 356.006 153.084C357.107 153.887 358.498 154.288 360.178 154.288C361.559 154.288 362.623 154.027 363.37 153.504C364.117 152.963 364.49 152.216 364.49 151.264C364.49 150.667 364.341 150.191 364.042 149.836C363.743 149.463 363.071 149.099 362.026 148.744C360.999 148.389 359.394 147.923 357.21 147.344C354.746 146.709 352.777 146 351.302 145.216C349.827 144.432 348.763 143.499 348.11 142.416C347.457 141.315 347.13 139.989 347.13 138.44C347.13 136.499 347.625 134.819 348.614 133.4C349.603 131.963 350.994 130.861 352.786 130.096C354.597 129.312 356.725 128.92 359.17 128.92C361.541 128.92 363.641 129.284 365.47 130.012C367.299 130.74 368.774 131.776 369.894 133.12C371.033 134.464 371.733 136.051 371.994 137.88L364.21 139.28C364.079 138.16 363.594 137.273 362.754 136.62C361.914 135.967 360.775 135.584 359.338 135.472C357.938 135.379 356.809 135.565 355.95 136.032C355.11 136.499 354.69 137.171 354.69 138.048C354.69 138.571 354.867 139.009 355.222 139.364C355.595 139.719 356.351 140.083 357.49 140.456C358.647 140.829 360.402 141.315 362.754 141.912C365.05 142.509 366.889 143.209 368.27 144.012C369.67 144.796 370.687 145.748 371.322 146.868C371.957 147.969 372.274 149.304 372.274 150.872C372.274 153.971 371.154 156.407 368.914 158.18C366.674 159.953 363.575 160.84 359.618 160.84ZM390.075 160.84C386.939 160.84 384.251 160.14 382.011 158.74C379.771 157.34 378.054 155.436 376.859 153.028C375.664 150.62 375.067 147.904 375.067 144.88C375.067 141.819 375.683 139.084 376.915 136.676C378.166 134.268 379.92 132.373 382.179 130.992C384.438 129.611 387.107 128.92 390.187 128.92C393.752 128.92 396.739 129.825 399.147 131.636C401.574 133.428 403.123 135.883 403.795 139L396.179 141.016C395.731 139.448 394.947 138.225 393.827 137.348C392.726 136.471 391.475 136.032 390.075 136.032C388.47 136.032 387.154 136.424 386.127 137.208C385.1 137.973 384.344 139.028 383.859 140.372C383.374 141.697 383.131 143.2 383.131 144.88C383.131 147.512 383.71 149.649 384.867 151.292C386.043 152.916 387.779 153.728 390.075 153.728C391.792 153.728 393.099 153.336 393.995 152.552C394.891 151.768 395.563 150.648 396.011 149.192L403.795 150.816C402.936 154.027 401.312 156.5 398.923 158.236C396.534 159.972 393.584 160.84 390.075 160.84ZM420.503 160.84C417.46 160.84 414.791 160.159 412.495 158.796C410.199 157.433 408.407 155.557 407.119 153.168C405.85 150.76 405.215 147.997 405.215 144.88C405.215 141.725 405.868 138.953 407.175 136.564C408.482 134.156 410.283 132.28 412.579 130.936C414.875 129.592 417.516 128.92 420.503 128.92C423.546 128.92 426.215 129.601 428.511 130.964C430.826 132.327 432.627 134.212 433.915 136.62C435.203 139.009 435.847 141.763 435.847 144.88C435.847 148.016 435.194 150.788 433.887 153.196C432.599 155.585 430.798 157.461 428.483 158.824C426.187 160.168 423.527 160.84 420.503 160.84ZM420.503 153.728C422.948 153.728 424.768 152.907 425.963 151.264C427.176 149.603 427.783 147.475 427.783 144.88C427.783 142.192 427.167 140.045 425.935 138.44C424.722 136.835 422.911 136.032 420.503 136.032C418.842 136.032 417.479 136.405 416.415 137.152C415.351 137.899 414.558 138.935 414.035 140.26C413.531 141.585 413.279 143.125 413.279 144.88C413.279 147.587 413.886 149.743 415.099 151.348C416.331 152.935 418.132 153.728 420.503 153.728ZM447.407 160L436.431 129.76H444.047L451.215 150.704L458.383 129.76H465.999L455.023 160H447.407ZM482.341 160.84C479.242 160.84 476.508 160.177 474.137 158.852C471.785 157.508 469.937 155.669 468.593 153.336C467.268 150.984 466.605 148.296 466.605 145.272C466.605 141.968 467.258 139.093 468.565 136.648C469.872 134.203 471.673 132.308 473.969 130.964C476.265 129.601 478.906 128.92 481.893 128.92C485.066 128.92 487.764 129.667 489.985 131.16C492.206 132.653 493.849 134.753 494.913 137.46C495.977 140.167 496.35 143.349 496.033 147.008H488.501V144.208C488.501 141.128 488.006 138.916 487.017 137.572C486.046 136.209 484.45 135.528 482.229 135.528C479.634 135.528 477.721 136.321 476.489 137.908C475.276 139.476 474.669 141.8 474.669 144.88C474.669 147.699 475.276 149.883 476.489 151.432C477.721 152.963 479.522 153.728 481.893 153.728C483.386 153.728 484.665 153.401 485.729 152.748C486.793 152.095 487.605 151.152 488.165 149.92L495.781 152.104C494.642 154.867 492.841 157.013 490.377 158.544C487.932 160.075 485.253 160.84 482.341 160.84ZM472.317 147.008V141.352H492.365V147.008H472.317ZM500.675 160V129.76H507.395V137.152L506.667 136.2C507.059 135.155 507.582 134.203 508.235 133.344C508.889 132.485 509.691 131.776 510.643 131.216C511.371 130.768 512.165 130.423 513.023 130.18C513.882 129.919 514.769 129.76 515.683 129.704C516.598 129.629 517.513 129.648 518.427 129.76V136.872C517.587 136.611 516.607 136.527 515.487 136.62C514.386 136.695 513.387 136.947 512.491 137.376C511.595 137.787 510.839 138.337 510.223 139.028C509.607 139.7 509.141 140.503 508.823 141.436C508.506 142.351 508.347 143.387 508.347 144.544V160H500.675ZM540.004 160.84C537.839 160.84 536 160.429 534.488 159.608C532.995 158.768 531.856 157.657 531.072 156.276C530.307 154.876 529.924 153.336 529.924 151.656C529.924 150.256 530.139 148.977 530.568 147.82C530.998 146.663 531.688 145.645 532.64 144.768C533.611 143.872 534.908 143.125 536.532 142.528C537.652 142.117 538.987 141.753 540.536 141.436C542.086 141.119 543.84 140.82 545.8 140.54C547.76 140.241 549.916 139.915 552.268 139.56L549.524 141.072C549.524 139.28 549.095 137.964 548.236 137.124C547.378 136.284 545.94 135.864 543.924 135.864C542.804 135.864 541.638 136.135 540.424 136.676C539.211 137.217 538.362 138.179 537.876 139.56L530.988 137.376C531.754 134.875 533.191 132.84 535.3 131.272C537.41 129.704 540.284 128.92 543.924 128.92C546.594 128.92 548.964 129.331 551.036 130.152C553.108 130.973 554.676 132.392 555.74 134.408C556.338 135.528 556.692 136.648 556.804 137.768C556.916 138.888 556.972 140.139 556.972 141.52V160H550.308V153.784L551.26 155.072C549.786 157.107 548.19 158.581 546.472 159.496C544.774 160.392 542.618 160.84 540.004 160.84ZM541.628 154.848C543.028 154.848 544.204 154.605 545.156 154.12C546.127 153.616 546.892 153.047 547.452 152.412C548.031 151.777 548.423 151.245 548.628 150.816C549.02 149.995 549.244 149.043 549.3 147.96C549.375 146.859 549.412 145.944 549.412 145.216L551.652 145.776C549.394 146.149 547.564 146.467 546.164 146.728C544.764 146.971 543.635 147.195 542.776 147.4C541.918 147.605 541.162 147.829 540.508 148.072C539.762 148.371 539.155 148.697 538.688 149.052C538.24 149.388 537.904 149.761 537.68 150.172C537.475 150.583 537.372 151.04 537.372 151.544C537.372 152.235 537.54 152.832 537.876 153.336C538.231 153.821 538.726 154.195 539.36 154.456C539.995 154.717 540.751 154.848 541.628 154.848ZM586.944 160.84C583.938 160.84 581.428 160.14 579.412 158.74C577.396 157.34 575.874 155.436 574.848 153.028C573.84 150.62 573.336 147.904 573.336 144.88C573.336 141.856 573.84 139.14 574.848 136.732C575.856 134.324 577.34 132.42 579.3 131.02C581.26 129.62 583.677 128.92 586.552 128.92C589.445 128.92 591.965 129.611 594.112 130.992C596.258 132.373 597.92 134.268 599.096 136.676C600.29 139.065 600.888 141.8 600.888 144.88C600.888 147.904 600.3 150.62 599.124 153.028C597.966 155.436 596.342 157.34 594.252 158.74C592.161 160.14 589.725 160.84 586.944 160.84ZM572.048 160V119.68H579.72V139.28H578.768V160H572.048ZM585.712 154.064C587.354 154.064 588.698 153.653 589.744 152.832C590.789 152.011 591.564 150.909 592.068 149.528C592.572 148.128 592.824 146.579 592.824 144.88C592.824 143.2 592.562 141.669 592.04 140.288C591.517 138.888 590.705 137.777 589.604 136.956C588.521 136.116 587.13 135.696 585.432 135.696C583.845 135.696 582.557 136.079 581.568 136.844C580.597 137.609 579.888 138.683 579.44 140.064C578.992 141.445 578.768 143.051 578.768 144.88C578.768 146.709 578.992 148.315 579.44 149.696C579.888 151.077 580.616 152.151 581.624 152.916C582.65 153.681 584.013 154.064 585.712 154.064ZM619.425 160.84C616.326 160.84 613.592 160.177 611.221 158.852C608.869 157.508 607.021 155.669 605.677 153.336C604.352 150.984 603.689 148.296 603.689 145.272C603.689 141.968 604.342 139.093 605.649 136.648C606.956 134.203 608.757 132.308 611.053 130.964C613.349 129.601 615.99 128.92 618.977 128.92C622.15 128.92 624.848 129.667 627.069 131.16C629.29 132.653 630.933 134.753 631.997 137.46C633.061 140.167 633.434 143.349 633.117 147.008H625.585V144.208C625.585 141.128 625.09 138.916 624.101 137.572C623.13 136.209 621.534 135.528 619.313 135.528C616.718 135.528 614.805 136.321 613.573 137.908C612.36 139.476 611.753 141.8 611.753 144.88C611.753 147.699 612.36 149.883 613.573 151.432C614.805 152.963 616.606 153.728 618.977 153.728C620.47 153.728 621.749 153.401 622.813 152.748C623.877 152.095 624.689 151.152 625.249 149.92L632.865 152.104C631.726 154.867 629.925 157.013 627.461 158.544C625.016 160.075 622.337 160.84 619.425 160.84ZM609.401 147.008V141.352H629.449V147.008H609.401ZM655.903 160C653.813 160.392 651.759 160.56 649.743 160.504C647.746 160.467 645.954 160.121 644.367 159.468C642.799 158.796 641.605 157.723 640.783 156.248C640.037 154.867 639.645 153.467 639.607 152.048C639.57 150.611 639.551 148.987 639.551 147.176V121.36H647.167V146.728C647.167 147.904 647.177 148.968 647.195 149.92C647.233 150.853 647.429 151.6 647.783 152.16C648.455 153.224 649.529 153.803 651.003 153.896C652.478 153.989 654.111 153.915 655.903 153.672V160ZM634.399 135.64V129.76H655.903V135.64H634.399ZM677.407 160C675.317 160.392 673.263 160.56 671.247 160.504C669.25 160.467 667.458 160.121 665.871 159.468C664.303 158.796 663.109 157.723 662.287 156.248C661.541 154.867 661.149 153.467 661.111 152.048C661.074 150.611 661.055 148.987 661.055 147.176V121.36H668.671V146.728C668.671 147.904 668.681 148.968 668.699 149.92C668.737 150.853 668.933 151.6 669.287 152.16C669.959 153.224 671.033 153.803 672.507 153.896C673.982 153.989 675.615 153.915 677.407 153.672V160ZM655.903 135.64V129.76H677.407V135.64H655.903ZM696.51 160.84C693.412 160.84 690.677 160.177 688.306 158.852C685.954 157.508 684.106 155.669 682.762 153.336C681.437 150.984 680.774 148.296 680.774 145.272C680.774 141.968 681.428 139.093 682.734 136.648C684.041 134.203 685.842 132.308 688.138 130.964C690.434 129.601 693.076 128.92 696.062 128.92C699.236 128.92 701.933 129.667 704.154 131.16C706.376 132.653 708.018 134.753 709.082 137.46C710.146 140.167 710.52 143.349 710.202 147.008H702.67V144.208C702.67 141.128 702.176 138.916 701.186 137.572C700.216 136.209 698.62 135.528 696.398 135.528C693.804 135.528 691.89 136.321 690.658 137.908C689.445 139.476 688.838 141.8 688.838 144.88C688.838 147.699 689.445 149.883 690.658 151.432C691.89 152.963 693.692 153.728 696.062 153.728C697.556 153.728 698.834 153.401 699.898 152.748C700.962 152.095 701.774 151.152 702.334 149.92L709.95 152.104C708.812 154.867 707.01 157.013 704.546 158.544C702.101 160.075 699.422 160.84 696.51 160.84ZM686.486 147.008V141.352H706.534V147.008H686.486ZM714.845 160V129.76H721.565V137.152L720.837 136.2C721.229 135.155 721.751 134.203 722.405 133.344C723.058 132.485 723.861 131.776 724.813 131.216C725.541 130.768 726.334 130.423 727.193 130.18C728.051 129.919 728.938 129.76 729.853 129.704C730.767 129.629 731.682 129.648 732.597 129.76V136.872C731.757 136.611 730.777 136.527 729.657 136.62C728.555 136.695 727.557 136.947 726.661 137.376C725.765 137.787 725.009 138.337 724.393 139.028C723.777 139.7 723.31 140.503 722.993 141.436C722.675 142.351 722.517 143.387 722.517 144.544V160H714.845ZM752.214 160L742.974 129.704L750.422 129.76L755.91 147.792L761.482 129.76H767.81L773.382 147.792L778.87 129.76H786.318L777.078 160H771.254L764.646 140.288L758.038 160H752.214ZM796.408 160.84C794.242 160.84 792.404 160.429 790.892 159.608C789.398 158.768 788.26 157.657 787.476 156.276C786.71 154.876 786.328 153.336 786.328 151.656C786.328 150.256 786.542 148.977 786.972 147.82C787.401 146.663 788.092 145.645 789.044 144.768C790.014 143.872 791.312 143.125 792.936 142.528C794.056 142.117 795.39 141.753 796.94 141.436C798.489 141.119 800.244 140.82 802.204 140.54C804.164 140.241 806.32 139.915 808.672 139.56L805.928 141.072C805.928 139.28 805.498 137.964 804.64 137.124C803.781 136.284 802.344 135.864 800.328 135.864C799.208 135.864 798.041 136.135 796.828 136.676C795.614 137.217 794.765 138.179 794.28 139.56L787.392 137.376C788.157 134.875 789.594 132.84 791.704 131.272C793.813 129.704 796.688 128.92 800.328 128.92C802.997 128.92 805.368 129.331 807.44 130.152C809.512 130.973 811.08 132.392 812.144 134.408C812.741 135.528 813.096 136.648 813.208 137.768C813.32 138.888 813.376 140.139 813.376 141.52V160H806.712V153.784L807.664 155.072C806.189 157.107 804.593 158.581 802.876 159.496C801.177 160.392 799.021 160.84 796.408 160.84ZM798.032 154.848C799.432 154.848 800.608 154.605 801.56 154.12C802.53 153.616 803.296 153.047 803.856 152.412C804.434 151.777 804.826 151.245 805.032 150.816C805.424 149.995 805.648 149.043 805.704 147.96C805.778 146.859 805.816 145.944 805.816 145.216L808.056 145.776C805.797 146.149 803.968 146.467 802.568 146.728C801.168 146.971 800.038 147.195 799.18 147.4C798.321 147.605 797.565 147.829 796.912 148.072C796.165 148.371 795.558 148.697 795.092 149.052C794.644 149.388 794.308 149.761 794.084 150.172C793.878 150.583 793.776 151.04 793.776 151.544C793.776 152.235 793.944 152.832 794.28 153.336C794.634 153.821 795.129 154.195 795.764 154.456C796.398 154.717 797.154 154.848 798.032 154.848ZM821.145 173.44L826.969 157.424L827.081 162.128L813.921 129.76H821.817L830.665 152.664H828.873L837.665 129.76H845.281L828.201 173.44H821.145ZM875.213 160C873.123 160.392 871.069 160.56 869.053 160.504C867.056 160.467 865.264 160.121 863.677 159.468C862.109 158.796 860.915 157.723 860.093 156.248C859.347 154.867 858.955 153.467 858.917 152.048C858.88 150.611 858.861 148.987 858.861 147.176V121.36H866.477V146.728C866.477 147.904 866.487 148.968 866.505 149.92C866.543 150.853 866.739 151.6 867.093 152.16C867.765 153.224 868.839 153.803 870.313 153.896C871.788 153.989 873.421 153.915 875.213 153.672V160ZM853.709 135.64V129.76H875.213V135.64H853.709ZM892.185 160.84C889.142 160.84 886.473 160.159 884.177 158.796C881.881 157.433 880.089 155.557 878.801 153.168C877.532 150.76 876.897 147.997 876.897 144.88C876.897 141.725 877.55 138.953 878.857 136.564C880.164 134.156 881.965 132.28 884.261 130.936C886.557 129.592 889.198 128.92 892.185 128.92C895.228 128.92 897.897 129.601 900.193 130.964C902.508 132.327 904.309 134.212 905.597 136.62C906.885 139.009 907.529 141.763 907.529 144.88C907.529 148.016 906.876 150.788 905.569 153.196C904.281 155.585 902.48 157.461 900.165 158.824C897.869 160.168 895.209 160.84 892.185 160.84ZM892.185 153.728C894.63 153.728 896.45 152.907 897.645 151.264C898.858 149.603 899.465 147.475 899.465 144.88C899.465 142.192 898.849 140.045 897.617 138.44C896.404 136.835 894.593 136.032 892.185 136.032C890.524 136.032 889.161 136.405 888.097 137.152C887.033 137.899 886.24 138.935 885.717 140.26C885.213 141.585 884.961 143.125 884.961 144.88C884.961 147.587 885.568 149.743 886.781 151.348C888.013 152.935 889.814 153.728 892.185 153.728ZM392.9 221V203.136C392.9 201.139 392.424 199.589 391.472 198.488C390.539 197.368 389.242 196.808 387.58 196.808C386.516 196.808 385.592 197.06 384.808 197.564C384.024 198.049 383.408 198.74 382.96 199.636C382.531 200.513 382.316 201.531 382.316 202.688L379.124 200.56C379.124 198.488 379.61 196.659 380.58 195.072C381.57 193.485 382.886 192.253 384.528 191.376C386.19 190.48 388.028 190.032 390.044 190.032C393.498 190.032 396.102 191.059 397.856 193.112C399.63 195.147 400.516 197.816 400.516 201.12V221H392.9ZM356.444 221V190.76H363.164V200.784H364.116V221H356.444ZM374.7 221V203.136C374.7 201.139 374.224 199.589 373.272 198.488C372.339 197.368 371.042 196.808 369.38 196.808C367.794 196.808 366.515 197.359 365.544 198.46C364.592 199.543 364.116 200.952 364.116 202.688L360.924 200.448C360.924 198.469 361.419 196.696 362.408 195.128C363.398 193.56 364.723 192.319 366.384 191.404C368.064 190.489 369.94 190.032 372.012 190.032C374.383 190.032 376.324 190.536 377.836 191.544C379.367 192.552 380.496 193.896 381.224 195.576C381.952 197.256 382.316 199.104 382.316 201.12V221H374.7ZM414.517 221.84C412.352 221.84 410.513 221.429 409.001 220.608C407.508 219.768 406.369 218.657 405.585 217.276C404.82 215.876 404.437 214.336 404.437 212.656C404.437 211.256 404.652 209.977 405.081 208.82C405.511 207.663 406.201 206.645 407.153 205.768C408.124 204.872 409.421 204.125 411.045 203.528C412.165 203.117 413.5 202.753 415.049 202.436C416.599 202.119 418.353 201.82 420.313 201.54C422.273 201.241 424.429 200.915 426.781 200.56L424.037 202.072C424.037 200.28 423.608 198.964 422.749 198.124C421.891 197.284 420.453 196.864 418.437 196.864C417.317 196.864 416.151 197.135 414.937 197.676C413.724 198.217 412.875 199.179 412.389 200.56L405.501 198.376C406.267 195.875 407.704 193.84 409.813 192.272C411.923 190.704 414.797 189.92 418.437 189.92C421.107 189.92 423.477 190.331 425.549 191.152C427.621 191.973 429.189 193.392 430.253 195.408C430.851 196.528 431.205 197.648 431.317 198.768C431.429 199.888 431.485 201.139 431.485 202.52V221H424.821V214.784L425.773 216.072C424.299 218.107 422.703 219.581 420.985 220.496C419.287 221.392 417.131 221.84 414.517 221.84ZM416.141 215.848C417.541 215.848 418.717 215.605 419.669 215.12C420.64 214.616 421.405 214.047 421.965 213.412C422.544 212.777 422.936 212.245 423.141 211.816C423.533 210.995 423.757 210.043 423.813 208.96C423.888 207.859 423.925 206.944 423.925 206.216L426.165 206.776C423.907 207.149 422.077 207.467 420.677 207.728C419.277 207.971 418.148 208.195 417.289 208.4C416.431 208.605 415.675 208.829 415.021 209.072C414.275 209.371 413.668 209.697 413.201 210.052C412.753 210.388 412.417 210.761 412.193 211.172C411.988 211.583 411.885 212.04 411.885 212.544C411.885 213.235 412.053 213.832 412.389 214.336C412.744 214.821 413.239 215.195 413.873 215.456C414.508 215.717 415.264 215.848 416.141 215.848ZM457.694 221V206.72C457.694 206.029 457.656 205.152 457.582 204.088C457.507 203.005 457.274 201.923 456.882 200.84C456.49 199.757 455.846 198.852 454.95 198.124C454.072 197.396 452.822 197.032 451.198 197.032C450.544 197.032 449.844 197.135 449.098 197.34C448.351 197.545 447.651 197.947 446.998 198.544C446.344 199.123 445.803 199.981 445.374 201.12C444.963 202.259 444.758 203.771 444.758 205.656L440.39 203.584C440.39 201.195 440.875 198.955 441.846 196.864C442.816 194.773 444.272 193.084 446.214 191.796C448.174 190.508 450.638 189.864 453.606 189.864C455.976 189.864 457.908 190.265 459.402 191.068C460.895 191.871 462.052 192.888 462.874 194.12C463.714 195.352 464.311 196.64 464.666 197.984C465.02 199.309 465.235 200.523 465.31 201.624C465.384 202.725 465.422 203.528 465.422 204.032V221H457.694ZM437.03 221V190.76H443.806V200.784H444.758V221H437.03ZM479.407 221.84C477.242 221.84 475.403 221.429 473.891 220.608C472.398 219.768 471.259 218.657 470.475 217.276C469.71 215.876 469.327 214.336 469.327 212.656C469.327 211.256 469.542 209.977 469.971 208.82C470.401 207.663 471.091 206.645 472.043 205.768C473.014 204.872 474.311 204.125 475.935 203.528C477.055 203.117 478.39 202.753 479.939 202.436C481.489 202.119 483.243 201.82 485.203 201.54C487.163 201.241 489.319 200.915 491.671 200.56L488.927 202.072C488.927 200.28 488.498 198.964 487.639 198.124C486.781 197.284 485.343 196.864 483.327 196.864C482.207 196.864 481.041 197.135 479.827 197.676C478.614 198.217 477.765 199.179 477.279 200.56L470.391 198.376C471.157 195.875 472.594 193.84 474.703 192.272C476.813 190.704 479.687 189.92 483.327 189.92C485.997 189.92 488.367 190.331 490.439 191.152C492.511 191.973 494.079 193.392 495.143 195.408C495.741 196.528 496.095 197.648 496.207 198.768C496.319 199.888 496.375 201.139 496.375 202.52V221H489.711V214.784L490.663 216.072C489.189 218.107 487.593 219.581 485.875 220.496C484.177 221.392 482.021 221.84 479.407 221.84ZM481.031 215.848C482.431 215.848 483.607 215.605 484.559 215.12C485.53 214.616 486.295 214.047 486.855 213.412C487.434 212.777 487.826 212.245 488.031 211.816C488.423 210.995 488.647 210.043 488.703 208.96C488.778 207.859 488.815 206.944 488.815 206.216L491.055 206.776C488.797 207.149 486.967 207.467 485.567 207.728C484.167 207.971 483.038 208.195 482.179 208.4C481.321 208.605 480.565 208.829 479.911 209.072C479.165 209.371 478.558 209.697 478.091 210.052C477.643 210.388 477.307 210.761 477.083 211.172C476.878 211.583 476.775 212.04 476.775 212.544C476.775 213.235 476.943 213.832 477.279 214.336C477.634 214.821 478.129 215.195 478.763 215.456C479.398 215.717 480.154 215.848 481.031 215.848ZM514.912 235.28C513.194 235.28 511.561 235 510.012 234.44C508.462 233.899 507.072 233.133 505.84 232.144C504.626 231.173 503.637 230.035 502.872 228.728L509.928 225.312C510.413 226.208 511.104 226.889 512 227.356C512.914 227.823 513.904 228.056 514.968 228.056C516.106 228.056 517.18 227.86 518.188 227.468C519.196 227.095 519.998 226.525 520.596 225.76C521.212 225.013 521.501 224.08 521.464 222.96V214.168H522.416V190.76H529.08V223.072C529.08 223.819 529.042 224.519 528.968 225.172C528.912 225.844 528.8 226.507 528.632 227.16C528.146 229.008 527.241 230.529 525.916 231.724C524.609 232.919 523.004 233.805 521.1 234.384C519.196 234.981 517.133 235.28 514.912 235.28ZM514.24 221.84C511.458 221.84 509.022 221.14 506.932 219.74C504.841 218.34 503.208 216.436 502.032 214.028C500.874 211.62 500.296 208.904 500.296 205.88C500.296 202.8 500.884 200.065 502.06 197.676C503.254 195.268 504.925 193.373 507.072 191.992C509.218 190.611 511.738 189.92 514.632 189.92C517.506 189.92 519.924 190.62 521.884 192.02C523.844 193.42 525.328 195.324 526.336 197.732C527.344 200.14 527.848 202.856 527.848 205.88C527.848 208.904 527.334 211.62 526.308 214.028C525.3 216.436 523.788 218.34 521.772 219.74C519.756 221.14 517.245 221.84 514.24 221.84ZM515.472 215.064C517.17 215.064 518.524 214.681 519.532 213.916C520.558 213.151 521.296 212.077 521.744 210.696C522.192 209.315 522.416 207.709 522.416 205.88C522.416 204.051 522.192 202.445 521.744 201.064C521.296 199.683 520.577 198.609 519.588 197.844C518.617 197.079 517.338 196.696 515.752 196.696C514.053 196.696 512.653 197.116 511.552 197.956C510.469 198.777 509.666 199.888 509.144 201.288C508.621 202.669 508.36 204.2 508.36 205.88C508.36 207.579 508.612 209.128 509.116 210.528C509.62 211.909 510.394 213.011 511.44 213.832C512.485 214.653 513.829 215.064 515.472 215.064ZM549.297 221.84C546.198 221.84 543.464 221.177 541.093 219.852C538.741 218.508 536.893 216.669 535.549 214.336C534.224 211.984 533.561 209.296 533.561 206.272C533.561 202.968 534.214 200.093 535.521 197.648C536.828 195.203 538.629 193.308 540.925 191.964C543.221 190.601 545.862 189.92 548.849 189.92C552.022 189.92 554.72 190.667 556.941 192.16C559.162 193.653 560.805 195.753 561.869 198.46C562.933 201.167 563.306 204.349 562.989 208.008H555.457V205.208C555.457 202.128 554.962 199.916 553.973 198.572C553.002 197.209 551.406 196.528 549.185 196.528C546.59 196.528 544.677 197.321 543.445 198.908C542.232 200.476 541.625 202.8 541.625 205.88C541.625 208.699 542.232 210.883 543.445 212.432C544.677 213.963 546.478 214.728 548.849 214.728C550.342 214.728 551.621 214.401 552.685 213.748C553.749 213.095 554.561 212.152 555.121 210.92L562.737 213.104C561.598 215.867 559.797 218.013 557.333 219.544C554.888 221.075 552.209 221.84 549.297 221.84ZM539.273 208.008V202.352H559.321V208.008H539.273ZM588.978 221.84C585.17 221.84 582.09 220.981 579.738 219.264C577.405 217.528 575.986 215.083 575.482 211.928L583.266 210.752C583.584 212.171 584.284 213.281 585.366 214.084C586.468 214.887 587.858 215.288 589.538 215.288C590.92 215.288 591.984 215.027 592.73 214.504C593.477 213.963 593.85 213.216 593.85 212.264C593.85 211.667 593.701 211.191 593.402 210.836C593.104 210.463 592.432 210.099 591.386 209.744C590.36 209.389 588.754 208.923 586.57 208.344C584.106 207.709 582.137 207 580.662 206.216C579.188 205.432 578.124 204.499 577.47 203.416C576.817 202.315 576.49 200.989 576.49 199.44C576.49 197.499 576.985 195.819 577.974 194.4C578.964 192.963 580.354 191.861 582.146 191.096C583.957 190.312 586.085 189.92 588.53 189.92C590.901 189.92 593.001 190.284 594.83 191.012C596.66 191.74 598.134 192.776 599.254 194.12C600.393 195.464 601.093 197.051 601.354 198.88L593.57 200.28C593.44 199.16 592.954 198.273 592.114 197.62C591.274 196.967 590.136 196.584 588.698 196.472C587.298 196.379 586.169 196.565 585.31 197.032C584.47 197.499 584.05 198.171 584.05 199.048C584.05 199.571 584.228 200.009 584.582 200.364C584.956 200.719 585.712 201.083 586.85 201.456C588.008 201.829 589.762 202.315 592.114 202.912C594.41 203.509 596.249 204.209 597.63 205.012C599.03 205.796 600.048 206.748 600.682 207.868C601.317 208.969 601.634 210.304 601.634 211.872C601.634 214.971 600.514 217.407 598.274 219.18C596.034 220.953 592.936 221.84 588.978 221.84ZM620.947 221.84C617.942 221.84 615.431 221.14 613.415 219.74C611.399 218.34 609.878 216.436 608.851 214.028C607.843 211.62 607.339 208.904 607.339 205.88C607.339 202.856 607.843 200.14 608.851 197.732C609.859 195.324 611.343 193.42 613.303 192.02C615.263 190.62 617.681 189.92 620.555 189.92C623.449 189.92 625.969 190.611 628.115 191.992C630.262 193.373 631.923 195.268 633.099 197.676C634.294 200.065 634.891 202.8 634.891 205.88C634.891 208.904 634.303 211.62 633.127 214.028C631.97 216.436 630.346 218.34 628.255 219.74C626.165 221.14 623.729 221.84 620.947 221.84ZM606.051 234.44V190.76H612.771V211.48H613.723V234.44H606.051ZM619.715 215.064C621.358 215.064 622.702 214.653 623.747 213.832C624.793 213.011 625.567 211.909 626.071 210.528C626.575 209.128 626.827 207.579 626.827 205.88C626.827 204.2 626.566 202.669 626.043 201.288C625.521 199.888 624.709 198.777 623.607 197.956C622.525 197.116 621.134 196.696 619.435 196.696C617.849 196.696 616.561 197.079 615.571 197.844C614.601 198.609 613.891 199.683 613.443 201.064C612.995 202.445 612.771 204.051 612.771 205.88C612.771 207.709 612.995 209.315 613.443 210.696C613.891 212.077 614.619 213.151 615.627 213.916C616.654 214.681 618.017 215.064 619.715 215.064ZM653.429 221.84C650.33 221.84 647.595 221.177 645.225 219.852C642.873 218.508 641.025 216.669 639.681 214.336C638.355 211.984 637.693 209.296 637.693 206.272C637.693 202.968 638.346 200.093 639.653 197.648C640.959 195.203 642.761 193.308 645.057 191.964C647.353 190.601 649.994 189.92 652.981 189.92C656.154 189.92 658.851 190.667 661.073 192.16C663.294 193.653 664.937 195.753 666.001 198.46C667.065 201.167 667.438 204.349 667.121 208.008H659.589V205.208C659.589 202.128 659.094 199.916 658.105 198.572C657.134 197.209 655.538 196.528 653.317 196.528C650.722 196.528 648.809 197.321 647.577 198.908C646.363 200.476 645.757 202.8 645.757 205.88C645.757 208.699 646.363 210.883 647.577 212.432C648.809 213.963 650.61 214.728 652.981 214.728C654.474 214.728 655.753 214.401 656.817 213.748C657.881 213.095 658.693 212.152 659.253 210.92L666.869 213.104C665.73 215.867 663.929 218.013 661.465 219.544C659.019 221.075 656.341 221.84 653.429 221.84ZM643.405 208.008V202.352H663.453V208.008H643.405ZM691.551 221V206.72C691.551 206.029 691.513 205.152 691.439 204.088C691.364 203.005 691.131 201.923 690.739 200.84C690.347 199.757 689.703 198.852 688.807 198.124C687.929 197.396 686.679 197.032 685.055 197.032C684.401 197.032 683.701 197.135 682.955 197.34C682.208 197.545 681.508 197.947 680.855 198.544C680.201 199.123 679.66 199.981 679.231 201.12C678.82 202.259 678.615 203.771 678.615 205.656L674.247 203.584C674.247 201.195 674.732 198.955 675.703 196.864C676.673 194.773 678.129 193.084 680.071 191.796C682.031 190.508 684.495 189.864 687.463 189.864C689.833 189.864 691.765 190.265 693.259 191.068C694.752 191.871 695.909 192.888 696.731 194.12C697.571 195.352 698.168 196.64 698.523 197.984C698.877 199.309 699.092 200.523 699.167 201.624C699.241 202.725 699.279 203.528 699.279 204.032V221H691.551ZM670.887 221V190.76H677.663V200.784H678.615V221H670.887ZM716.581 221.84C713.8 221.84 711.364 221.14 709.273 219.74C707.183 218.34 705.549 216.436 704.373 214.028C703.216 211.62 702.637 208.904 702.637 205.88C702.637 202.8 703.225 200.065 704.401 197.676C705.596 195.268 707.267 193.373 709.413 191.992C711.56 190.611 714.08 189.92 716.973 189.92C719.848 189.92 722.265 190.62 724.225 192.02C726.185 193.42 727.669 195.324 728.677 197.732C729.685 200.14 730.189 202.856 730.189 205.88C730.189 208.904 729.676 211.62 728.649 214.028C727.641 216.436 726.129 218.34 724.113 219.74C722.097 221.14 719.587 221.84 716.581 221.84ZM717.813 215.064C719.512 215.064 720.865 214.681 721.873 213.916C722.9 213.151 723.637 212.077 724.085 210.696C724.533 209.315 724.757 207.709 724.757 205.88C724.757 204.051 724.533 202.445 724.085 201.064C723.637 199.683 722.919 198.609 721.929 197.844C720.959 197.079 719.68 196.696 718.093 196.696C716.395 196.696 714.995 197.116 713.893 197.956C712.811 198.777 712.008 199.888 711.485 201.288C710.963 202.669 710.701 204.2 710.701 205.88C710.701 207.579 710.953 209.128 711.457 210.528C711.961 211.909 712.736 213.011 713.781 213.832C714.827 214.653 716.171 215.064 717.813 215.064ZM724.757 221V200.28H723.805V180.68H731.477V221H724.757ZM738.197 186.56V179.84H745.813V186.56H738.197ZM738.197 221V190.76H745.813V221H738.197ZM773.136 221V206.72C773.136 206.029 773.098 205.152 773.024 204.088C772.949 203.005 772.716 201.923 772.324 200.84C771.932 199.757 771.288 198.852 770.392 198.124C769.514 197.396 768.264 197.032 766.64 197.032C765.986 197.032 765.286 197.135 764.54 197.34C763.793 197.545 763.093 197.947 762.44 198.544C761.786 199.123 761.245 199.981 760.816 201.12C760.405 202.259 760.2 203.771 760.2 205.656L755.832 203.584C755.832 201.195 756.317 198.955 757.288 196.864C758.258 194.773 759.714 193.084 761.656 191.796C763.616 190.508 766.08 189.864 769.048 189.864C771.418 189.864 773.35 190.265 774.844 191.068C776.337 191.871 777.494 192.888 778.316 194.12C779.156 195.352 779.753 196.64 780.108 197.984C780.462 199.309 780.677 200.523 780.752 201.624C780.826 202.725 780.864 203.528 780.864 204.032V221H773.136ZM752.472 221V190.76H759.248V200.784H760.2V221H752.472ZM799.385 235.28C797.668 235.28 796.035 235 794.485 234.44C792.936 233.899 791.545 233.133 790.313 232.144C789.1 231.173 788.111 230.035 787.345 228.728L794.401 225.312C794.887 226.208 795.577 226.889 796.473 227.356C797.388 227.823 798.377 228.056 799.441 228.056C800.58 228.056 801.653 227.86 802.661 227.468C803.669 227.095 804.472 226.525 805.069 225.76C805.685 225.013 805.975 224.08 805.937 222.96V214.168H806.889V190.76H813.553V223.072C813.553 223.819 813.516 224.519 813.441 225.172C813.385 225.844 813.273 226.507 813.105 227.16C812.62 229.008 811.715 230.529 810.389 231.724C809.083 232.919 807.477 233.805 805.573 234.384C803.669 234.981 801.607 235.28 799.385 235.28ZM798.713 221.84C795.932 221.84 793.496 221.14 791.405 219.74C789.315 218.34 787.681 216.436 786.505 214.028C785.348 211.62 784.769 208.904 784.769 205.88C784.769 202.8 785.357 200.065 786.533 197.676C787.728 195.268 789.399 193.373 791.545 191.992C793.692 190.611 796.212 189.92 799.105 189.92C801.98 189.92 804.397 190.62 806.357 192.02C808.317 193.42 809.801 195.324 810.809 197.732C811.817 200.14 812.321 202.856 812.321 205.88C812.321 208.904 811.808 211.62 810.781 214.028C809.773 216.436 808.261 218.34 806.245 219.74C804.229 221.14 801.719 221.84 798.713 221.84ZM799.945 215.064C801.644 215.064 802.997 214.681 804.005 213.916C805.032 213.151 805.769 212.077 806.217 210.696C806.665 209.315 806.889 207.709 806.889 205.88C806.889 204.051 806.665 202.445 806.217 201.064C805.769 199.683 805.051 198.609 804.061 197.844C803.091 197.079 801.812 196.696 800.225 196.696C798.527 196.696 797.127 197.116 796.025 197.956C794.943 198.777 794.14 199.888 793.617 201.288C793.095 202.669 792.833 204.2 792.833 205.88C792.833 207.579 793.085 209.128 793.589 210.528C794.093 211.909 794.868 213.011 795.913 213.832C796.959 214.653 798.303 215.064 799.945 215.064ZM831.531 221.84C827.723 221.84 824.643 220.981 822.291 219.264C819.957 217.528 818.539 215.083 818.035 211.928L825.819 210.752C826.136 212.171 826.836 213.281 827.919 214.084C829.02 214.887 830.411 215.288 832.091 215.288C833.472 215.288 834.536 215.027 835.283 214.504C836.029 213.963 836.403 213.216 836.403 212.264C836.403 211.667 836.253 211.191 835.955 210.836C835.656 210.463 834.984 210.099 833.939 209.744C832.912 209.389 831.307 208.923 829.123 208.344C826.659 207.709 824.689 207 823.215 206.216C821.74 205.432 820.676 204.499 820.023 203.416C819.369 202.315 819.043 200.989 819.043 199.44C819.043 197.499 819.537 195.819 820.527 194.4C821.516 192.963 822.907 191.861 824.699 191.096C826.509 190.312 828.637 189.92 831.083 189.92C833.453 189.92 835.553 190.284 837.383 191.012C839.212 191.74 840.687 192.776 841.807 194.12C842.945 195.464 843.645 197.051 843.907 198.88L836.123 200.28C835.992 199.16 835.507 198.273 834.667 197.62C833.827 196.967 832.688 196.584 831.251 196.472C829.851 196.379 828.721 196.565 827.863 197.032C827.023 197.499 826.603 198.171 826.603 199.048C826.603 199.571 826.78 200.009 827.135 200.364C827.508 200.719 828.264 201.083 829.403 201.456C830.56 201.829 832.315 202.315 834.667 202.912C836.963 203.509 838.801 204.209 840.183 205.012C841.583 205.796 842.6 206.748 843.235 207.868C843.869 208.969 844.187 210.304 844.187 211.872C844.187 214.971 843.067 217.407 840.827 219.18C838.587 220.953 835.488 221.84 831.531 221.84Z" fill="white"/>
<g opacity="0.3">
<path d="M190 58H194V62H190V58Z" fill="#C4C4C4"/>
<path d="M214 58H218V62H214V58Z" fill="#C4C4C4"/>
<path d="M238 58H242V62H238V58Z" fill="#C4C4C4"/>
<path d="M262 58H266V62H262V58Z" fill="#C4C4C4"/>
<path d="M286 58H290V62H286V58Z" fill="#C4C4C4"/>
<path d="M310 58H314V62H310V58Z" fill="#C4C4C4"/>
<path d="M334 58H338V62H334V58Z" fill="#C4C4C4"/>
<path d="M190 82H194V86H190V82Z" fill="#C4C4C4"/>
<path d="M214 82H218V86H214V82Z" fill="#C4C4C4"/>
<path d="M238 82H242V86H238V82Z" fill="#C4C4C4"/>
<path d="M262 82H266V86H262V82Z" fill="#C4C4C4"/>
<path d="M286 82H290V86H286V82Z" fill="#C4C4C4"/>
<path d="M310 82H314V86H310V82Z" fill="#C4C4C4"/>
<path d="M334 82H338V86H334V82Z" fill="#C4C4C4"/>
<path d="M190 106H194V110H190V106Z" fill="#C4C4C4"/>
<path d="M214 106H218V110H214V106Z" fill="#C4C4C4"/>
<path d="M238 106H242V110H238V106Z" fill="#C4C4C4"/>
<path d="M262 106H266V110H262V106Z" fill="#C4C4C4"/>
<path d="M286 106H290V110H286V106Z" fill="#C4C4C4"/>
<path d="M310 106H314V110H310V106Z" fill="#C4C4C4"/>
<path d="M334 106H338V110H334V106Z" fill="#C4C4C4"/>
<path d="M190 130H194V134H190V130Z" fill="#C4C4C4"/>
<path d="M214 130H218V134H214V130Z" fill="#C4C4C4"/>
<path d="M238 130H242V134H238V130Z" fill="#C4C4C4"/>
<path d="M262 130H266V134H262V130Z" fill="#C4C4C4"/>
<path d="M286 130H290V134H286V130Z" fill="#C4C4C4"/>
<path d="M310 130H314V134H310V130Z" fill="#C4C4C4"/>
<path d="M334 130H338V134H334V130Z" fill="#C4C4C4"/>
<path d="M190 154H194V158H190V154Z" fill="#C4C4C4"/>
<path d="M214 154H218V158H214V154Z" fill="#C4C4C4"/>
<path d="M238 154H242V158H238V154Z" fill="#C4C4C4"/>
<path d="M262 154H266V158H262V154Z" fill="#C4C4C4"/>
<path d="M286 154H290V158H286V154Z" fill="#C4C4C4"/>
<path d="M310 154H314V158H310V154Z" fill="#C4C4C4"/>
<path d="M334 154H338V158H334V154Z" fill="#C4C4C4"/>
<path d="M190 178H194V182H190V178Z" fill="#C4C4C4"/>
<path d="M214 178H218V182H214V178Z" fill="#C4C4C4"/>
<path d="M238 178H242V182H238V178Z" fill="#C4C4C4"/>
<path d="M262 178H266V182H262V178Z" fill="#C4C4C4"/>
<path d="M286 178H290V182H286V178Z" fill="#C4C4C4"/>
<path d="M310 178H314V182H310V178Z" fill="#C4C4C4"/>
<path d="M334 178H338V182H334V178Z" fill="#C4C4C4"/>
<path d="M190 202H194V206H190V202Z" fill="#C4C4C4"/>
<path d="M214 202H218V206H214V202Z" fill="#C4C4C4"/>
<path d="M238 202H242V206H238V202Z" fill="#C4C4C4"/>
<path d="M262 202H266V206H262V202Z" fill="#C4C4C4"/>
<path d="M286 202H290V206H286V202Z" fill="#C4C4C4"/>
<path d="M310 202H314V206H310V202Z" fill="#C4C4C4"/>
<path d="M334 202H338V206H334V202Z" fill="#C4C4C4"/>
</g>
<rect x="488" y="271" width="223" height="67" rx="10" fill="#FF7F5C"/>
<path d="M536.846 312.27C536.006 312.27 535.217 312.123 534.479 311.829C533.747 311.529 533.102 311.091 532.544 310.515C531.992 309.939 531.56 309.234 531.248 308.4C530.936 307.56 530.78 306.6 530.78 305.52C530.78 304.104 531.044 302.895 531.572 301.893C532.1 300.885 532.823 300.114 533.741 299.58C534.659 299.04 535.694 298.77 536.846 298.77C538.442 298.77 539.705 299.142 540.635 299.886C541.571 300.624 542.204 301.662 542.534 303L540.32 303.351C540.074 302.583 539.672 301.971 539.114 301.515C538.556 301.053 537.845 300.822 536.981 300.822C536.111 300.81 535.388 300.999 534.812 301.389C534.236 301.779 533.801 302.328 533.507 303.036C533.219 303.744 533.075 304.572 533.075 305.52C533.075 306.468 533.219 307.293 533.507 307.995C533.795 308.691 534.227 309.234 534.803 309.624C535.385 310.014 536.111 310.215 536.981 310.227C537.635 310.233 538.208 310.116 538.7 309.876C539.192 309.63 539.594 309.261 539.906 308.769C540.218 308.271 540.428 307.65 540.536 306.906H538.25V305.205H542.84C542.852 305.301 542.861 305.442 542.867 305.628C542.873 305.814 542.876 305.925 542.876 305.961C542.876 307.185 542.633 308.274 542.147 309.228C541.667 310.176 540.977 310.92 540.077 311.46C539.177 312 538.1 312.27 536.846 312.27ZM548.742 312.27C547.758 312.27 546.894 312.057 546.15 311.631C545.406 311.205 544.824 310.614 544.404 309.858C543.99 309.102 543.783 308.232 543.783 307.248C543.783 306.186 543.987 305.265 544.395 304.485C544.803 303.699 545.37 303.09 546.096 302.658C546.822 302.226 547.662 302.01 548.616 302.01C549.624 302.01 550.479 302.247 551.181 302.721C551.889 303.189 552.414 303.852 552.756 304.71C553.098 305.568 553.227 306.579 553.143 307.743H550.992V306.951C550.986 305.895 550.8 305.124 550.434 304.638C550.068 304.152 549.492 303.909 548.706 303.909C547.818 303.909 547.158 304.185 546.726 304.737C546.294 305.283 546.078 306.084 546.078 307.14C546.078 308.124 546.294 308.886 546.726 309.426C547.158 309.966 547.788 310.236 548.616 310.236C549.15 310.236 549.609 310.119 549.993 309.885C550.383 309.645 550.683 309.3 550.893 308.85L553.035 309.498C552.663 310.374 552.087 311.055 551.307 311.541C550.533 312.027 549.678 312.27 548.742 312.27ZM545.394 307.743V306.105H552.081V307.743H545.394ZM560.488 312C559.846 312.12 559.216 312.171 558.598 312.153C557.986 312.141 557.437 312.03 556.951 311.82C556.465 311.604 556.096 311.265 555.844 310.803C555.622 310.383 555.505 309.954 555.493 309.516C555.481 309.078 555.475 308.583 555.475 308.031V299.58H557.635V307.905C557.635 308.295 557.638 308.637 557.644 308.931C557.656 309.225 557.719 309.465 557.833 309.651C558.049 310.011 558.394 310.212 558.868 310.254C559.342 310.296 559.882 310.272 560.488 310.182V312ZM553.711 303.981V302.28H560.488V303.981H553.711ZM570.259 312.27C569.311 312.27 568.456 312.105 567.694 311.775C566.938 311.445 566.314 310.974 565.822 310.362C565.336 309.744 565.027 309.012 564.895 308.166L567.145 307.824C567.337 308.592 567.73 309.186 568.324 309.606C568.924 310.026 569.614 310.236 570.394 310.236C570.856 310.236 571.291 310.164 571.699 310.02C572.107 309.876 572.437 309.666 572.689 309.39C572.947 309.114 573.076 308.775 573.076 308.373C573.076 308.193 573.046 308.028 572.986 307.878C572.926 307.722 572.836 307.584 572.716 307.464C572.602 307.344 572.452 307.236 572.266 307.14C572.086 307.038 571.876 306.951 571.636 306.879L568.288 305.889C568 305.805 567.688 305.694 567.352 305.556C567.022 305.412 566.707 305.217 566.407 304.971C566.113 304.719 565.87 304.401 565.678 304.017C565.492 303.627 565.399 303.147 565.399 302.577C565.399 301.743 565.609 301.044 566.029 300.48C566.455 299.91 567.025 299.484 567.739 299.202C568.459 298.92 569.257 298.782 570.133 298.788C571.021 298.794 571.813 298.947 572.509 299.247C573.205 299.541 573.787 299.97 574.255 300.534C574.723 301.098 575.053 301.779 575.245 302.577L572.914 302.982C572.818 302.526 572.632 302.139 572.356 301.821C572.086 301.497 571.753 301.251 571.357 301.083C570.967 300.915 570.55 300.825 570.106 300.813C569.674 300.807 569.272 300.873 568.9 301.011C568.534 301.143 568.237 301.335 568.009 301.587C567.787 301.839 567.676 302.133 567.676 302.469C567.676 302.787 567.772 303.048 567.964 303.252C568.156 303.45 568.393 303.609 568.675 303.729C568.963 303.843 569.254 303.939 569.548 304.017L571.87 304.665C572.188 304.749 572.545 304.863 572.941 305.007C573.337 305.151 573.718 305.352 574.084 305.61C574.45 305.868 574.75 306.207 574.984 306.627C575.224 307.047 575.344 307.581 575.344 308.229C575.344 308.901 575.203 309.492 574.921 310.002C574.645 310.506 574.27 310.926 573.796 311.262C573.322 311.598 572.779 311.85 572.167 312.018C571.561 312.186 570.925 312.27 570.259 312.27ZM582.629 312C581.987 312.12 581.357 312.171 580.739 312.153C580.127 312.141 579.578 312.03 579.092 311.82C578.606 311.604 578.237 311.265 577.985 310.803C577.763 310.383 577.646 309.954 577.634 309.516C577.622 309.078 577.616 308.583 577.616 308.031V299.58H579.776V307.905C579.776 308.295 579.779 308.637 579.785 308.931C579.797 309.225 579.86 309.465 579.974 309.651C580.19 310.011 580.535 310.212 581.009 310.254C581.483 310.296 582.023 310.272 582.629 310.182V312ZM575.852 303.981V302.28H582.629V303.981H575.852ZM587.077 312.27C586.375 312.27 585.781 312.138 585.295 311.874C584.809 311.604 584.44 311.247 584.188 310.803C583.942 310.359 583.819 309.87 583.819 309.336C583.819 308.868 583.897 308.448 584.053 308.076C584.209 307.698 584.449 307.374 584.773 307.104C585.097 306.828 585.517 306.603 586.033 306.429C586.423 306.303 586.879 306.189 587.401 306.087C587.929 305.985 588.499 305.892 589.111 305.808C589.729 305.718 590.374 305.622 591.046 305.52L590.272 305.961C590.278 305.289 590.128 304.794 589.822 304.476C589.516 304.158 589 303.999 588.274 303.999C587.836 303.999 587.413 304.101 587.005 304.305C586.597 304.509 586.312 304.86 586.15 305.358L584.17 304.737C584.41 303.915 584.866 303.255 585.538 302.757C586.216 302.259 587.128 302.01 588.274 302.01C589.138 302.01 589.897 302.151 590.551 302.433C591.211 302.715 591.7 303.177 592.018 303.819C592.192 304.161 592.297 304.512 592.333 304.872C592.369 305.226 592.387 305.613 592.387 306.033V312H590.488V309.894L590.803 310.236C590.365 310.938 589.852 311.454 589.264 311.784C588.682 312.108 587.953 312.27 587.077 312.27ZM587.509 310.542C588.001 310.542 588.421 310.455 588.769 310.281C589.117 310.107 589.393 309.894 589.597 309.642C589.807 309.39 589.948 309.153 590.02 308.931C590.134 308.655 590.197 308.34 590.209 307.986C590.227 307.626 590.236 307.335 590.236 307.113L590.902 307.311C590.248 307.413 589.687 307.503 589.219 307.581C588.751 307.659 588.349 307.734 588.013 307.806C587.677 307.872 587.38 307.947 587.122 308.031C586.87 308.121 586.657 308.226 586.483 308.346C586.309 308.466 586.174 308.604 586.078 308.76C585.988 308.916 585.943 309.099 585.943 309.309C585.943 309.549 586.003 309.762 586.123 309.948C586.243 310.128 586.417 310.272 586.645 310.38C586.879 310.488 587.167 310.542 587.509 310.542ZM594.37 312V302.28H596.287V304.647L596.053 304.341C596.173 304.017 596.332 303.723 596.53 303.459C596.734 303.189 596.977 302.967 597.259 302.793C597.499 302.631 597.763 302.505 598.051 302.415C598.345 302.319 598.645 302.262 598.951 302.244C599.257 302.22 599.554 302.232 599.842 302.28V304.305C599.554 304.221 599.221 304.194 598.843 304.224C598.471 304.254 598.135 304.359 597.835 304.539C597.535 304.701 597.289 304.908 597.097 305.16C596.911 305.412 596.773 305.7 596.683 306.024C596.593 306.342 596.548 306.687 596.548 307.059V312H594.37ZM606.897 312C606.255 312.12 605.625 312.171 605.007 312.153C604.395 312.141 603.846 312.03 603.36 311.82C602.874 311.604 602.505 311.265 602.253 310.803C602.031 310.383 601.914 309.954 601.902 309.516C601.89 309.078 601.884 308.583 601.884 308.031V299.58H604.044V307.905C604.044 308.295 604.047 308.637 604.053 308.931C604.065 309.225 604.128 309.465 604.242 309.651C604.458 310.011 604.803 310.212 605.277 310.254C605.751 310.296 606.291 310.272 606.897 310.182V312ZM600.12 303.981V302.28H606.897V303.981H600.12ZM612.554 312.27C611.57 312.27 610.706 312.057 609.962 311.631C609.218 311.205 608.636 310.614 608.216 309.858C607.802 309.102 607.595 308.232 607.595 307.248C607.595 306.186 607.799 305.265 608.207 304.485C608.615 303.699 609.182 303.09 609.908 302.658C610.634 302.226 611.474 302.01 612.428 302.01C613.436 302.01 614.291 302.247 614.993 302.721C615.701 303.189 616.226 303.852 616.568 304.71C616.91 305.568 617.039 306.579 616.955 307.743H614.804V306.951C614.798 305.895 614.612 305.124 614.246 304.638C613.88 304.152 613.304 303.909 612.518 303.909C611.63 303.909 610.97 304.185 610.538 304.737C610.106 305.283 609.89 306.084 609.89 307.14C609.89 308.124 610.106 308.886 610.538 309.426C610.97 309.966 611.6 310.236 612.428 310.236C612.962 310.236 613.421 310.119 613.805 309.885C614.195 309.645 614.495 309.3 614.705 308.85L616.847 309.498C616.475 310.374 615.899 311.055 615.119 311.541C614.345 312.027 613.49 312.27 612.554 312.27ZM609.206 307.743V306.105H615.893V307.743H609.206ZM622.5 312.27C621.606 312.27 620.826 312.045 620.16 311.595C619.494 311.145 618.978 310.533 618.612 309.759C618.246 308.985 618.063 308.112 618.063 307.14C618.063 306.156 618.246 305.28 618.612 304.512C618.984 303.738 619.509 303.129 620.187 302.685C620.865 302.235 621.663 302.01 622.581 302.01C623.505 302.01 624.279 302.235 624.903 302.685C625.533 303.129 626.01 303.738 626.334 304.512C626.658 305.286 626.82 306.162 626.82 307.14C626.82 308.106 626.658 308.979 626.334 309.759C626.01 310.533 625.527 311.145 624.885 311.595C624.243 312.045 623.448 312.27 622.5 312.27ZM622.833 310.326C623.415 310.326 623.883 310.194 624.237 309.93C624.597 309.66 624.858 309.285 625.02 308.805C625.188 308.325 625.272 307.77 625.272 307.14C625.272 306.504 625.188 305.949 625.02 305.475C624.858 304.995 624.603 304.623 624.255 304.359C623.907 304.089 623.457 303.954 622.905 303.954C622.323 303.954 621.843 304.098 621.465 304.386C621.087 304.668 620.808 305.052 620.628 305.538C620.448 306.018 620.358 306.552 620.358 307.14C620.358 307.734 620.445 308.274 620.619 308.76C620.799 309.24 621.072 309.621 621.438 309.903C621.804 310.185 622.269 310.326 622.833 310.326ZM625.272 312V305.178H625.002V299.04H627.189V312H625.272ZM632.596 312V299.04H634.792L640.804 308.175V299.04H643V312H640.804L634.792 302.865V312H632.596ZM649.449 312.27C648.477 312.27 647.628 312.051 646.902 311.613C646.176 311.175 645.612 310.572 645.21 309.804C644.814 309.03 644.616 308.142 644.616 307.14C644.616 306.12 644.82 305.226 645.228 304.458C645.636 303.69 646.203 303.09 646.929 302.658C647.655 302.226 648.495 302.01 649.449 302.01C650.427 302.01 651.279 302.229 652.005 302.667C652.731 303.105 653.295 303.711 653.697 304.485C654.099 305.253 654.3 306.138 654.3 307.14C654.3 308.148 654.096 309.039 653.688 309.813C653.286 310.581 652.722 311.184 651.996 311.622C651.27 312.054 650.421 312.27 649.449 312.27ZM649.449 310.236C650.313 310.236 650.955 309.948 651.375 309.372C651.795 308.796 652.005 308.052 652.005 307.14C652.005 306.198 651.792 305.448 651.366 304.89C650.94 304.326 650.301 304.044 649.449 304.044C648.867 304.044 648.387 304.176 648.009 304.44C647.637 304.698 647.361 305.061 647.181 305.529C647.001 305.991 646.911 306.528 646.911 307.14C646.911 308.082 647.124 308.835 647.55 309.399C647.982 309.957 648.615 310.236 649.449 310.236ZM657.641 312L654.671 302.262L656.795 302.28L658.694 308.517L660.62 302.28H662.447L664.364 308.517L666.272 302.28H668.396L665.426 312H663.734L661.529 305.313L659.333 312H657.641Z" fill="white"/>
<path d="M981.583 60.6668L990.75 52.3335L999.083 60.6668L1006.17 53.5835L1013.25 60.6668L1020.33 53.5835L1027.42 60.6668L1034.5 53.5835L1041.58 60.6668L1048.67 53.5835L1055.75 60.6668L1062.83 53.5835L1069.92 60.6668L1077 53.5835" stroke="#E6EFFF" stroke-width="2" stroke-linecap="round" stroke-linejoin="round"/>
<circle cx="1077" cy="54" r="4" fill="#002F86" stroke="white" stroke-width="2"/>
<circle cx="982" cy="60.6667" r="4" fill="#002F86" stroke="white" stroke-width="2"/>
<path d="M119.2 390L111.2 381.2L119.2 373.2L112.4 366.4L119.2 359.6L112.4 352.8L119.2 346L112.4 339.2L119.2 332.4L112.4 325.6L119.2 318.8L112.4 312L119.2 305.2L112.4 298.4" stroke="#E6EFFF" stroke-width="2" stroke-linecap="round" stroke-linejoin="round"/>
<circle cx="112.8" cy="298.4" r="3.80001" transform="rotate(-90 112.8 298.4)" fill="#002F86" stroke="white" stroke-width="2"/>
<circle cx="119.2" cy="389.6" r="3.80001" transform="rotate(-90 119.2 389.6)" fill="#002F86" stroke="white" stroke-width="2"/>
<path d="M297.091 315.181C301.675 315.181 306.215 314.279 310.45 312.524C314.685 310.77 318.534 308.198 321.775 304.957C325.017 301.715 327.588 297.867 329.343 293.631C331.097 289.396 332 284.857 332 280.272L297.091 280.272L297.091 315.181Z" fill="#00E1F0"/>
<path opacity="0.1" d="M276 287C279.546 287 283.057 286.302 286.332 284.945C289.608 283.588 292.585 281.599 295.092 279.092C297.599 276.585 299.588 273.608 300.945 270.332C302.302 267.057 303 263.546 303 260L276 260L276 287Z" fill="#E8F2FF"/>
<path opacity="0.4" d="M1096.28 384.344C1105.18 384.344 1113.98 382.592 1122.2 379.189C1130.41 375.786 1137.88 370.799 1144.17 364.511C1150.45 358.223 1155.44 350.758 1158.84 342.542C1162.25 334.327 1164 325.521 1164 316.629L1096.28 316.629L1096.28 384.344Z" fill="#FDBC64"/>
<path opacity="0.3" d="M1055.37 329.678C1062.25 329.678 1069.06 328.323 1075.42 325.691C1081.77 323.059 1087.54 319.202 1092.41 314.338C1097.27 309.475 1101.13 303.701 1103.76 297.347C1106.39 290.993 1107.75 284.182 1107.75 277.305L1055.37 277.305L1055.37 329.678Z" fill="#E8F2FF"/>
</svg>
