<svg width="1258" height="99" viewBox="0 0 1258 99" fill="none" xmlns="http://www.w3.org/2000/svg">
<path d="M19.2721 92.7498V87.1895H13.2168C11.5701 87.1895 10.0448 88.0539 9.20137 89.4652L7.23828 92.7498H19.2721Z" fill="#63D2F9"/>
<path d="M0 71.3887V76.9491H15.949L19.2722 71.3887H0Z" fill="#4E5EE4"/>
<path d="M7.63304 80.0789L0.0175781 92.7499H6.50577L15.6125 77.5908H12.0297C10.2276 77.5908 8.55802 78.5356 7.63304 80.0789Z" fill="#63B0F9"/>
<path d="M33.0764 87.4131C29.8138 87.4131 27.4131 85.0416 27.4131 81.8592C27.4131 78.7074 29.8292 76.3054 33.0918 76.3054C36.3543 76.3054 38.7704 78.738 38.7704 81.8592C38.7704 85.011 36.3389 87.4131 33.0764 87.4131ZM33.0918 85.47C35.1539 85.47 36.6313 83.94 36.6313 81.8592C36.6313 79.809 35.1539 78.2484 33.0918 78.2484C31.0142 78.2484 29.5368 79.809 29.5368 81.8592C29.5368 83.94 31.0142 85.47 33.0918 85.47ZM40.9552 90.7332V79.1664H42.925V80.1915H43.0327C43.2482 79.8549 43.9869 78.9675 45.4643 78.9675C47.7265 78.9675 49.2808 80.6505 49.2808 83.1597C49.2808 85.6689 47.7419 87.4131 45.5258 87.4131C44.0946 87.4131 43.3251 86.6175 43.0635 86.1738H42.9558V90.7332H40.9552ZM45.0795 85.6077C46.3722 85.6077 47.2494 84.6132 47.2494 83.1903C47.2494 81.7215 46.3722 80.7729 45.0641 80.7729C43.7406 80.7729 42.9096 81.8286 42.9096 83.1903C42.9096 84.6897 43.833 85.6077 45.0795 85.6077ZM55.0051 87.4131C52.6197 87.4131 50.9269 85.6383 50.9269 83.2362C50.9269 80.6964 52.6351 78.9675 55.0051 78.9675C57.6059 78.9675 59.0217 80.88 59.0217 83.1444V83.7717H52.866C52.9275 84.9957 53.7739 85.8219 55.0667 85.8219C56.0516 85.8219 56.8057 85.3629 57.0827 84.705H58.9448C58.5447 86.3421 57.0981 87.4131 55.0051 87.4131ZM52.8968 82.3641H57.1134C57.0211 81.2778 56.1747 80.5587 55.0051 80.5587C53.8817 80.5587 53.0199 81.3543 52.8968 82.3641ZM61.1757 87.2142V79.1664H63.084V80.1456H63.1917C63.5149 79.5489 64.3151 78.9675 65.4693 78.9675C67.2853 78.9675 68.3933 80.2374 68.3933 81.951V87.2142H66.3927V82.4712C66.3927 81.492 65.7617 80.8341 64.8383 80.8341C63.8688 80.8341 63.1763 81.5991 63.1763 82.6089V87.2142H61.1757ZM70.3779 87.2142V85.3935L75.9797 78.3708V78.2637H70.578V76.5043H78.5343V78.3096L72.9326 85.3323V85.4547H78.5651V87.2142H70.3779ZM83.9816 87.4131C81.5962 87.4131 79.9034 85.6383 79.9034 83.2362C79.9034 80.6964 81.6116 78.9675 83.9816 78.9675C86.5824 78.9675 87.9982 80.88 87.9982 83.1444V83.7717H81.8425C81.904 84.9957 82.7504 85.8219 84.0431 85.8219C85.0281 85.8219 85.7821 85.3629 86.0592 84.705H87.9213C87.5211 86.3421 86.0745 87.4131 83.9816 87.4131ZM81.8732 82.3641H86.0899C85.9976 81.2778 85.1512 80.5587 83.9816 80.5587C82.8582 80.5587 81.9964 81.3543 81.8732 82.3641ZM90.1522 90.7332V79.1664H92.122V80.1915H92.2297C92.4452 79.8549 93.1839 78.9675 94.6612 78.9675C96.9235 78.9675 98.4778 80.6505 98.4778 83.1597C98.4778 85.6689 96.9389 87.4131 94.7228 87.4131C93.2916 87.4131 92.5221 86.6175 92.2605 86.1738H92.1528V90.7332H90.1522ZM94.2765 85.6077C95.5692 85.6077 96.4464 84.6132 96.4464 83.1903C96.4464 81.7215 95.5692 80.7729 94.2611 80.7729C92.9376 80.7729 92.1066 81.8286 92.1066 83.1903C92.1066 84.6897 93.03 85.6077 94.2765 85.6077ZM100.632 90.7332V79.1664H102.602V80.1915H102.709C102.925 79.8549 103.663 78.9675 105.141 78.9675C107.403 78.9675 108.957 80.6505 108.957 83.1597C108.957 85.6689 107.418 87.4131 105.202 87.4131C103.771 87.4131 103.002 86.6175 102.74 86.1738H102.632V90.7332H100.632ZM104.756 85.6077C106.049 85.6077 106.926 84.6132 106.926 83.1903C106.926 81.7215 106.049 80.7729 104.741 80.7729C103.417 80.7729 102.586 81.8286 102.586 83.1903C102.586 84.6897 103.51 85.6077 104.756 85.6077ZM114.682 87.4131C112.296 87.4131 110.604 85.6383 110.604 83.2362C110.604 80.6964 112.312 78.9675 114.682 78.9675C117.282 78.9675 118.698 80.88 118.698 83.1444V83.7717H112.543C112.604 84.9957 113.451 85.8219 114.743 85.8219C115.728 85.8219 116.482 85.3629 116.759 84.705H118.621C118.221 86.3421 116.775 87.4131 114.682 87.4131ZM112.573 82.3641H116.79C116.698 81.2778 115.851 80.5587 114.682 80.5587C113.558 80.5587 112.696 81.3543 112.573 82.3641ZM122.822 87.2142C121.406 87.2142 120.606 86.3727 120.606 84.9498V75.7393H122.607V84.7662C122.607 85.2252 122.837 85.47 123.253 85.47H123.576V87.2142H122.822ZM126.5 78.0954C125.776 78.0954 125.268 77.6517 125.268 76.9327C125.268 76.2442 125.776 75.7852 126.5 75.7852C127.223 75.7852 127.731 76.2442 127.731 76.9327C127.731 77.6517 127.223 78.0954 126.5 78.0954ZM125.499 87.2142V79.1664H127.5V87.2142H125.499ZM129.931 87.2142V79.1664H131.839V80.1456H131.947C132.27 79.5489 133.07 78.9675 134.224 78.9675C136.04 78.9675 137.148 80.2374 137.148 81.951V87.2142H135.148V82.4712C135.148 81.492 134.517 80.8341 133.594 80.8341C132.624 80.8341 131.931 81.5991 131.931 82.6089V87.2142H129.931Z" fill="#282846"/>
<path d="M245.912 84.7542H254.974L250.182 77.0447L241.388 90.9838H237.385L248.082 74.24C248.547 73.5635 249.323 73.1548 250.182 73.1548C251.014 73.1548 251.789 73.5494 252.24 74.2118L262.98 90.9838H258.977L257.088 87.869H247.913L245.912 84.7542ZM287.489 87.869V73.3239H284.093V89.2925C284.093 89.7294 284.262 90.1522 284.586 90.4764C284.91 90.8006 285.347 90.9838 285.826 90.9838H301.316L303.317 87.869H287.489ZM231.296 85.2616C234.594 85.2616 237.272 82.5978 237.272 79.2998C237.272 76.0018 234.594 73.3239 231.296 73.3239H216.437V90.9838H219.832V76.4387H231.071C232.649 76.4387 233.918 77.7213 233.918 79.2998C233.918 80.8783 232.649 82.1609 231.071 82.1609L221.495 82.1468L231.634 90.9838H236.568L229.746 85.2616H231.296ZM195.535 90.9838C190.66 90.9838 186.704 87.0375 186.704 82.1609C186.704 77.2843 190.66 73.3239 195.535 73.3239H205.8C210.677 73.3239 214.63 77.2843 214.63 82.1609C214.63 87.0375 210.677 90.9838 205.8 90.9838H195.535ZM205.572 87.869C208.73 87.869 211.288 85.318 211.288 82.1609C211.288 79.0038 208.73 76.4387 205.572 76.4387H195.762C192.605 76.4387 190.046 79.0038 190.046 82.1609C190.046 85.318 192.605 87.869 195.762 87.869H205.572ZM270.069 90.9838C265.193 90.9838 261.232 87.0375 261.232 82.1609C261.232 77.2843 265.193 73.3239 270.069 73.3239H282.26L280.273 76.4387H270.295C267.138 76.4387 264.572 79.0038 264.572 82.1609C264.572 85.318 267.138 87.869 270.295 87.869H282.542L280.541 90.9838H270.069ZM311.604 87.869C308.997 87.869 306.784 86.1213 306.108 83.7112H320.625L322.626 80.5965H306.108C306.784 78.2005 308.997 76.4387 311.604 76.4387H321.569L323.584 73.3239H311.379C306.502 73.3239 302.542 77.2843 302.542 82.1609C302.542 87.0375 306.502 90.9838 311.379 90.9838H321.851L323.852 87.869H311.604Z" fill="#EA1B22"/>
<path d="M509.385 77.7537C510.46 78.6236 509.322 79.9996 508.373 79.3037C507.202 78.5604 504.545 78.2124 504.213 79.8572C503.786 82.4512 510.666 80.9645 510.555 85.1715C510.445 89.189 504.624 89.2838 502.441 87.4807C501.92 87.0538 501.935 86.3578 502.22 85.9307C502.631 85.5196 503.09 85.3772 503.628 85.82C504.925 86.7057 508.262 87.37 508.499 85.1241C508.294 82.7833 501.714 84.1909 502.204 79.6991C502.568 76.6307 507.202 76.0771 509.385 77.7537ZM499.009 78.3705V84.096C499.009 90.0113 489.471 90.0113 489.471 84.096V78.3705C489.471 76.9471 491.543 76.8838 491.543 78.3705V84.096C491.543 87.2118 496.937 87.4017 496.937 84.096V78.3705C496.937 76.9628 499.009 76.8521 499.009 78.3705ZM433.701 76.9313C436.469 77.0735 439.363 78.9873 439.363 82.7359C439.363 86.4843 436.469 88.4298 433.701 88.4298C430.775 88.5563 427.738 86.6108 427.738 82.7359C427.738 78.845 430.775 76.9313 433.701 76.9313ZM447.636 77.3266C451.653 77.3266 452.475 82.7042 449.122 84.0486L451.226 86.6108C452.048 87.8288 450.404 88.9991 449.455 87.7971L447.066 84.3808H444.583V87.2435C444.583 88.6195 442.48 88.667 442.48 87.2752V78.2915C442.48 77.7378 442.907 77.3266 443.429 77.3266H447.636ZM414.863 77.1844C415.322 77.1844 415.591 77.4532 415.86 77.7537L419.339 82.4512L422.946 77.5797C423.467 76.9313 424.749 77.1844 424.749 78.2756V87.1803C424.749 87.8761 424.306 88.2716 423.8 88.2716C423.23 88.2716 422.787 87.8761 422.787 87.1803V81.3282L420.162 84.6497C419.592 85.3455 418.881 85.3455 418.359 84.6497L416.002 81.3282V87.1803C416.002 87.8761 415.433 88.2716 414.863 88.2716C414.357 88.2716 413.914 87.8761 413.914 87.1803V78.2756C413.914 77.4533 414.61 77.1844 414.863 77.1844ZM459.103 77.1844C461.159 77.1844 463.01 78.5604 463.01 81.2017C463.01 83.7006 461.159 85.0925 459.103 85.0925H456.462V87.1803C456.462 87.8761 456.019 88.2716 455.449 88.2716C454.927 88.2716 454.374 87.8761 454.374 87.1803V78.2756C454.374 77.7537 454.785 77.1844 455.449 77.1844H459.103ZM474.208 77.3266C474.762 77.3266 475.189 77.7378 475.189 78.3073V87.291C475.189 87.8445 474.762 88.2716 474.208 88.2716C473.639 88.2716 473.133 87.8445 473.133 87.291V83.8272H467.976V87.291C467.976 87.8445 467.565 88.2716 467.012 88.2716C466.3 88.2716 465.889 87.8445 465.889 87.291V78.3073C465.889 77.7379 466.3 77.3266 467.012 77.3266C467.565 77.3266 467.976 77.7378 467.976 78.3073V81.7553H473.133V78.3073C473.133 77.7379 473.639 77.3266 474.208 77.3266ZM485.217 77.3266C486.672 77.3266 486.64 79.3827 485.217 79.3827H480.662V81.7553H484.647C486.055 81.7553 486.055 83.8272 484.647 83.8272H480.662V86.1996H485.486C486.925 86.1996 487.035 88.2716 485.486 88.2716H479.539C478.985 88.2716 478.558 87.8445 478.558 87.291V78.3073C478.558 77.7379 478.985 77.3266 479.539 77.3266H485.217ZM433.527 78.9873C431.756 78.9873 429.826 80.2369 429.826 82.7359C429.826 85.219 431.756 86.4843 433.527 86.4843C435.346 86.4843 437.291 85.219 437.291 82.7359C437.291 80.2369 435.346 78.9873 433.527 78.9873ZM459.103 79.1772H456.462V83.1155H459.103C460.163 83.1155 461.001 82.1823 461.001 81.2017C461.001 80.0946 460.163 79.1772 459.103 79.1772ZM447.636 79.2404H444.583V82.5619H447.636C449.692 82.5619 449.818 79.2404 447.636 79.2404Z" fill="#3DB5E6"/>
<path d="M401.368 85.6299C399.826 91.8249 394.184 96.2325 387.539 96.2325C380.864 96.2325 375.271 91.5641 373.792 85.3435C375.57 85.3435 377.233 85.3516 378.005 85.3516C378.369 85.3516 378.439 85.3579 378.46 85.3564C379.041 85.3278 379.769 85.1362 380.254 83.9582L382.099 79.1296L386.199 88.9998C386.567 89.7866 387.183 89.7308 387.55 89.7308H387.584C388.301 89.7308 388.612 89.4799 388.884 88.9609L393.515 79.2036L395.094 83.601L395.191 83.8139C395.525 84.5466 395.765 85.2702 396.591 85.3648C396.762 85.3843 398.74 85.3497 401.407 85.3497C401.407 85.3497 401.407 85.3668 401.368 85.6299Z" fill="#3DB5E6"/>
<path d="M401.821 81.9811C401.821 82.0549 401.821 82.2403 401.819 82.2403H401.816H397.559L395.075 75.302C394.854 74.786 394.521 74.0124 393.553 74.0124C392.96 74.0124 392.424 74.5019 392.12 75.3098L387.618 85.7392L383.284 75.373C382.86 74.4524 382.566 74.0194 381.718 74.0194C381.142 74.0194 380.719 74.2316 380.258 75.3223L377.686 82.3433L373.412 82.3388C373.409 82.232 373.408 82.1252 373.408 82.0184C373.408 74.2137 379.735 67.906 387.54 67.906C395.344 67.906 401.821 74.1764 401.821 81.9811Z" fill="#D8292F"/>
<path d="M690.325 80.7924V83.6518H692.334V86.4889C692.34 86.7062 692.33 86.9381 692.3 87.1377L692.283 87.2346C692.28 87.2562 692.276 87.2784 692.271 87.3012L692.255 87.371C692.252 87.3828 692.248 87.3948 692.245 87.4069L692.222 87.4805C692.041 88.0029 691.497 88.6649 690.274 88.6649C688.972 88.6649 688.449 87.9049 688.306 87.371L688.289 87.3012L688.277 87.2346C688.241 87.0158 688.226 86.7424 688.226 86.4889V77.5281C688.226 77.2463 688.242 76.9409 688.293 76.6921L688.328 76.5409C688.33 76.5304 688.333 76.5198 688.336 76.509L688.355 76.4424C688.358 76.431 688.362 76.4195 688.366 76.4078L688.391 76.3367C688.577 75.8416 689.068 75.1822 690.264 75.1822C691.186 75.1822 691.683 75.5582 691.949 75.9468L691.996 76.0198C692.011 76.0441 692.025 76.0683 692.038 76.0924L692.075 76.1644L692.108 76.235L692.136 76.3038L692.16 76.3702L692.181 76.4337L692.198 76.4938L692.212 76.5499L692.223 76.6016C692.229 76.6273 692.233 76.6545 692.238 76.6829L692.249 76.7706C692.251 76.7856 692.253 76.8008 692.254 76.816L692.266 76.9537L692.274 77.0857L692.281 77.2656L692.283 77.3579V78.446H697.221L697.222 77.7686L697.225 77.5264L697.224 77.3386L697.22 77.12L697.216 77.0022L697.207 76.8188L697.194 76.6308L697.183 76.5052C696.849 73.195 694.361 71.9215 691.334 71.6998L691.131 71.6866L690.927 71.6764C690.825 71.6721 690.722 71.6689 690.619 71.6668L690.411 71.6639C690.377 71.6636 690.342 71.6636 690.307 71.6636L690.099 71.665C690.064 71.6655 690.03 71.6661 689.995 71.6668L689.789 71.6726L689.584 71.6813L689.381 71.6931L689.18 71.708C689.113 71.7135 689.046 71.7195 688.98 71.726L688.782 71.7473C688.749 71.7511 688.716 71.7551 688.684 71.7592L688.489 71.7854C688.037 71.8506 687.601 71.9434 687.189 72.0676L687.014 72.1227C685.1 72.7504 683.71 74.0849 683.425 76.5052L683.395 76.7738L683.375 76.9818L683.356 77.1999L683.34 77.4169C683.331 77.5587 683.326 77.6923 683.326 77.8027L683.326 86.1515L683.328 86.2552L683.332 86.4127L683.337 86.5231L683.344 86.641L683.352 86.7692L683.364 86.9105L683.386 87.1529L683.404 87.3388C683.681 90.4148 686.013 91.7832 688.865 92.106L689.065 92.1269C689.4 92.1588 689.741 92.1768 690.086 92.1819L690.293 92.1834L690.502 92.1819C690.849 92.1768 691.192 92.1588 691.527 92.1269L691.728 92.106C694.59 91.7832 696.906 90.4148 697.188 87.3388L697.211 87.0676L697.228 86.8381L697.243 86.5809L697.252 86.3594L697.26 86.0458V80.7924H690.325ZM656.278 72.191H651.319V86.6956C651.327 86.9484 651.319 87.2323 651.276 87.4406L651.261 87.5037L651.243 87.5709C651.237 87.5939 651.229 87.6175 651.221 87.6415L651.195 87.7151C651.008 88.2138 650.532 88.8645 649.392 88.8645C648.323 88.8645 647.835 88.2772 647.63 87.7909L647.6 87.7151C647.596 87.7026 647.591 87.6903 647.587 87.678L647.563 87.6058L647.544 87.5368C647.541 87.5256 647.538 87.5145 647.536 87.5037L647.522 87.4406C647.473 87.2323 647.466 86.9484 647.473 86.6956V72.191H642.515V86.2455L642.515 86.3584L642.516 86.556L642.523 86.8467L642.537 87.2L642.546 87.3779L642.553 87.4723L642.559 87.5418C642.802 90.142 644.327 91.4955 646.482 92.0618L646.665 92.1078C647.066 92.2035 647.487 92.2732 647.925 92.3197L648.128 92.3396L648.334 92.3562L648.541 92.3697C648.646 92.3756 648.751 92.3804 648.857 92.3841L649.069 92.3899L649.284 92.3928C649.32 92.3932 649.356 92.3932 649.392 92.3932L649.608 92.3917C649.643 92.3912 649.679 92.3906 649.715 92.3899L649.928 92.3841C650.034 92.3804 650.139 92.3756 650.244 92.3697L650.452 92.3562L650.657 92.3396L650.861 92.3197C653.761 92.0117 655.936 90.6914 656.236 87.5418L656.24 87.5105L656.248 87.4279L656.26 87.2634L656.271 87.0642L656.277 86.9203L656.283 86.6995L656.285 86.556L656.284 86.4212L656.281 86.2997C656.28 86.2808 656.279 86.2627 656.278 86.2455V72.191ZM610.717 72.191L608.244 87.5171L605.772 72.191H597.773L597.349 91.7975H602.249L602.382 73.6472L605.753 91.7975H610.725L614.1 73.6472L614.233 91.7975H619.145L618.707 72.191H610.717ZM581.103 72.191L577.471 91.7975H582.767L585.504 73.6472L588.175 91.7975H593.435L589.818 72.191H581.103ZM673.608 87.9765L668.99 72.191H661.715V91.5931H666.528L666.248 75.3025L671.207 91.5931H678.185V72.191H673.34L673.608 87.9765ZM629.087 77.2937C629 76.9065 629.025 76.4951 629.07 76.2801C629.083 76.223 629.098 76.1655 629.116 76.1081L629.145 76.022C629.34 75.4785 629.798 74.9679 630.847 74.9679C631.98 74.9679 632.644 75.6739 632.644 76.7333V77.9321H637.477V76.5656C637.477 73.4817 635.459 72.2954 633.302 71.8796L633.125 71.8471L632.947 71.818L632.769 71.7921L632.591 71.7692L632.413 71.7492L632.236 71.732C632.177 71.7267 632.118 71.7219 632.059 71.7174L631.884 71.7054L631.71 71.6957L631.537 71.6882L631.366 71.6828L631.197 71.6793L630.948 71.6774L630.838 71.6778L630.619 71.6809C630.583 71.6817 630.546 71.6826 630.51 71.6837L630.295 71.6916C630.223 71.6948 630.152 71.6985 630.081 71.7027L629.869 71.7172C626.92 71.9427 624.619 73.154 624.158 75.9946C624.022 76.8596 623.989 77.6275 624.205 78.6073C624.547 80.2175 625.888 81.3633 627.428 82.3243L627.666 82.4707C627.706 82.4949 627.746 82.519 627.786 82.5429L628.028 82.6854L628.271 82.8255L628.515 82.9636L628.882 83.1671L629.845 83.6948L630.079 83.8245L630.309 83.9538L630.534 84.0829L630.754 84.212C631.803 84.8365 632.644 85.4699 632.947 86.2271C633.114 86.6769 633.077 87.244 632.997 87.6058L632.983 87.6641C632.963 87.7511 632.937 87.8381 632.906 87.9237L632.872 88.0087C632.649 88.529 632.163 88.9725 631.093 88.9725C629.873 88.9725 629.139 88.2711 629.139 87.214L629.137 85.3323H623.934V86.828C623.934 90.3386 626.161 91.8635 628.951 92.3163L629.159 92.3479C629.298 92.3676 629.438 92.3849 629.579 92.3996L629.792 92.4199C630.042 92.4415 630.294 92.4558 630.548 92.4633L630.766 92.4681C630.803 92.4686 630.839 92.469 630.876 92.4693L630.985 92.4697C631.058 92.4697 631.131 92.4692 631.203 92.4681L631.42 92.4634C631.456 92.4623 631.491 92.4611 631.527 92.4598L631.741 92.4503C631.812 92.4465 631.882 92.4423 631.952 92.4374L632.162 92.4213C632.301 92.4094 632.439 92.3952 632.575 92.3788L632.778 92.3524L632.979 92.3225C633.045 92.3119 633.111 92.3008 633.177 92.289L633.372 92.2519C635.733 91.7788 637.49 90.496 637.843 88.0294C637.892 87.6615 637.922 87.3218 637.938 87.0112L637.946 86.8085C637.948 86.7755 637.948 86.7428 637.949 86.7104L637.953 86.5208V86.34L637.95 86.1681L637.944 86.0051L637.936 85.8511C637.935 85.8262 637.933 85.8017 637.931 85.7775L637.921 85.6372L637.908 85.5061L637.895 85.3842L637.873 85.2188L637.851 85.0746L637.822 84.9157L637.809 84.8507C637.468 83.1433 635.973 81.9374 634.313 80.9447L634.075 80.8043L633.835 80.6666L633.594 80.5315L633.232 80.3331L632.752 80.0757L631.934 79.6406L631.598 79.4584C631.561 79.4383 631.524 79.4182 631.488 79.3981L631.273 79.278L631.063 79.1583C630.033 78.561 629.254 77.9744 629.087 77.2937ZM565.323 77.2456C565.234 76.875 565.248 76.4852 565.294 76.2587L565.313 76.1739L565.334 76.09C565.498 75.5012 565.944 74.8944 567.098 74.8944C568.245 74.8944 568.92 75.6071 568.92 76.6751V77.8886H573.811V76.5112C573.811 73.5683 571.98 72.3324 569.934 71.8489L569.756 71.8088C569.607 71.7768 569.457 71.7487 569.306 71.724L569.126 71.696L568.946 71.6712L568.766 71.6494L568.586 71.6305C568.526 71.6247 568.466 71.6193 568.407 71.6143L568.229 71.6008L568.052 71.5897L567.876 71.5809L567.703 71.5744L567.531 71.5699L567.277 71.5664H567.193C567.12 71.5664 567.047 71.5669 566.974 71.568L566.757 71.5726C566.612 71.5768 566.469 71.5831 566.328 71.5915L566.116 71.6059C566.081 71.6085 566.046 71.6113 566.012 71.6143L565.803 71.6336C565.734 71.6406 565.666 71.6482 565.598 71.6564L565.394 71.6826C565.226 71.7058 565.06 71.7328 564.897 71.7634L564.703 71.8021L564.511 71.8444L564.323 71.8905C564.261 71.9064 564.199 71.923 564.137 71.9403L563.955 71.9939C562.057 72.5773 560.689 73.8009 560.344 75.9241C560.202 76.803 560.177 77.5761 560.383 78.5668C560.746 80.2788 562.224 81.471 563.879 82.4728L564.122 82.6181C564.163 82.6421 564.204 82.6659 564.244 82.6897L564.49 82.8314L564.86 83.0399L565.353 83.3117L566.08 83.7099L566.433 83.9064L566.776 84.1022L566.998 84.2328C567.035 84.2545 567.071 84.2763 567.107 84.2981L567.32 84.4291C568.228 84.998 568.94 85.5839 569.214 86.2709C569.394 86.7176 569.352 87.2845 569.267 87.6581L569.252 87.7185C569.231 87.8045 569.206 87.8905 569.174 87.9752L569.14 88.0594C568.911 88.5889 568.421 89.043 567.338 89.043C566.113 89.043 565.38 88.3295 565.38 87.2578L565.373 85.3711H560.112V86.8703C560.112 91.0786 563.285 92.4618 566.799 92.5657L567.019 92.5706L567.24 92.5722L567.458 92.5706C567.567 92.5691 567.675 92.5663 567.782 92.5624L567.996 92.553C568.102 92.5474 568.208 92.5407 568.313 92.5327L568.522 92.5151L568.728 92.4941C568.797 92.4865 568.865 92.4784 568.933 92.4697L569.135 92.4419C569.202 92.4321 569.268 92.4216 569.334 92.4106L569.531 92.3757C571.976 91.9179 573.799 90.6208 574.166 88.0838C574.216 87.7214 574.248 87.3861 574.266 87.0788L574.275 86.8781L574.281 86.6858C574.283 86.6231 574.283 86.5618 574.284 86.5019L574.283 86.3265L574.28 86.1596L574.274 86.0014L574.266 85.8518L574.256 85.7109L574.244 85.5788L574.225 85.3973L574.205 85.2359L574.177 85.0523L574.145 84.8744C573.806 83.1872 572.356 81.9869 570.724 80.9997L570.484 80.8567C570.444 80.8331 570.404 80.8097 570.363 80.7863L570.121 80.6475L569.877 80.5113L569.633 80.3775L569.39 80.2458L568.315 79.6753L567.971 79.4911L567.748 79.3694L567.53 79.2484L567.319 79.1278C567.284 79.1077 567.25 79.0877 567.215 79.0676L567.014 78.9474C566.126 78.4064 565.474 77.8652 565.323 77.2456Z" fill="#1428A0"/>
<path d="M749.659 89.3182C748.63 89.3204 747.68 88.7689 747.172 87.8747C746.67 86.9859 746.7 85.8932 747.25 85.0334L752.372 76.9891C752.906 76.1089 753.872 75.584 754.901 75.6151C755.929 75.6397 756.864 76.2162 757.348 77.1237C757.826 78.0266 757.766 79.113 757.194 79.9606L752.075 88.0049C751.547 88.8271 750.636 89.3225 749.659 89.3182Z" fill="#F62B54"/>
<path d="M758.446 89.3178C757.413 89.3178 756.462 88.7654 755.963 87.8776C755.463 86.9913 755.493 85.9013 756.041 85.0439L761.154 77.018C761.68 76.1252 762.649 75.588 763.685 75.6147C764.727 75.6375 765.671 76.2203 766.148 77.132C766.623 78.0436 766.553 79.1365 765.964 79.982L760.852 88.0078C760.326 88.8265 759.419 89.3203 758.446 89.3178Z" fill="#FFCC00"/>
<path d="M767.036 89.3861C768.493 89.3861 769.673 88.2301 769.673 86.8041C769.673 85.3781 768.493 84.2222 767.036 84.2222C765.579 84.2222 764.399 85.3781 764.399 86.8041C764.399 88.2301 765.579 89.3861 767.036 89.3861Z" fill="#00CA72"/>
<path d="M881.607 84.3707C882.404 84.3707 882.88 84.9373 882.88 85.8652V89.0451H883.962V85.7925C883.962 84.2144 883.219 83.2995 881.821 83.2995C881.274 83.2995 880.405 83.4493 879.888 84.4554C879.643 83.8508 879.085 83.4297 878.437 83.3592C878.236 83.3225 878.032 83.3105 877.829 83.3234C877.384 83.3592 876.592 83.636 876.295 84.2633V83.42H875.212V89.0451H876.295V86.0095C876.295 84.8287 877.068 84.3707 877.842 84.3707C878.567 84.3707 879.043 84.9253 879.043 85.8533V89.0451H880.12V86.0095C880.12 85.0697 880.684 84.3599 881.607 84.3707ZM871.237 88.1053C871.732 88.1161 872.209 87.9186 872.555 87.5604C872.903 87.2023 873.087 86.715 873.069 86.2147C873.069 85.0816 872.235 84.3707 871.237 84.3707C870.237 84.3707 869.405 85.0816 869.405 86.2147C869.385 86.7139 869.57 87.2001 869.915 87.5572C870.26 87.9153 870.735 88.1139 871.228 88.1053H871.237ZM871.237 89.1602C869.654 89.1602 868.334 87.9913 868.334 86.2081C868.334 84.425 869.654 83.293 871.237 83.293C872.819 83.293 874.151 84.425 874.151 86.2081C874.151 87.9913 872.812 89.1656 871.229 89.1656L871.237 89.1602ZM862.761 86.2081L862.75 86.2147C862.75 84.4315 864.105 83.2995 865.699 83.293C866.508 83.2774 867.286 83.6055 867.84 84.196L867.019 84.8949C866.667 84.5493 866.192 84.3586 865.699 84.3653C864.7 84.3653 863.832 85.0762 863.832 86.2081C863.832 86.9733 864.287 87.6625 864.984 87.9555C865.682 88.2485 866.485 88.0857 867.019 87.5452L867.852 88.2442C867.296 88.8408 866.514 89.1737 865.699 89.1602C864.117 89.1602 862.761 87.9913 862.761 86.2081ZM859.295 87.9653C859.293 87.7666 859.37 87.5752 859.508 87.4332C859.647 87.2911 859.837 87.21 860.035 87.2077C860.234 87.21 860.424 87.2911 860.562 87.4332C860.701 87.5752 860.778 87.7666 860.776 87.9653C860.756 88.3606 860.431 88.672 860.035 88.6761C859.64 88.672 859.315 88.3606 859.295 87.9653Z" fill="#333333"/>
<path d="M862.256 76.2695H858.402L855.701 83.2339L853.014 76.2695H849.16L853.845 87.2745L850.931 94.5504H854.757L862.256 76.2695ZM838.818 82.3906C838.818 84.1488 840.355 85.3058 841.864 85.3058C843.348 85.3058 844.806 84.2292 844.806 82.3896C844.806 80.55 843.348 79.4723 841.864 79.4723C840.355 79.4723 838.818 80.6303 838.818 82.3896V82.3906ZM844.806 88.5356V87.1432C844.024 88.3262 842.201 88.7733 841.265 88.7733C838.168 88.7733 835.069 86.3314 835.069 82.3896C835.069 78.4488 838.167 76.0069 841.265 76.0069C842.046 76.0069 843.869 76.2673 844.806 77.6348V76.2739H848.398V88.5378L844.806 88.5367V88.5356ZM834.047 88.5356H830.455V87.0119C829.854 88.1406 828.399 88.7983 826.888 88.7983C823.764 88.7983 821.004 86.3032 821.004 82.4395C821.004 78.5031 823.764 76.0047 826.888 76.0047C828.397 76.0047 829.857 76.6342 830.455 77.764V69.5884H834.047V88.5356ZM830.376 82.3624C830.376 80.5239 829.049 79.4462 827.566 79.4462C826.029 79.4462 824.752 80.6021 824.752 82.3624C824.752 84.1792 826.029 85.3297 827.564 85.3297C829.076 85.3318 830.376 84.1228 830.376 82.3624ZM812.122 82.0455C812.122 80.181 813.085 79.5504 814.361 79.5504C815.584 79.5504 816.469 80.3644 816.469 81.9923V88.5335H820.088V81.2055C820.088 77.713 818.369 76.0047 815.635 76.0047C814.203 76.0047 812.772 76.8187 812.121 78.0538V76.2695H808.504V88.5335H812.122V82.0455ZM801.157 88.744C797.721 88.744 794.854 86.2229 794.854 82.3613C794.854 78.4977 797.717 76.0014 801.157 76.0014C804.596 76.0014 807.484 78.4977 807.484 82.3613C807.484 86.225 804.593 88.7451 801.157 88.7451V88.744ZM801.157 85.1734C802.665 85.1734 803.917 84.0685 803.917 82.3624C803.917 80.7073 802.666 79.5775 801.157 79.5775C800.422 79.566 799.715 79.8568 799.201 80.3817C798.684 80.9094 798.403 81.6241 798.423 82.3624C798.424 84.0707 799.673 85.1734 801.157 85.1734ZM788.368 79.5515C789.434 79.5515 790.372 80.3926 790.372 81.9934V88.5356H793.964V81.5702C793.964 77.8671 792.164 76.0025 789.278 76.0025C788.421 76.0025 786.806 76.263 785.634 78.1818C784.956 76.7633 783.655 76.0275 781.732 76.0275C780.368 76.0206 779.126 76.8116 778.556 78.0505V76.2706H774.936V88.5346H778.553V82.0455C778.553 80.181 779.569 79.5504 780.662 79.5504C781.704 79.5504 782.639 80.3644 782.666 81.9142V88.5346H786.285V82.0455C786.285 80.2624 787.223 79.5526 788.368 79.5526V79.5515Z" fill="#333333"/>
<path d="M958.264 83.0697L958.282 83.0712L960.178 83.2693C960.311 83.2837 960.433 83.3486 960.52 83.4502L960.534 83.4674L960.516 83.4764C960.604 83.5882 960.643 83.7313 960.624 83.8726C960.21 87.1654 958.649 90.2071 956.216 92.4638C953.691 94.8055 950.375 96.1065 946.931 96.1065C945.259 96.1092 943.6 95.8013 942.041 95.1986L941.956 95.1654C941.828 95.1182 941.725 95.0212 941.671 94.8971L941.663 94.8773C941.61 94.7537 941.607 94.6147 941.654 94.4894L942.402 92.6639C942.504 92.4058 942.791 92.2758 943.051 92.3673L943.068 92.3737C946.892 93.8505 951.224 93.0188 954.23 90.2305C956.143 88.4725 957.377 86.0975 957.715 83.5214C957.751 83.2554 957.982 83.0619 958.246 83.0689L958.264 83.0697ZM1003.03 75.322C1004.65 75.322 1005.92 75.8152 1006.72 76.7623L1006.75 76.7944V75.9929C1006.76 75.7692 1006.93 75.5884 1007.15 75.5666L1007.17 75.5652H1009.33C1009.55 75.5805 1009.73 75.7552 1009.75 75.975L1009.75 75.9929V87.9656C1009.82 89.6539 1009.3 91.3139 1008.28 92.662C1007.12 94.0758 1005.35 94.7917 1003.03 94.7917C999.811 94.7917 997.267 92.752 996.848 89.8387C996.827 89.6284 996.955 89.4328 997.154 89.3669L997.172 89.3614L999.279 88.8661C999.29 88.8637 999.302 88.8616 999.313 88.86C999.544 88.8261 999.759 88.9861 999.793 89.2174C999.985 90.8515 1001.39 92.0707 1003.03 92.0315C1005.53 92.0315 1006.7 90.765 1006.72 88.1182L1006.72 88.0376V86.9885C1005.79 88.0361 1004.44 88.6151 1003.03 88.569C999.451 88.569 996.853 85.7863 996.853 81.959C996.82 80.237 997.426 78.5638 998.555 77.2627C999.701 76.0034 1001.33 75.2968 1003.03 75.322ZM938.124 89.8837L938.151 89.8835L938.178 89.8837C939.038 89.8936 939.731 90.5892 939.74 91.4464L939.74 91.4732C939.74 91.4821 939.74 91.4911 939.74 91.5C939.725 92.3777 939.002 93.0771 938.124 93.0622C937.246 93.0472 936.547 92.3237 936.562 91.446C936.576 90.5862 937.271 89.8974 938.124 89.8837ZM1040.37 75.1555L1040.48 75.1563C1044.33 75.2095 1046.72 77.8914 1046.72 82.1841C1046.72 82.4112 1046.71 82.6382 1046.68 82.864C1046.66 83.0717 1046.49 83.2319 1046.29 83.2417L1046.27 83.2422H1037.11C1037.17 85.1658 1038.76 86.6877 1040.68 86.6598C1042.17 86.7535 1043.53 85.8051 1043.96 84.3725C1044.04 84.1668 1044.26 84.0562 1044.47 84.1152L1044.49 84.1203L1046.31 84.7642C1046.42 84.7967 1046.5 84.8683 1046.54 84.9624L1046.55 84.9803C1046.6 85.0795 1046.61 85.1947 1046.58 85.3C1045.73 87.814 1043.33 89.4775 1040.68 89.3975C1038.94 89.4148 1037.27 88.7354 1036.04 87.5108C1034.69 86.0932 1033.97 84.1925 1034.04 82.2382C1034.04 77.8474 1037.2 75.2086 1040.28 75.1563L1040.37 75.1555ZM988.545 75.1555H988.549C992.471 75.1555 994.907 77.8481 994.907 82.1841C994.907 82.4112 994.895 82.6382 994.871 82.864C994.853 83.0728 994.682 83.2341 994.474 83.2419L994.457 83.2422H985.299C985.355 85.1711 986.953 86.6952 988.883 86.6598C990.375 86.7552 991.735 85.8062 992.161 84.3725C992.237 84.1652 992.46 84.0538 992.671 84.115L992.688 84.1203L994.516 84.7642C994.622 84.7987 994.709 84.8774 994.754 84.9803C994.797 85.0826 994.797 85.1977 994.754 85.3C993.906 87.8124 991.515 89.4755 988.865 89.3975C987.123 89.4172 985.446 88.7376 984.209 87.5108C982.863 86.0921 982.145 84.1922 982.214 82.2382C982.214 77.803 985.434 75.1555 988.545 75.1555ZM974.677 75.1509C976.437 75.1509 977.86 75.5787 978.914 76.4206C979.626 76.9884 980.154 77.7546 980.431 78.6225L980.432 78.626C980.468 78.7756 980.38 78.9263 980.234 78.9697L980.22 78.9737L978.036 79.6942C977.939 79.7325 977.831 79.7325 977.734 79.6942C977.651 79.6555 977.589 79.5834 977.563 79.4961L977.551 79.4531C977.352 78.742 976.702 77.6004 974.677 77.6004C973.236 77.6004 972.371 78.4289 972.371 79.2304L972.372 79.2621C972.383 79.7833 972.666 80.4375 973.909 80.6862L973.947 80.6937L976.352 81.144C979.008 81.6789 980.54 83.1229 980.57 85.1353L980.571 85.1964L980.562 85.1605L980.561 85.2215C980.522 87.2388 978.571 89.3614 974.978 89.3614C970.768 89.3614 969.116 86.9795 968.81 85.5747C968.79 85.4277 968.879 85.2889 969.02 85.2457L969.035 85.2415L971.286 84.5391C971.326 84.5325 971.368 84.5325 971.408 84.5391C971.465 84.538 971.522 84.5502 971.573 84.5744L971.592 84.5841C971.675 84.6237 971.736 84.6979 971.759 84.7866C972.043 86.1375 973.263 86.9435 975.019 86.9435C976.653 86.9435 977.396 86.088 977.396 85.3135C977.396 84.5476 976.749 83.9798 975.633 83.7453L975.595 83.7376L973.069 83.2468C970.714 82.801 969.246 81.3376 969.246 79.433C969.246 77.1141 971.736 75.1509 974.677 75.1509ZM1065.49 71.4002H1067.46C1067.69 71.4141 1067.87 71.6024 1067.88 71.8331L1067.88 71.8504V75.5472H1070.25C1070.48 75.5634 1070.66 75.7508 1070.67 75.9797L1070.67 75.9974V77.9606L1070.67 77.9777C1070.66 78.1978 1070.48 78.3766 1070.26 78.3878L1070.25 78.3884H1067.88V84.9578C1067.88 86.0474 1068.31 86.4977 1069.42 86.4977C1069.65 86.4938 1069.87 86.4767 1070.1 86.4466L1070.18 86.4346C1070.3 86.4139 1070.43 86.4485 1070.52 86.5293C1070.61 86.6081 1070.66 86.7165 1070.66 86.8318L1070.67 86.8535V88.704C1070.67 88.8926 1070.54 89.0597 1070.36 89.1138C1069.85 89.259 1069.31 89.3318 1068.77 89.3306L1068.7 89.3299C1066.35 89.3299 1064.88 87.8338 1064.85 85.4141L1064.85 85.3405V78.4154H1062.8C1062.58 78.4022 1062.4 78.227 1062.38 78.0057L1062.38 77.9876V76.0154C1062.38 75.7827 1062.56 75.5891 1062.79 75.5665L1062.8 75.5652L1063.35 75.5651L1063.41 75.5641C1064.06 75.5456 1065.04 75.285 1065.06 73.8498L1065.06 73.8046V71.8504C1065.06 71.6178 1065.24 71.4241 1065.47 71.4016L1065.49 71.4002ZM1027.24 75.1535L1027.3 75.1555H1027.29C1029.61 75.1555 1031.95 76.7706 1032 80.298L1032 80.4055V88.7446C1031.99 88.9683 1031.81 89.149 1031.59 89.1709L1031.57 89.1723H1029.42C1029.19 89.1591 1029.01 88.9839 1028.99 88.7626L1028.99 88.7446V80.6757L1028.99 80.6136C1028.98 79.5855 1028.63 77.9336 1026.51 77.9336C1024.95 77.9336 1023.83 79.1516 1023.81 80.9235L1023.81 80.9774V88.7446C1023.8 88.9683 1023.63 89.149 1023.4 89.1709L1023.39 89.1723H1021.2C1020.98 89.1591 1020.8 88.9839 1020.78 88.7626L1020.78 88.7446V80.6757L1020.78 80.6136C1020.77 79.5855 1020.42 77.9336 1018.3 77.9336C1016.67 77.9336 1015.57 79.1427 1015.55 80.9495L1015.55 81.0044V88.7446C1015.54 88.9683 1015.36 89.149 1015.14 89.1709L1015.12 89.1723H1012.97C1012.75 89.157 1012.57 88.9823 1012.55 88.7625L1012.55 88.7446V75.9659C1012.56 75.7438 1012.73 75.5636 1012.95 75.5397L1012.97 75.5381H1015.04C1015.27 75.5513 1015.45 75.7266 1015.47 75.9479L1015.47 75.9659V76.7359C1016.4 75.7121 1017.73 75.1369 1019.11 75.1555C1020.72 75.1084 1022.22 75.9569 1023 77.3572C1023.93 75.9308 1025.54 75.0963 1027.24 75.1535ZM1059.54 76.7448C1060.37 77.8334 1060.79 79.1723 1060.75 80.537L1060.75 80.5946V88.7446C1060.73 88.9667 1060.56 89.1469 1060.34 89.1708L1060.33 89.1723H1058.14C1057.92 89.1591 1057.74 88.9839 1057.72 88.7626L1057.72 88.7446V81.0315C1057.72 79.0142 1056.77 77.9876 1054.97 77.9876C1054.17 77.9619 1053.41 78.3163 1052.92 78.9422C1052.44 79.6292 1052.2 80.4491 1052.22 81.284L1052.22 81.3331V88.7446C1052.21 88.9683 1052.03 89.149 1051.81 89.1709L1051.79 89.1723H1049.62C1049.39 89.1591 1049.21 88.9839 1049.19 88.7626L1049.19 88.7446V75.9569C1049.2 75.7332 1049.38 75.5524 1049.6 75.5305L1049.62 75.5291H1051.75C1051.97 75.5444 1052.14 75.7192 1052.16 75.939L1052.16 75.9569V76.8574C1053.08 75.7506 1054.45 75.1234 1055.88 75.1555C1057.28 75.0957 1058.63 75.6818 1059.54 76.7448ZM934.04 83.616H949.543C949.828 83.6184 950.058 83.8465 950.065 84.1292L950.065 84.1473V86.088C950.067 86.3729 949.843 86.6069 949.561 86.6188L949.543 86.6193H934.04C933.755 86.6169 933.525 86.3887 933.518 86.1061V86.088V84.1473V84.1292C933.525 83.8527 933.745 83.6284 934.021 83.6165L934.04 83.616ZM1003.41 78.0146C1001.28 78.0146 999.932 79.5276 999.932 81.959C999.932 84.3905 1001.27 85.8988 1003.41 85.8988C1005.45 85.8988 1006.83 84.3139 1006.83 81.959C1006.83 79.5995 1005.45 78.0146 1003.41 78.0146ZM985.394 80.6454L985.389 80.6937H991.796C991.64 78.982 990.434 77.9146 988.627 77.8934L988.572 77.8931C986.98 77.8672 985.624 79.0316 985.401 80.5978L985.394 80.6454ZM1037.22 80.6454L1037.22 80.6937H1043.63C1043.47 78.982 1042.26 77.9146 1040.46 77.8934L1040.4 77.8931C1038.81 77.8672 1037.45 79.0316 1037.23 80.5978L1037.22 80.6454ZM951.483 68.8066C951.618 68.855 951.726 68.9557 951.785 69.0858C951.839 69.2171 951.839 69.3643 951.785 69.4955L951.11 71.2966C951.016 71.5637 950.724 71.7046 950.457 71.6118C946.918 70.3771 942.992 71.0786 940.1 73.4624C938.298 74.9708 937.019 77.01 936.444 79.2889C936.385 79.519 936.178 79.6799 935.94 79.6806H935.823L933.968 79.2349C933.829 79.2024 933.711 79.1144 933.639 78.9917H933.63C933.555 78.869 933.534 78.7208 933.572 78.582C934.308 75.6649 935.957 73.059 938.277 71.1435C941.966 68.1061 946.976 67.2197 951.483 68.8066ZM944.617 76.5873H960.119C960.397 76.5896 960.624 76.8069 960.641 77.0821L960.642 77.1006V79.0413C960.644 79.3262 960.42 79.5602 960.138 79.5721L960.119 79.5726H944.617C944.334 79.5678 944.106 79.3405 944.099 79.0596L944.099 79.0413V77.1186C944.096 76.8355 944.318 76.6024 944.598 76.5879L944.617 76.5873ZM955.379 70.6662L955.405 70.666L955.432 70.6662C956.293 70.6761 956.985 71.3717 956.995 72.2288L956.995 72.2557C956.995 72.2646 956.995 72.2736 956.994 72.2825C956.979 73.1602 956.256 73.8596 955.378 73.8447C954.5 73.8297 953.801 73.1061 953.816 72.2285C953.831 71.3686 954.525 70.6799 955.379 70.6662Z" fill="#4FB58B"/>
<path d="M1120.52 90.3274C1120.36 90.2324 1120.22 89.9995 1120.22 89.8104V74.3275C1120.22 74.1381 1120.36 73.9056 1120.52 73.8104L1134.1 66.0713C1134.27 65.9762 1134.54 65.9762 1134.7 66.0713L1148.28 73.8112C1148.44 73.9063 1148.58 74.1388 1148.58 74.3282V89.8111C1148.58 90 1148.44 90.2327 1148.28 90.3281L1134.7 98.0674C1134.54 98.1624 1134.27 98.1624 1134.1 98.0674L1120.52 90.3274ZM1161.34 75.8684V82.1484H1164.02C1165.97 82.1484 1166.84 81.3544 1166.84 80.0551V77.9617C1166.84 76.6626 1165.97 75.8684 1164.02 75.8684H1161.34ZM1161.34 84.1454V89.7517C1161.34 90.0884 1161.25 90.2327 1160.95 90.2327H1159.62C1159.34 90.2327 1159.23 90.0884 1159.23 89.7517V74.3528C1159.23 74.0159 1159.34 73.8714 1159.62 73.8714H1164.02C1167.75 73.8714 1168.94 75.6038 1168.94 77.5768V80.4402C1168.94 82.413 1167.75 84.1454 1164.02 84.1454H1161.34ZM1173.82 75.8684V81.7634H1176.51C1178.46 81.7634 1179.32 80.9934 1179.32 79.6701V77.9617C1179.32 76.6626 1178.46 75.8684 1176.51 75.8684H1173.82ZM1173.82 83.7605V89.7517C1173.82 90.0884 1173.74 90.2327 1173.43 90.2327H1172.11C1171.83 90.2327 1171.72 90.0884 1171.72 89.7517V74.3528C1171.72 74.0159 1171.83 73.8714 1172.11 73.8714H1176.51C1180.23 73.8714 1181.42 75.6038 1181.42 77.5768V80.0791C1181.42 81.5468 1180.75 82.8702 1178.89 83.4478L1181.49 89.7517C1181.6 90.0404 1181.4 90.2327 1181.1 90.2327H1179.8C1179.5 90.2327 1179.45 90.0404 1179.32 89.7517L1176.88 83.7605H1173.82ZM1192.81 77.7693C1192.81 76.47 1191.9 75.6759 1189.84 75.6759C1187.8 75.6759 1186.89 76.47 1186.89 77.7693V86.3348C1186.89 87.6343 1187.8 88.4281 1189.84 88.4281C1191.9 88.4281 1192.81 87.6343 1192.81 86.3348V77.7693ZM1184.65 77.3843C1184.65 75.4113 1185.93 73.679 1189.84 73.679C1193.77 73.679 1195.05 75.4113 1195.05 77.3843V86.72C1195.05 88.693 1193.77 90.4254 1189.84 90.4254C1185.93 90.4254 1184.65 88.693 1184.65 86.72V77.3843ZM1207.12 73.8714C1207.42 73.8714 1207.55 73.9918 1207.55 74.3285V75.4113C1207.55 75.7481 1207.42 75.8684 1207.12 75.8684H1203.46V89.7517C1203.46 90.0884 1203.35 90.2327 1203.05 90.2327H1201.63C1201.34 90.2327 1201.22 90.0884 1201.22 89.7517V75.8684H1197.56C1197.24 75.8684 1197.13 75.7481 1197.13 75.4113V74.3285C1197.13 73.9918 1197.24 73.8714 1197.56 73.8714H1207.12ZM1217.77 77.7693C1217.77 76.47 1216.86 75.6759 1214.8 75.6759C1212.76 75.6759 1211.85 76.47 1211.85 77.7693V86.3348C1211.85 87.6343 1212.76 88.4281 1214.8 88.4281C1216.86 88.4281 1217.77 87.6343 1217.77 86.3348V77.7693ZM1209.61 77.3843C1209.61 75.4113 1210.89 73.679 1214.8 73.679C1218.73 73.679 1220.01 75.4113 1220.01 77.3843V86.72C1220.01 88.693 1218.73 90.4254 1214.8 90.4254C1210.89 90.4254 1209.61 88.693 1209.61 86.72V77.3843ZM1233.24 89.7756C1233.24 90.0884 1233.15 90.2327 1232.85 90.2327H1231.66C1231.44 90.2327 1231.36 90.1605 1231.27 90.0162L1226.18 80.1034C1225.7 79.2129 1225.44 78.467 1225.4 78.3708V89.7756C1225.4 90.0884 1225.29 90.2327 1225.01 90.2327H1223.8C1223.52 90.2327 1223.41 90.0884 1223.41 89.7756V74.3285C1223.41 74.0159 1223.52 73.8714 1223.8 73.8714H1225.01C1225.18 73.8714 1225.29 73.9435 1225.36 74.0639L1230.58 84.1936C1230.88 84.771 1231.25 85.7333 1231.25 85.7333V74.3285C1231.25 74.0159 1231.38 73.8714 1231.66 73.8714H1232.85C1233.15 73.8714 1233.24 74.0159 1233.24 74.3285V89.7756ZM1236.97 90.2327C1236.68 90.2327 1236.58 90.0884 1236.58 89.7517V74.3528C1236.58 74.0159 1236.68 73.8714 1236.97 73.8714H1244.37C1244.65 73.8714 1244.78 73.9918 1244.78 74.3285V75.4113C1244.78 75.7481 1244.65 75.8684 1244.37 75.8684H1238.68V80.7288H1243.98C1244.28 80.7288 1244.41 80.8491 1244.41 81.1859V82.2206C1244.41 82.5334 1244.28 82.6777 1243.98 82.6777H1238.68V88.2358H1244.61C1244.89 88.2358 1245.02 88.3321 1245.02 88.6688V89.7756C1245.02 90.1126 1244.89 90.2327 1244.61 90.2327H1236.97ZM1256.96 73.8714C1257.24 73.8714 1257.37 73.9918 1257.37 74.3285V75.4113C1257.37 75.7481 1257.24 75.8684 1256.96 75.8684H1253.49V89.7517C1253.49 90.0884 1253.38 90.2327 1253.1 90.2327H1251.76C1251.48 90.2327 1251.37 90.0884 1251.37 89.7517V75.8684H1247.91C1247.6 75.8684 1247.49 75.7481 1247.49 75.4113V74.3285C1247.49 73.9918 1247.6 73.8714 1247.91 73.8714H1256.96Z" fill="#E15B29"/>
<path d="M358.501 23.33C356.925 23.33 355.586 22.9817 354.486 22.285C353.386 21.5883 352.547 20.6203 351.967 19.381C351.395 18.1417 351.109 16.708 351.109 15.08C351.109 13.452 351.395 12.0183 351.967 10.779C352.547 9.53967 353.386 8.57167 354.486 7.875C355.586 7.17833 356.925 6.83 358.501 6.83C360.085 6.83 361.427 7.17833 362.527 7.875C363.627 8.57167 364.463 9.53967 365.035 10.779C365.607 12.0183 365.893 13.452 365.893 15.08C365.893 16.708 365.607 18.1417 365.035 19.381C364.463 20.6203 363.627 21.5883 362.527 22.285C361.427 22.9817 360.085 23.33 358.501 23.33ZM358.501 21.46C359.682 21.4673 360.665 21.2033 361.449 20.668C362.241 20.1253 362.832 19.3737 363.22 18.413C363.616 17.4523 363.814 16.3413 363.814 15.08C363.814 13.8113 363.616 12.7003 363.22 11.747C362.832 10.7937 362.241 10.0493 361.449 9.514C360.665 8.97867 359.682 8.70733 358.501 8.7C357.321 8.69267 356.338 8.95667 355.553 9.492C354.776 10.0273 354.189 10.7753 353.793 11.736C353.397 12.6967 353.196 13.8113 353.188 15.08C353.181 16.3413 353.375 17.4487 353.771 18.402C354.167 19.3553 354.758 20.1033 355.542 20.646C356.334 21.1813 357.321 21.4527 358.501 21.46ZM371.315 23L367.003 11.12H368.983L372.316 20.503L375.638 11.12H377.629L373.317 23H371.315ZM384.336 23.33C383.17 23.33 382.151 23.0733 381.278 22.56C380.413 22.0393 379.738 21.317 379.254 20.393C378.77 19.4617 378.528 18.3763 378.528 17.137C378.528 15.839 378.767 14.717 379.243 13.771C379.72 12.8177 380.384 12.0843 381.234 11.571C382.092 11.0503 383.097 10.79 384.248 10.79C385.444 10.79 386.459 11.065 387.295 11.615C388.139 12.165 388.769 12.9497 389.187 13.969C389.613 14.9883 389.796 16.202 389.737 17.61H387.757V16.906C387.735 15.4467 387.438 14.3577 386.866 13.639C386.294 12.913 385.444 12.55 384.314 12.55C383.104 12.55 382.184 12.9387 381.553 13.716C380.923 14.4933 380.607 15.608 380.607 17.06C380.607 18.4607 380.923 19.546 381.553 20.316C382.184 21.086 383.082 21.471 384.248 21.471C385.033 21.471 385.715 21.2913 386.294 20.932C386.874 20.5727 387.328 20.0557 387.658 19.381L389.539 20.03C389.077 21.0787 388.381 21.8927 387.449 22.472C386.525 23.044 385.488 23.33 384.336 23.33ZM379.947 17.61V16.037H388.725V17.61H379.947ZM392.186 23V11.12H393.935V13.991L393.649 13.617C393.789 13.2503 393.968 12.913 394.188 12.605C394.416 12.297 394.669 12.044 394.947 11.846C395.255 11.5967 395.604 11.406 395.992 11.274C396.381 11.142 396.777 11.065 397.18 11.043C397.584 11.0137 397.961 11.0393 398.313 11.12V12.957C397.903 12.847 397.452 12.8177 396.96 12.869C396.469 12.9203 396.014 13.1 395.596 13.408C395.215 13.6793 394.918 14.0093 394.705 14.398C394.5 14.7867 394.357 15.2083 394.276 15.663C394.196 16.1103 394.155 16.5687 394.155 17.038V23H392.186ZM409.143 23.308C408.358 23.308 407.628 23.165 406.954 22.879C406.279 22.5857 405.696 22.175 405.205 21.647C404.721 21.1117 404.365 20.4773 404.138 19.744L406.019 19.205C406.261 19.9383 406.664 20.4957 407.229 20.877C407.793 21.2583 408.428 21.4453 409.132 21.438C409.777 21.4233 410.334 21.2767 410.804 20.998C411.28 20.712 411.647 20.3233 411.904 19.832C412.168 19.3407 412.3 18.7723 412.3 18.127C412.3 17.1443 412.006 16.3487 411.42 15.74C410.833 15.124 410.063 14.816 409.11 14.816C408.846 14.816 408.567 14.8527 408.274 14.926C407.988 14.9993 407.72 15.102 407.471 15.234L406.525 13.683L412.399 8.37L412.652 9.03H404.765V7.16H414.104V9.041L409.099 13.837L409.077 13.144C410.125 13.0707 411.042 13.243 411.827 13.661C412.611 14.079 413.22 14.6767 413.653 15.454C414.093 16.2313 414.313 17.1223 414.313 18.127C414.313 19.139 414.085 20.0337 413.631 20.811C413.176 21.5883 412.56 22.2007 411.783 22.648C411.005 23.088 410.125 23.308 409.143 23.308ZM416.733 22.989L416.744 21.229L423.773 14.904C424.359 14.376 424.752 13.8773 424.95 13.408C425.155 12.9313 425.258 12.4437 425.258 11.945C425.258 11.3363 425.118 10.7863 424.84 10.295C424.561 9.80367 424.18 9.415 423.696 9.129C423.219 8.843 422.676 8.7 422.068 8.7C421.437 8.7 420.876 8.85033 420.385 9.151C419.893 9.44433 419.505 9.83667 419.219 10.328C418.94 10.8193 418.804 11.3547 418.812 11.934H416.81C416.81 10.9367 417.041 10.0567 417.503 9.294C417.965 8.524 418.592 7.92267 419.384 7.49C420.183 7.05 421.089 6.83 422.101 6.83C423.083 6.83 423.963 7.05733 424.741 7.512C425.518 7.95933 426.13 8.57167 426.578 9.349C427.032 10.119 427.26 10.9917 427.26 11.967C427.26 12.6563 427.172 13.254 426.996 13.76C426.827 14.266 426.563 14.7353 426.204 15.168C425.844 15.5933 425.393 16.048 424.851 16.532L419.01 21.779L418.757 21.119H427.26V22.989H416.733ZM429.881 23L429.892 7.16H431.872V16.84L436.855 11.12H439.396L434.149 17.06L440.012 23H437.273L431.872 17.28V23H429.881ZM445.088 20.085V15.883H440.886V14.266H445.088V10.075H446.705V14.266H450.896V15.883H446.705V20.085H445.088ZM462.653 23.319C461.238 23.319 460.075 23.011 459.166 22.395C458.264 21.7717 457.71 20.9027 457.505 19.788L459.507 19.469C459.668 20.1143 460.039 20.6277 460.618 21.009C461.197 21.383 461.916 21.57 462.774 21.57C463.588 21.57 464.226 21.4013 464.688 21.064C465.15 20.7267 465.381 20.2683 465.381 19.689C465.381 19.3517 465.304 19.0803 465.15 18.875C464.996 18.6623 464.677 18.4643 464.193 18.281C463.716 18.0977 462.994 17.8777 462.026 17.621C460.977 17.3423 460.152 17.0527 459.551 16.752C458.95 16.4513 458.521 16.103 458.264 15.707C458.007 15.311 457.879 14.8307 457.879 14.266C457.879 13.5693 458.07 12.9607 458.451 12.44C458.832 11.912 459.364 11.505 460.046 11.219C460.735 10.933 461.535 10.79 462.444 10.79C463.346 10.79 464.153 10.933 464.864 11.219C465.575 11.505 466.147 11.912 466.58 12.44C467.02 12.9607 467.28 13.5693 467.361 14.266L465.359 14.629C465.264 13.991 464.956 13.4887 464.435 13.122C463.922 12.7553 463.258 12.561 462.444 12.539C461.674 12.5097 461.047 12.6453 460.563 12.946C460.086 13.2467 459.848 13.6537 459.848 14.167C459.848 14.453 459.936 14.6987 460.112 14.904C460.295 15.1093 460.629 15.3037 461.113 15.487C461.604 15.6703 462.316 15.8793 463.247 16.114C464.296 16.378 465.121 16.6677 465.722 16.983C466.331 17.291 466.763 17.6577 467.02 18.083C467.277 18.501 467.405 19.018 467.405 19.634C467.405 20.778 466.983 21.68 466.14 22.34C465.297 22.9927 464.134 23.319 462.653 23.319ZM474.891 23.33C473.71 23.33 472.691 23.0623 471.833 22.527C470.982 21.9917 470.326 21.251 469.864 20.305C469.402 19.359 469.171 18.2737 469.171 17.049C469.171 15.8023 469.406 14.7097 469.875 13.771C470.344 12.8323 471.008 12.1027 471.866 11.582C472.724 11.054 473.732 10.79 474.891 10.79C476.079 10.79 477.102 11.0577 477.96 11.593C478.818 12.121 479.474 12.858 479.929 13.804C480.391 14.7427 480.622 15.8243 480.622 17.049C480.622 18.2883 480.391 19.381 479.929 20.327C479.467 21.2657 478.807 22.0027 477.949 22.538C477.091 23.066 476.072 23.33 474.891 23.33ZM474.891 21.471C476.123 21.471 477.04 21.0603 477.641 20.239C478.242 19.4177 478.543 18.3543 478.543 17.049C478.543 15.707 478.239 14.64 477.63 13.848C477.021 13.0487 476.108 12.649 474.891 12.649C474.062 12.649 473.38 12.836 472.845 13.21C472.31 13.584 471.91 14.101 471.646 14.761C471.382 15.421 471.25 16.1837 471.25 17.049C471.25 18.3837 471.558 19.4543 472.174 20.261C472.79 21.0677 473.696 21.471 474.891 21.471ZM484.177 23V10.471C484.177 10.163 484.192 9.85133 484.221 9.536C484.25 9.21333 484.316 8.90167 484.419 8.601C484.522 8.293 484.69 8.01067 484.925 7.754C485.196 7.45333 485.493 7.24067 485.816 7.116C486.139 6.984 486.465 6.90333 486.795 6.874C487.132 6.84467 487.451 6.83 487.752 6.83H489.259V8.458H487.862C487.283 8.458 486.85 8.601 486.564 8.887C486.278 9.16567 486.135 9.591 486.135 10.163V23H484.177ZM482.164 12.737V11.12H489.259V12.737H482.164ZM497.648 23C496.944 23.1393 496.247 23.1943 495.558 23.165C494.876 23.143 494.267 23.0073 493.732 22.758C493.196 22.5013 492.789 22.1053 492.511 21.57C492.276 21.1007 492.148 20.6277 492.126 20.151C492.111 19.667 492.104 19.1207 492.104 18.512V7.82H494.062V18.424C494.062 18.908 494.065 19.3223 494.073 19.667C494.087 20.0117 494.164 20.3087 494.304 20.558C494.568 21.0273 494.986 21.3023 495.558 21.383C496.137 21.4637 496.834 21.4417 497.648 21.317V23ZM489.695 12.737V11.12H497.648V12.737H489.695ZM502.59 23L498.96 11.109L500.907 11.12L503.558 19.81L506.231 11.12H507.958L510.62 19.81L513.282 11.12H515.218L511.588 23H509.96L507.089 13.969L504.218 23H502.59ZM519.915 23.33C519.028 23.33 518.283 23.1687 517.682 22.846C517.088 22.516 516.637 22.0833 516.329 21.548C516.028 21.0127 515.878 20.426 515.878 19.788C515.878 19.1647 515.995 18.6257 516.23 18.171C516.472 17.709 516.809 17.3277 517.242 17.027C517.675 16.719 518.192 16.477 518.793 16.301C519.358 16.147 519.988 16.015 520.685 15.905C521.389 15.7877 522.1 15.6813 522.819 15.586C523.538 15.4907 524.209 15.399 524.832 15.311L524.128 15.718C524.15 14.662 523.937 13.881 523.49 13.375C523.05 12.869 522.287 12.616 521.202 12.616C520.483 12.616 519.853 12.781 519.31 13.111C518.775 13.4337 518.397 13.9617 518.177 14.695L516.318 14.134C516.604 13.0927 517.158 12.275 517.979 11.681C518.8 11.087 519.882 10.79 521.224 10.79C522.302 10.79 523.226 10.9843 523.996 11.373C524.773 11.7543 525.331 12.3337 525.668 13.111C525.837 13.4777 525.943 13.8773 525.987 14.31C526.031 14.7353 526.053 15.1827 526.053 15.652V23H524.315V20.151L524.722 20.415C524.275 21.3757 523.648 22.1017 522.841 22.593C522.042 23.0843 521.066 23.33 519.915 23.33ZM520.212 21.691C520.916 21.691 521.525 21.5663 522.038 21.317C522.559 21.0603 522.977 20.7267 523.292 20.316C523.607 19.898 523.813 19.4433 523.908 18.952C524.018 18.5853 524.077 18.1783 524.084 17.731C524.099 17.2763 524.106 16.928 524.106 16.686L524.788 16.983C524.15 17.071 523.523 17.1553 522.907 17.236C522.291 17.3167 521.708 17.4047 521.158 17.5C520.608 17.588 520.113 17.6943 519.673 17.819C519.35 17.9217 519.046 18.0537 518.76 18.215C518.481 18.3763 518.254 18.5853 518.078 18.842C517.909 19.0913 517.825 19.403 517.825 19.777C517.825 20.0997 517.906 20.4077 518.067 20.701C518.236 20.9943 518.492 21.2327 518.837 21.416C519.189 21.5993 519.647 21.691 520.212 21.691ZM528.913 23V11.12H530.662V13.991L530.376 13.617C530.515 13.2503 530.695 12.913 530.915 12.605C531.142 12.297 531.395 12.044 531.674 11.846C531.982 11.5967 532.33 11.406 532.719 11.274C533.108 11.142 533.504 11.065 533.907 11.043C534.31 11.0137 534.688 11.0393 535.04 11.12V12.957C534.629 12.847 534.178 12.8177 533.687 12.869C533.196 12.9203 532.741 13.1 532.323 13.408C531.942 13.6793 531.645 14.0093 531.432 14.398C531.227 14.7867 531.084 15.2083 531.003 15.663C530.922 16.1103 530.882 16.5687 530.882 17.038V23H528.913ZM542.053 23.33C540.887 23.33 539.868 23.0733 538.995 22.56C538.13 22.0393 537.455 21.317 536.971 20.393C536.487 19.4617 536.245 18.3763 536.245 17.137C536.245 15.839 536.484 14.717 536.96 13.771C537.437 12.8177 538.101 12.0843 538.951 11.571C539.809 11.0503 540.814 10.79 541.965 10.79C543.161 10.79 544.176 11.065 545.012 11.615C545.856 12.165 546.486 12.9497 546.904 13.969C547.33 14.9883 547.513 16.202 547.454 17.61H545.474V16.906C545.452 15.4467 545.155 14.3577 544.583 13.639C544.011 12.913 543.161 12.55 542.031 12.55C540.821 12.55 539.901 12.9387 539.27 13.716C538.64 14.4933 538.324 15.608 538.324 17.06C538.324 18.4607 538.64 19.546 539.27 20.316C539.901 21.086 540.799 21.471 541.965 21.471C542.75 21.471 543.432 21.2913 544.011 20.932C544.591 20.5727 545.045 20.0557 545.375 19.381L547.256 20.03C546.794 21.0787 546.098 21.8927 545.166 22.472C544.242 23.044 543.205 23.33 542.053 23.33ZM537.664 17.61V16.037H546.442V17.61H537.664ZM564.168 23.33C563.053 23.33 562.115 23.055 561.352 22.505C560.589 21.9477 560.01 21.196 559.614 20.25C559.225 19.2967 559.031 18.2297 559.031 17.049C559.031 15.8537 559.225 14.783 559.614 13.837C560.01 12.891 560.589 12.1467 561.352 11.604C562.122 11.0613 563.064 10.79 564.179 10.79C565.279 10.79 566.225 11.065 567.017 11.615C567.816 12.1577 568.429 12.902 568.854 13.848C569.279 14.794 569.492 15.861 569.492 17.049C569.492 18.237 569.279 19.304 568.854 20.25C568.429 21.196 567.816 21.9477 567.017 22.505C566.225 23.055 565.275 23.33 564.168 23.33ZM558.701 23V7.16H560.67V14.255H560.45V23H558.701ZM563.926 21.537C564.711 21.537 565.36 21.339 565.873 20.943C566.386 20.547 566.771 20.0117 567.028 19.337C567.285 18.655 567.413 17.8923 567.413 17.049C567.413 16.213 567.285 15.4577 567.028 14.783C566.779 14.1083 566.39 13.573 565.862 13.177C565.341 12.781 564.678 12.583 563.871 12.583C563.101 12.583 562.463 12.7737 561.957 13.155C561.451 13.529 561.073 14.0533 560.824 14.728C560.575 15.3953 560.45 16.169 560.45 17.049C560.45 17.9143 560.571 18.688 560.813 19.37C561.062 20.0447 561.444 20.5763 561.957 20.965C562.47 21.3463 563.127 21.537 563.926 21.537ZM576.413 23.308C575.651 23.308 574.994 23.187 574.444 22.945C573.902 22.703 573.451 22.3803 573.091 21.977C572.732 21.5737 572.45 21.1263 572.244 20.635C572.039 20.1437 571.892 19.6413 571.804 19.128C571.724 18.6147 571.683 18.1343 571.683 17.687V11.12H573.663V17.071C573.663 17.6283 573.715 18.1673 573.817 18.688C573.92 19.2087 574.092 19.678 574.334 20.096C574.584 20.514 574.914 20.844 575.324 21.086C575.742 21.328 576.263 21.449 576.886 21.449C577.378 21.449 577.825 21.3647 578.228 21.196C578.632 21.0273 578.976 20.778 579.262 20.448C579.548 20.1107 579.768 19.6853 579.922 19.172C580.076 18.6587 580.153 18.061 580.153 17.379L581.44 17.775C581.44 18.919 581.231 19.9053 580.813 20.734C580.403 21.5627 579.82 22.2007 579.064 22.648C578.316 23.088 577.433 23.308 576.413 23.308ZM580.373 23V19.821H580.153V11.12H582.122V23H580.373ZM589.69 23.319C588.275 23.319 587.112 23.011 586.203 22.395C585.301 21.7717 584.747 20.9027 584.542 19.788L586.544 19.469C586.705 20.1143 587.076 20.6277 587.655 21.009C588.234 21.383 588.953 21.57 589.811 21.57C590.625 21.57 591.263 21.4013 591.725 21.064C592.187 20.7267 592.418 20.2683 592.418 19.689C592.418 19.3517 592.341 19.0803 592.187 18.875C592.033 18.6623 591.714 18.4643 591.23 18.281C590.753 18.0977 590.031 17.8777 589.063 17.621C588.014 17.3423 587.189 17.0527 586.588 16.752C585.987 16.4513 585.558 16.103 585.301 15.707C585.044 15.311 584.916 14.8307 584.916 14.266C584.916 13.5693 585.107 12.9607 585.488 12.44C585.869 11.912 586.401 11.505 587.083 11.219C587.772 10.933 588.572 10.79 589.481 10.79C590.383 10.79 591.19 10.933 591.901 11.219C592.612 11.505 593.184 11.912 593.617 12.44C594.057 12.9607 594.317 13.5693 594.398 14.266L592.396 14.629C592.301 13.991 591.993 13.4887 591.472 13.122C590.959 12.7553 590.295 12.561 589.481 12.539C588.711 12.5097 588.084 12.6453 587.6 12.946C587.123 13.2467 586.885 13.6537 586.885 14.167C586.885 14.453 586.973 14.6987 587.149 14.904C587.332 15.1093 587.666 15.3037 588.15 15.487C588.641 15.6703 589.353 15.8793 590.284 16.114C591.333 16.378 592.158 16.6677 592.759 16.983C593.368 17.291 593.8 17.6577 594.057 18.083C594.314 18.501 594.442 19.018 594.442 19.634C594.442 20.778 594.02 21.68 593.177 22.34C592.334 22.9927 591.171 23.319 589.69 23.319ZM597.088 9.019V6.995H599.046V9.019H597.088ZM597.088 23V11.12H599.046V23H597.088ZM610.806 23V17.049C610.806 16.4843 610.754 15.9417 610.652 15.421C610.556 14.9003 610.384 14.4347 610.135 14.024C609.893 13.606 609.563 13.276 609.145 13.034C608.734 12.792 608.213 12.671 607.583 12.671C607.091 12.671 606.644 12.7553 606.241 12.924C605.845 13.0853 605.504 13.3347 605.218 13.672C604.932 14.0093 604.708 14.4347 604.547 14.948C604.393 15.454 604.316 16.0517 604.316 16.741L603.029 16.345C603.029 15.1937 603.234 14.2073 603.645 13.386C604.063 12.5573 604.646 11.923 605.394 11.483C606.149 11.0357 607.036 10.812 608.056 10.812C608.826 10.812 609.482 10.933 610.025 11.175C610.567 11.417 611.018 11.7397 611.378 12.143C611.737 12.539 612.019 12.9863 612.225 13.485C612.43 13.9763 612.573 14.4787 612.654 14.992C612.742 15.498 612.786 15.9783 612.786 16.433V23H610.806ZM602.336 23V11.12H604.096V14.299H604.316V23H602.336ZM620.686 23.33C619.52 23.33 618.501 23.0733 617.628 22.56C616.763 22.0393 616.088 21.317 615.604 20.393C615.12 19.4617 614.878 18.3763 614.878 17.137C614.878 15.839 615.116 14.717 615.593 13.771C616.07 12.8177 616.733 12.0843 617.584 11.571C618.442 11.0503 619.447 10.79 620.598 10.79C621.793 10.79 622.809 11.065 623.645 11.615C624.488 12.165 625.119 12.9497 625.537 13.969C625.962 14.9883 626.146 16.202 626.087 17.61H624.107V16.906C624.085 15.4467 623.788 14.3577 623.216 13.639C622.644 12.913 621.793 12.55 620.664 12.55C619.454 12.55 618.534 12.9387 617.903 13.716C617.272 14.4933 616.957 15.608 616.957 17.06C616.957 18.4607 617.272 19.546 617.903 20.316C618.534 21.086 619.432 21.471 620.598 21.471C621.383 21.471 622.065 21.2913 622.644 20.932C623.223 20.5727 623.678 20.0557 624.008 19.381L625.889 20.03C625.427 21.0787 624.73 21.8927 623.799 22.472C622.875 23.044 621.837 23.33 620.686 23.33ZM616.297 17.61V16.037H625.075V17.61H616.297ZM633.024 23.319C631.609 23.319 630.446 23.011 629.537 22.395C628.635 21.7717 628.081 20.9027 627.876 19.788L629.878 19.469C630.039 20.1143 630.41 20.6277 630.989 21.009C631.568 21.383 632.287 21.57 633.145 21.57C633.959 21.57 634.597 21.4013 635.059 21.064C635.521 20.7267 635.752 20.2683 635.752 19.689C635.752 19.3517 635.675 19.0803 635.521 18.875C635.367 18.6623 635.048 18.4643 634.564 18.281C634.087 18.0977 633.365 17.8777 632.397 17.621C631.348 17.3423 630.523 17.0527 629.922 16.752C629.321 16.4513 628.892 16.103 628.635 15.707C628.378 15.311 628.25 14.8307 628.25 14.266C628.25 13.5693 628.441 12.9607 628.822 12.44C629.203 11.912 629.735 11.505 630.417 11.219C631.106 10.933 631.906 10.79 632.815 10.79C633.717 10.79 634.524 10.933 635.235 11.219C635.946 11.505 636.518 11.912 636.951 12.44C637.391 12.9607 637.651 13.5693 637.732 14.266L635.73 14.629C635.635 13.991 635.327 13.4887 634.806 13.122C634.293 12.7553 633.629 12.561 632.815 12.539C632.045 12.5097 631.418 12.6453 630.934 12.946C630.457 13.2467 630.219 13.6537 630.219 14.167C630.219 14.453 630.307 14.6987 630.483 14.904C630.666 15.1093 631 15.3037 631.484 15.487C631.975 15.6703 632.687 15.8793 633.618 16.114C634.667 16.378 635.492 16.6677 636.093 16.983C636.702 17.291 637.134 17.6577 637.391 18.083C637.648 18.501 637.776 19.018 637.776 19.634C637.776 20.778 637.354 21.68 636.511 22.34C635.668 22.9927 634.505 23.319 633.024 23.319ZM644.69 23.319C643.275 23.319 642.112 23.011 641.203 22.395C640.301 21.7717 639.747 20.9027 639.542 19.788L641.544 19.469C641.705 20.1143 642.076 20.6277 642.655 21.009C643.234 21.383 643.953 21.57 644.811 21.57C645.625 21.57 646.263 21.4013 646.725 21.064C647.187 20.7267 647.418 20.2683 647.418 19.689C647.418 19.3517 647.341 19.0803 647.187 18.875C647.033 18.6623 646.714 18.4643 646.23 18.281C645.753 18.0977 645.031 17.8777 644.063 17.621C643.014 17.3423 642.189 17.0527 641.588 16.752C640.987 16.4513 640.558 16.103 640.301 15.707C640.044 15.311 639.916 14.8307 639.916 14.266C639.916 13.5693 640.107 12.9607 640.488 12.44C640.869 11.912 641.401 11.505 642.083 11.219C642.772 10.933 643.572 10.79 644.481 10.79C645.383 10.79 646.19 10.933 646.901 11.219C647.612 11.505 648.184 11.912 648.617 12.44C649.057 12.9607 649.317 13.5693 649.398 14.266L647.396 14.629C647.301 13.991 646.993 13.4887 646.472 13.122C645.959 12.7553 645.295 12.561 644.481 12.539C643.711 12.5097 643.084 12.6453 642.6 12.946C642.123 13.2467 641.885 13.6537 641.885 14.167C641.885 14.453 641.973 14.6987 642.149 14.904C642.332 15.1093 642.666 15.3037 643.15 15.487C643.641 15.6703 644.353 15.8793 645.284 16.114C646.333 16.378 647.158 16.6677 647.759 16.983C648.368 17.291 648.8 17.6577 649.057 18.083C649.314 18.501 649.442 19.018 649.442 19.634C649.442 20.778 649.02 21.68 648.177 22.34C647.334 22.9927 646.171 23.319 644.69 23.319ZM657.016 23.33C655.85 23.33 654.831 23.0733 653.958 22.56C653.093 22.0393 652.418 21.317 651.934 20.393C651.45 19.4617 651.208 18.3763 651.208 17.137C651.208 15.839 651.446 14.717 651.923 13.771C652.4 12.8177 653.063 12.0843 653.914 11.571C654.772 11.0503 655.777 10.79 656.928 10.79C658.123 10.79 659.139 11.065 659.975 11.615C660.818 12.165 661.449 12.9497 661.867 13.969C662.292 14.9883 662.476 16.202 662.417 17.61H660.437V16.906C660.415 15.4467 660.118 14.3577 659.546 13.639C658.974 12.913 658.123 12.55 656.994 12.55C655.784 12.55 654.864 12.9387 654.233 13.716C653.602 14.4933 653.287 15.608 653.287 17.06C653.287 18.4607 653.602 19.546 654.233 20.316C654.864 21.086 655.762 21.471 656.928 21.471C657.713 21.471 658.395 21.2913 658.974 20.932C659.553 20.5727 660.008 20.0557 660.338 19.381L662.219 20.03C661.757 21.0787 661.06 21.8927 660.129 22.472C659.205 23.044 658.167 23.33 657.016 23.33ZM652.627 17.61V16.037H661.405V17.61H652.627ZM669.354 23.319C667.939 23.319 666.777 23.011 665.867 22.395C664.965 21.7717 664.412 20.9027 664.206 19.788L666.208 19.469C666.37 20.1143 666.74 20.6277 667.319 21.009C667.899 21.383 668.617 21.57 669.475 21.57C670.289 21.57 670.927 21.4013 671.389 21.064C671.851 20.7267 672.082 20.2683 672.082 19.689C672.082 19.3517 672.005 19.0803 671.851 18.875C671.697 18.6623 671.378 18.4643 670.894 18.281C670.418 18.0977 669.695 17.8777 668.727 17.621C667.679 17.3423 666.854 17.0527 666.252 16.752C665.651 16.4513 665.222 16.103 664.965 15.707C664.709 15.311 664.58 14.8307 664.58 14.266C664.58 13.5693 664.771 12.9607 665.152 12.44C665.534 11.912 666.065 11.505 666.747 11.219C667.437 10.933 668.236 10.79 669.145 10.79C670.047 10.79 670.854 10.933 671.565 11.219C672.277 11.505 672.849 11.912 673.281 12.44C673.721 12.9607 673.982 13.5693 674.062 14.266L672.06 14.629C671.965 13.991 671.657 13.4887 671.136 13.122C670.623 12.7553 669.959 12.561 669.145 12.539C668.375 12.5097 667.748 12.6453 667.264 12.946C666.788 13.2467 666.549 13.6537 666.549 14.167C666.549 14.453 666.637 14.6987 666.813 14.904C666.997 15.1093 667.33 15.3037 667.814 15.487C668.306 15.6703 669.017 15.8793 669.948 16.114C670.997 16.378 671.822 16.6677 672.423 16.983C673.032 17.291 673.465 17.6577 673.721 18.083C673.978 18.501 674.106 19.018 674.106 19.634C674.106 20.778 673.685 21.68 672.841 22.34C671.998 22.9927 670.836 23.319 669.354 23.319ZM685.743 28.61C685.12 28.61 684.511 28.5147 683.917 28.324C683.323 28.1333 682.777 27.8437 682.278 27.455C681.787 27.0737 681.376 26.5897 681.046 26.003L682.839 25.057C683.133 25.6363 683.547 26.058 684.082 26.322C684.625 26.586 685.182 26.718 685.754 26.718C686.51 26.718 687.137 26.5787 687.635 26.3C688.134 26.0287 688.501 25.6217 688.735 25.079C688.977 24.5363 689.095 23.8617 689.087 23.055V19.81H689.318V11.12H691.056V23.077C691.056 23.3997 691.045 23.7113 691.023 24.012C691.009 24.3127 690.972 24.6097 690.913 24.903C690.759 25.7463 690.455 26.4393 690 26.982C689.546 27.532 688.959 27.939 688.24 28.203C687.522 28.4743 686.689 28.61 685.743 28.61ZM685.6 23.33C684.493 23.33 683.543 23.055 682.751 22.505C681.959 21.9477 681.347 21.196 680.914 20.25C680.489 19.304 680.276 18.237 680.276 17.049C680.276 15.861 680.489 14.794 680.914 13.848C681.347 12.902 681.959 12.1577 682.751 11.615C683.543 11.065 684.489 10.79 685.589 10.79C686.711 10.79 687.654 11.0613 688.416 11.604C689.179 12.1467 689.755 12.891 690.143 13.837C690.539 14.783 690.737 15.8537 690.737 17.049C690.737 18.2297 690.539 19.2967 690.143 20.25C689.755 21.196 689.179 21.9477 688.416 22.505C687.654 23.055 686.715 23.33 685.6 23.33ZM685.842 21.537C686.642 21.537 687.298 21.3463 687.811 20.965C688.325 20.5763 688.702 20.0447 688.944 19.37C689.194 18.688 689.318 17.9143 689.318 17.049C689.318 16.169 689.194 15.3953 688.944 14.728C688.702 14.0533 688.328 13.529 687.822 13.155C687.316 12.7737 686.675 12.583 685.897 12.583C685.091 12.583 684.423 12.781 683.895 13.177C683.375 13.573 682.986 14.1083 682.729 14.783C682.48 15.4577 682.355 16.213 682.355 17.049C682.355 17.8923 682.484 18.655 682.74 19.337C682.997 20.0117 683.382 20.547 683.895 20.943C684.416 21.339 685.065 21.537 685.842 21.537ZM694.128 23V11.12H695.877V13.991L695.591 13.617C695.73 13.2503 695.91 12.913 696.13 12.605C696.357 12.297 696.61 12.044 696.889 11.846C697.197 11.5967 697.545 11.406 697.934 11.274C698.323 11.142 698.719 11.065 699.122 11.043C699.525 11.0137 699.903 11.0393 700.255 11.12V12.957C699.844 12.847 699.393 12.8177 698.902 12.869C698.411 12.9203 697.956 13.1 697.538 13.408C697.157 13.6793 696.86 14.0093 696.647 14.398C696.442 14.7867 696.299 15.2083 696.218 15.663C696.137 16.1103 696.097 16.5687 696.097 17.038V23H694.128ZM707.18 23.33C705.999 23.33 704.98 23.0623 704.122 22.527C703.271 21.9917 702.615 21.251 702.153 20.305C701.691 19.359 701.46 18.2737 701.46 17.049C701.46 15.8023 701.695 14.7097 702.164 13.771C702.633 12.8323 703.297 12.1027 704.155 11.582C705.013 11.054 706.021 10.79 707.18 10.79C708.368 10.79 709.391 11.0577 710.249 11.593C711.107 12.121 711.763 12.858 712.218 13.804C712.68 14.7427 712.911 15.8243 712.911 17.049C712.911 18.2883 712.68 19.381 712.218 20.327C711.756 21.2657 711.096 22.0027 710.238 22.538C709.38 23.066 708.361 23.33 707.18 23.33ZM707.18 21.471C708.412 21.471 709.329 21.0603 709.93 20.239C710.531 19.4177 710.832 18.3543 710.832 17.049C710.832 15.707 710.528 14.64 709.919 13.848C709.31 13.0487 708.397 12.649 707.18 12.649C706.351 12.649 705.669 12.836 705.134 13.21C704.599 13.584 704.199 14.101 703.935 14.761C703.671 15.421 703.539 16.1837 703.539 17.049C703.539 18.3837 703.847 19.4543 704.463 20.261C705.079 21.0677 705.985 21.471 707.18 21.471ZM717.433 23L713.803 11.109L715.75 11.12L718.401 19.81L721.074 11.12H722.801L725.463 19.81L728.125 11.12H730.061L726.431 23H724.803L721.932 13.969L719.061 23H717.433ZM732.268 9.019V6.995H734.226V9.019H732.268ZM732.268 23V11.12H734.226V23H732.268ZM745.985 23V17.049C745.985 16.4843 745.934 15.9417 745.831 15.421C745.736 14.9003 745.564 14.4347 745.314 14.024C745.072 13.606 744.742 13.276 744.324 13.034C743.914 12.792 743.393 12.671 742.762 12.671C742.271 12.671 741.824 12.7553 741.42 12.924C741.024 13.0853 740.683 13.3347 740.397 13.672C740.111 14.0093 739.888 14.4347 739.726 14.948C739.572 15.454 739.495 16.0517 739.495 16.741L738.208 16.345C738.208 15.1937 738.414 14.2073 738.824 13.386C739.242 12.5573 739.825 11.923 740.573 11.483C741.329 11.0357 742.216 10.812 743.235 10.812C744.005 10.812 744.662 10.933 745.204 11.175C745.747 11.417 746.198 11.7397 746.557 12.143C746.917 12.539 747.199 12.9863 747.404 13.485C747.61 13.9763 747.753 14.4787 747.833 14.992C747.921 15.498 747.965 15.9783 747.965 16.433V23H745.985ZM737.515 23V11.12H739.275V14.299H739.495V23H737.515ZM755.632 28.61C755.009 28.61 754.4 28.5147 753.806 28.324C753.212 28.1333 752.666 27.8437 752.167 27.455C751.676 27.0737 751.265 26.5897 750.935 26.003L752.728 25.057C753.021 25.6363 753.436 26.058 753.971 26.322C754.514 26.586 755.071 26.718 755.643 26.718C756.398 26.718 757.025 26.5787 757.524 26.3C758.023 26.0287 758.389 25.6217 758.624 25.079C758.866 24.5363 758.983 23.8617 758.976 23.055V19.81H759.207V11.12H760.945V23.077C760.945 23.3997 760.934 23.7113 760.912 24.012C760.897 24.3127 760.861 24.6097 760.802 24.903C760.648 25.7463 760.344 26.4393 759.889 26.982C759.434 27.532 758.848 27.939 758.129 28.203C757.41 28.4743 756.578 28.61 755.632 28.61ZM755.489 23.33C754.382 23.33 753.432 23.055 752.64 22.505C751.848 21.9477 751.236 21.196 750.803 20.25C750.378 19.304 750.165 18.237 750.165 17.049C750.165 15.861 750.378 14.794 750.803 13.848C751.236 12.902 751.848 12.1577 752.64 11.615C753.432 11.065 754.378 10.79 755.478 10.79C756.6 10.79 757.542 11.0613 758.305 11.604C759.068 12.1467 759.643 12.891 760.032 13.837C760.428 14.783 760.626 15.8537 760.626 17.049C760.626 18.2297 760.428 19.2967 760.032 20.25C759.643 21.196 759.068 21.9477 758.305 22.505C757.542 23.055 756.604 23.33 755.489 23.33ZM755.731 21.537C756.53 21.537 757.187 21.3463 757.7 20.965C758.213 20.5763 758.591 20.0447 758.833 19.37C759.082 18.688 759.207 17.9143 759.207 17.049C759.207 16.169 759.082 15.3953 758.833 14.728C758.591 14.0533 758.217 13.529 757.711 13.155C757.205 12.7737 756.563 12.583 755.786 12.583C754.979 12.583 754.312 12.781 753.784 13.177C753.263 13.573 752.875 14.1083 752.618 14.783C752.369 15.4577 752.244 16.213 752.244 17.049C752.244 17.8923 752.372 18.655 752.629 19.337C752.886 20.0117 753.271 20.547 753.784 20.943C754.305 21.339 754.954 21.537 755.731 21.537ZM770.951 23L767.321 11.109L769.268 11.12L771.919 19.81L774.592 11.12H776.319L778.981 19.81L781.643 11.12H783.579L779.949 23H778.321L775.45 13.969L772.579 23H770.951ZM785.785 9.019V6.995H787.743V9.019H785.785ZM785.785 23V11.12H787.743V23H785.785ZM797.677 23C796.973 23.1393 796.276 23.1943 795.587 23.165C794.905 23.143 794.296 23.0073 793.761 22.758C793.226 22.5013 792.819 22.1053 792.54 21.57C792.305 21.1007 792.177 20.6277 792.155 20.151C792.14 19.667 792.133 19.1207 792.133 18.512V7.82H794.091V18.424C794.091 18.908 794.095 19.3223 794.102 19.667C794.117 20.0117 794.194 20.3087 794.333 20.558C794.597 21.0273 795.015 21.3023 795.587 21.383C796.166 21.4637 796.863 21.4417 797.677 21.317V23ZM789.724 12.737V11.12H797.677V12.737H789.724ZM808.548 23V17.049C808.548 16.4843 808.496 15.9417 808.394 15.421C808.298 14.9003 808.126 14.4347 807.877 14.024C807.635 13.606 807.305 13.276 806.887 13.034C806.476 12.792 805.955 12.671 805.325 12.671C804.833 12.671 804.386 12.7553 803.983 12.924C803.587 13.0853 803.246 13.3347 802.96 13.672C802.674 14.0093 802.45 14.4347 802.289 14.948C802.135 15.454 802.058 16.0517 802.058 16.741L800.771 16.345C800.771 15.1937 800.976 14.2073 801.387 13.386C801.805 12.5573 802.388 11.923 803.136 11.483C803.891 11.0357 804.778 10.812 805.798 10.812C806.568 10.812 807.224 10.933 807.767 11.175C808.309 11.417 808.76 11.7397 809.12 12.143C809.479 12.539 809.761 12.9863 809.967 13.485C810.172 13.9763 810.315 14.4787 810.396 14.992C810.484 15.498 810.528 15.9783 810.528 16.433V23H808.548ZM800.078 23V7.16H801.838V15.905H802.058V23H800.078ZM816.692 23L821.994 7.16H824.722L830.024 23H827.989L823.028 8.304H823.644L818.727 23H816.692ZM819.244 19.293V17.456H827.472V19.293H819.244ZM831.993 23V7.16H838.252C838.406 7.16 838.589 7.16733 838.802 7.182C839.015 7.18933 839.22 7.21133 839.418 7.248C840.276 7.38 840.995 7.67333 841.574 8.128C842.161 8.58267 842.601 9.15833 842.894 9.855C843.187 10.5443 843.334 11.3107 843.334 12.154C843.334 13.3787 843.015 14.442 842.377 15.344C841.739 16.2387 840.804 16.7997 839.572 17.027L838.824 17.148H833.951V23H831.993ZM841.42 23L838.296 16.554L840.232 15.96L843.664 23H841.42ZM833.951 15.289H838.186C838.325 15.289 838.483 15.2817 838.659 15.267C838.842 15.2523 839.015 15.2267 839.176 15.19C839.682 15.0727 840.093 14.86 840.408 14.552C840.731 14.2367 840.965 13.87 841.112 13.452C841.259 13.0267 841.332 12.594 841.332 12.154C841.332 11.714 841.259 11.285 841.112 10.867C840.965 10.4417 840.731 10.0713 840.408 9.756C840.093 9.44067 839.682 9.228 839.176 9.118C839.015 9.074 838.842 9.04833 838.659 9.041C838.483 9.02633 838.325 9.019 838.186 9.019H833.951V15.289ZM856.112 23.33C854.99 23.33 853.978 23.1393 853.076 22.758C852.182 22.3767 851.441 21.834 850.854 21.13C850.275 20.4187 849.897 19.579 849.721 18.611L851.745 18.292C852.002 19.2893 852.534 20.0703 853.34 20.635C854.154 21.1923 855.111 21.471 856.211 21.471C856.923 21.471 857.564 21.361 858.136 21.141C858.716 20.9137 859.174 20.591 859.511 20.173C859.849 19.755 860.017 19.26 860.017 18.688C860.017 18.336 859.955 18.0353 859.83 17.786C859.713 17.5293 859.548 17.313 859.335 17.137C859.13 16.9537 858.895 16.7997 858.631 16.675C858.367 16.5503 858.092 16.4477 857.806 16.367L853.769 15.168C853.329 15.036 852.904 14.871 852.493 14.673C852.083 14.4677 851.716 14.2147 851.393 13.914C851.071 13.606 850.814 13.2393 850.623 12.814C850.433 12.3813 850.337 11.8717 850.337 11.285C850.337 10.3463 850.579 9.547 851.063 8.887C851.555 8.21967 852.218 7.71 853.054 7.358C853.89 7.006 854.833 6.83367 855.881 6.841C856.945 6.84833 857.894 7.039 858.73 7.413C859.574 7.77967 860.27 8.30767 860.82 8.997C861.378 9.68633 861.752 10.5113 861.942 11.472L859.863 11.835C859.753 11.1897 859.508 10.636 859.126 10.174C858.752 9.70467 858.283 9.34533 857.718 9.096C857.154 8.83933 856.534 8.70733 855.859 8.7C855.214 8.69267 854.631 8.79533 854.11 9.008C853.59 9.22067 853.175 9.51767 852.867 9.899C852.559 10.273 852.405 10.7057 852.405 11.197C852.405 11.681 852.545 12.0733 852.823 12.374C853.102 12.6673 853.443 12.902 853.846 13.078C854.257 13.2467 854.657 13.386 855.045 13.496L858.059 14.365C858.404 14.4603 858.8 14.5923 859.247 14.761C859.702 14.9297 860.142 15.168 860.567 15.476C860.993 15.7767 861.345 16.18 861.623 16.686C861.902 17.1847 862.041 17.8153 862.041 18.578C862.041 19.3407 861.887 20.019 861.579 20.613C861.279 21.207 860.857 21.7057 860.314 22.109C859.772 22.505 859.141 22.8057 858.422 23.011C857.704 23.2237 856.934 23.33 856.112 23.33ZM872.808 23V17.049C872.808 16.4843 872.756 15.9417 872.654 15.421C872.558 14.9003 872.386 14.4347 872.137 14.024C871.895 13.606 871.565 13.276 871.147 13.034C870.736 12.792 870.215 12.671 869.585 12.671C869.093 12.671 868.646 12.7553 868.243 12.924C867.847 13.0853 867.506 13.3347 867.22 13.672C866.934 14.0093 866.71 14.4347 866.549 14.948C866.395 15.454 866.318 16.0517 866.318 16.741L865.031 16.345C865.031 15.1937 865.236 14.2073 865.647 13.386C866.065 12.5573 866.648 11.923 867.396 11.483C868.151 11.0357 869.038 10.812 870.058 10.812C870.828 10.812 871.484 10.933 872.027 11.175C872.569 11.417 873.02 11.7397 873.38 12.143C873.739 12.539 874.021 12.9863 874.227 13.485C874.432 13.9763 874.575 14.4787 874.656 14.992C874.744 15.498 874.788 15.9783 874.788 16.433V23H872.808ZM864.338 23V7.16H866.098V15.905H866.318V23H864.338ZM881.024 23.33C880.137 23.33 879.393 23.1687 878.791 22.846C878.197 22.516 877.746 22.0833 877.438 21.548C877.138 21.0127 876.987 20.426 876.987 19.788C876.987 19.1647 877.105 18.6257 877.339 18.171C877.581 17.709 877.919 17.3277 878.351 17.027C878.784 16.719 879.301 16.477 879.902 16.301C880.467 16.147 881.098 16.015 881.794 15.905C882.498 15.7877 883.21 15.6813 883.928 15.586C884.647 15.4907 885.318 15.399 885.941 15.311L885.237 15.718C885.259 14.662 885.047 13.881 884.599 13.375C884.159 12.869 883.397 12.616 882.311 12.616C881.593 12.616 880.962 12.781 880.419 13.111C879.884 13.4337 879.506 13.9617 879.286 14.695L877.427 14.134C877.713 13.0927 878.267 12.275 879.088 11.681C879.91 11.087 880.991 10.79 882.333 10.79C883.411 10.79 884.335 10.9843 885.105 11.373C885.883 11.7543 886.44 12.3337 886.777 13.111C886.946 13.4777 887.052 13.8773 887.096 14.31C887.14 14.7353 887.162 15.1827 887.162 15.652V23H885.424V20.151L885.831 20.415C885.384 21.3757 884.757 22.1017 883.95 22.593C883.151 23.0843 882.176 23.33 881.024 23.33ZM881.321 21.691C882.025 21.691 882.634 21.5663 883.147 21.317C883.668 21.0603 884.086 20.7267 884.401 20.316C884.717 19.898 884.922 19.4433 885.017 18.952C885.127 18.5853 885.186 18.1783 885.193 17.731C885.208 17.2763 885.215 16.928 885.215 16.686L885.897 16.983C885.259 17.071 884.632 17.1553 884.016 17.236C883.4 17.3167 882.817 17.4047 882.267 17.5C881.717 17.588 881.222 17.6943 880.782 17.819C880.46 17.9217 880.155 18.0537 879.869 18.215C879.591 18.3763 879.363 18.5853 879.187 18.842C879.019 19.0913 878.934 19.403 878.934 19.777C878.934 20.0997 879.015 20.4077 879.176 20.701C879.345 20.9943 879.602 21.2327 879.946 21.416C880.298 21.5993 880.757 21.691 881.321 21.691ZM890.011 23L890.022 7.16H892.002V16.84L896.985 11.12H899.526L894.279 17.06L900.142 23H897.403L892.002 17.28V23H890.011ZM901.457 9.019V6.995H903.415V9.019H901.457ZM901.457 23V11.12H903.415V23H901.457ZM906.716 23V11.12H908.465V13.991L908.179 13.617C908.318 13.2503 908.498 12.913 908.718 12.605C908.945 12.297 909.198 12.044 909.477 11.846C909.785 11.5967 910.133 11.406 910.522 11.274C910.91 11.142 911.306 11.065 911.71 11.043C912.113 11.0137 912.491 11.0393 912.843 11.12V12.957C912.432 12.847 911.981 12.8177 911.49 12.869C910.998 12.9203 910.544 13.1 910.126 13.408C909.744 13.6793 909.447 14.0093 909.235 14.398C909.029 14.7867 908.886 15.2083 908.806 15.663C908.725 16.1103 908.685 16.5687 908.685 17.038V23H906.716ZM913.513 23V20.844H915.669V23H913.513Z" fill="black"/>
</svg>
