<svg width="1440" height="256" viewBox="0 0 1440 256" fill="none" xmlns="http://www.w3.org/2000/svg">
<rect width="1440" height="256" fill="#3734A9"/>
<path fill-rule="evenodd" clip-rule="evenodd" d="M1383.46 74.0449C1383.38 73.7674 1383.24 73.6179 1382.98 73.6684C1382.53 73.755 1382.28 74.0317 1382.25 74.4964C1382.24 74.7511 1382.39 74.8004 1382.6 74.7627C1383.04 74.6853 1383.24 74.3452 1383.46 74.0449ZM1381.16 155.872C1381.6 154.622 1381.89 153.333 1382.26 152.066C1381.53 153.227 1381.13 154.489 1381.16 155.872ZM1384.45 71.4533C1386.3 69.4543 1388.24 67.5345 1390.2 65.6445C1387.81 67.1186 1385.97 69.1267 1384.45 71.4533ZM1420.99 51.6694C1424.81 49.938 1428 47.3443 1431.04 44.5492C1427.87 46.9309 1424.7 49.315 1421.32 51.3918C1421.2 51.4664 1421.1 51.5762 1420.99 51.6694ZM1464.76 147.863C1463.65 151.664 1461.44 154.888 1460.33 158.577C1461.73 157.591 1465.34 149.101 1464.76 147.863ZM1419.87 185.652C1420.61 185.652 1421.37 185.717 1422.11 185.641C1425.13 185.33 1428.12 184.756 1431.11 184.19C1435.54 183.351 1439.62 181.469 1443.81 179.924C1445.75 179.211 1447.6 178.238 1448.91 176.522C1453.24 170.852 1456.73 164.747 1459.2 158.008C1461.18 152.631 1463.75 147.474 1465.86 142.143C1467.37 138.337 1468.33 134.35 1468.76 130.258C1469.12 126.849 1468.92 123.43 1468.94 120.014C1468.96 117.205 1468.91 114.398 1469.09 111.58C1469.21 109.595 1468.77 107.527 1468.6 105.494C1468.3 101.914 1468.35 98.3776 1469.44 94.9045C1470.45 91.7002 1471.81 88.6492 1473.5 85.7668C1476.92 79.9307 1481.21 74.7317 1485.7 69.712C1488.12 67.0163 1490.49 64.2942 1492.49 61.2726C1496.16 55.7128 1497.93 49.5723 1497.77 42.9235C1497.66 37.7257 1495.38 33.6901 1490.89 30.9481C1483.1 26.1823 1474.87 24.6572 1466.04 27.5595C1459.19 29.8074 1453.1 33.3791 1447.53 37.9154C1444.06 40.7448 1440.88 43.9122 1437.42 46.7499C1432.7 50.6156 1427.9 54.3662 1422.34 56.9947C1418.04 59.0293 1413.51 60.4604 1408.97 61.8057C1405.08 62.9543 1401.38 64.5046 1397.88 66.5396C1393.84 68.8881 1390.43 71.8927 1388.07 75.9863C1387.79 76.4738 1387.78 76.4676 1387.14 76.4808C1386.95 76.485 1386.94 76.6461 1386.87 76.7753C1386.28 77.9537 1385.9 79.1831 1385.88 80.5156C1385.87 81.4156 1386.22 82.703 1385.91 83.1362C1384.92 84.5263 1385.66 85.8728 1385.85 87.0442C1386.07 88.4972 1386.45 90.0049 1386.9 91.4608C1388.02 95.1157 1389.3 98.7052 1391.12 102.063C1392.79 105.143 1394.41 108.25 1394.89 111.738C1395.03 112.75 1396.25 113.904 1394.95 114.984C1394.95 114.984 1395.04 115.085 1395.08 115.145C1395.77 116.209 1396.11 117.41 1396.17 118.644C1396.22 119.823 1396.64 120.925 1396.69 122.09C1396.77 123.97 1397.47 125.798 1397.07 127.73C1396.88 128.608 1396.93 129.541 1396.92 130.449C1396.92 132.471 1396.24 134.397 1396.13 136.424C1396.09 137.183 1395.43 138.148 1395.06 139.017C1393.75 142.134 1391.43 144.508 1389.39 147.108C1387.47 149.554 1385.32 151.952 1385.12 155.305C1385.03 156.658 1384.63 158.085 1385.33 159.355C1387.21 162.767 1388.2 166.635 1390.77 169.693C1392.78 172.074 1394.12 174.959 1396.56 177.027C1398.95 179.05 1401.23 181.228 1403.99 182.723C1405.35 183.456 1406.72 184.207 1408.31 184.558C1412.13 185.401 1415.98 185.706 1419.87 185.652ZM1451.49 28.1996C1451.7 28.1358 1451.93 28.1039 1452.12 28.0025C1456.89 25.4659 1461.86 23.457 1467.13 22.2235C1467.32 22.1788 1467.58 22.1854 1467.69 21.8926C1467.34 21.9435 1467 21.9833 1466.67 22.0409C1462.29 22.8022 1458.24 24.4726 1454.29 26.4509C1453.31 26.9433 1452.24 27.3257 1451.51 28.2228C1450.33 28.3048 1449.61 29.2964 1448.6 29.7044C1448.42 29.7757 1448.23 30.0996 1448.5 30.3746C1448.59 30.4657 1448.71 30.5245 1448.77 30.4173C1449.36 29.2886 1450.8 29.2003 1451.49 28.1996ZM1438.16 45.3689C1439.53 44.5202 1440.61 43.3609 1441.7 42.2003C1440.53 43.2677 1439.12 44.0683 1438.19 45.3921C1437.19 45.745 1436.55 46.554 1435.84 47.2672C1436.75 46.7959 1437.52 46.1646 1438.16 45.3689ZM1468.27 153.903C1467.48 156.07 1466.72 158.223 1465.12 160.007C1464.15 161.085 1463.38 162.382 1462.74 163.69C1462.5 164.164 1462.08 164.308 1461.84 164.732C1461.27 165.722 1461.06 166.841 1460.34 167.803C1458.71 169.972 1457.1 172.15 1455.39 174.268C1454.27 175.666 1453.22 177.134 1452.05 178.499C1449.87 181.041 1447.09 182.747 1444.01 183.961C1440.45 185.364 1436.92 186.886 1433.28 188.049C1426.49 190.217 1419.56 191.09 1412.39 190.235C1408.07 189.72 1403.86 188.904 1400.16 186.698C1394.24 183.169 1389.36 178.47 1385.91 172.408C1385.78 172.181 1385.62 171.975 1385.46 171.763C1384.05 169.847 1382.78 167.867 1382.13 165.533C1381.81 164.378 1381.34 163.27 1380.82 162.181C1379.27 158.95 1379.56 155.697 1380.82 152.457C1382.08 149.195 1384.18 146.426 1386.53 143.971C1389.68 140.691 1391.15 136.886 1391.62 132.489C1392.06 128.399 1391.34 124.438 1390.61 120.462C1390.17 118.023 1389.77 115.573 1389.29 113.14C1388.51 109.218 1386.71 105.722 1384.86 102.218C1382.44 97.6544 1380.6 92.8505 1379.49 87.7848C1378.55 83.5459 1379.01 79.3836 1380.46 75.3869C1381.29 73.0844 1382.37 70.8245 1384.12 68.9594C1385.83 67.1431 1387.55 65.3645 1389.58 63.914C1394.47 60.4268 1399.86 57.9805 1405.57 56.1999C1412.1 54.167 1418.45 51.7617 1424.03 47.6665C1428.16 44.6321 1432.09 41.3574 1435.86 37.893C1441 33.1757 1446.38 28.7843 1452.61 25.5366C1458.64 22.3886 1464.94 19.9382 1471.83 20.0012C1482.2 20.096 1491.09 23.7625 1497.38 32.2967C1502.04 38.6092 1502.79 45.8424 1501.27 53.3941C1500.99 54.7576 1500.72 56.1208 1500.4 57.4744C1499.58 60.9516 1498.17 64.1488 1496.09 67.0814C1494.88 68.7904 1493.57 70.4269 1492.36 72.1176C1490.94 74.1021 1489.35 75.9204 1487.72 77.6932C1485.82 79.7464 1484.14 81.9495 1482.54 84.2305C1481.99 85.025 1481.11 85.5071 1480.57 86.362C1478.53 89.5949 1476.42 92.7796 1474.97 96.3356C1474.18 98.255 1473.38 100.127 1473.23 102.29C1473.13 103.616 1473.21 104.938 1473.1 106.256C1472.93 108.23 1473.27 110.175 1473.58 112.105C1473.7 112.845 1472.8 113.445 1473 113.496C1474.04 113.774 1473.31 114.362 1473.33 114.79C1473.34 115.043 1473.18 115.32 1473.24 115.552C1474.21 119.495 1473.79 123.522 1473.87 127.504C1473.95 131.201 1474.27 134.967 1473.27 138.591C1472.91 139.912 1472.64 141.269 1472.26 142.59C1471.8 144.174 1470.94 145.66 1470.8 147.313C1470.6 149.642 1469.42 151.593 1468.58 153.674C1468.53 153.789 1468.36 153.852 1468.24 153.943C1468.35 152.703 1469.37 151.779 1469.4 150.504C1468.53 152.353 1467.45 154.104 1467 156.142C1467.42 155.396 1467.85 154.65 1468.27 153.903Z" fill="#F9896B"/>
<path fill-rule="evenodd" clip-rule="evenodd" d="M1430.06 63.4705C1432.49 62.0444 1434.46 60.0902 1436.3 57.9927C1434.23 59.828 1432.19 61.7027 1430.06 63.4705ZM1444.1 51.2654C1444.02 51.1792 1443.94 51.0931 1443.86 51.0069C1441.73 52.9524 1439.43 54.6995 1437.58 56.959L1444.1 51.2654ZM1395.15 154.353C1393.9 155.592 1393.34 159.434 1394.15 160.225C1394.39 158.28 1394.39 156.261 1395.15 154.353ZM1404.6 76.9585C1401.67 78.9429 1399.06 81.2194 1397.79 84.6838C1399.81 81.8825 1402.02 79.2614 1404.6 76.9585ZM1448.1 47.736C1453 43.9013 1458.13 40.4974 1463.88 38.0818C1460.11 38.58 1449.68 45.4777 1448.1 47.736ZM1446.38 139.197C1445.21 141.533 1444.49 144.036 1443.8 146.532C1443.09 149.085 1442.14 151.55 1441.32 154.056C1440.54 156.425 1439.41 158.681 1438.44 160.986C1442.61 154.262 1444.16 146.614 1446.38 139.197ZM1404.5 101.693C1404.52 101.549 1404.48 101.342 1404.57 101.276C1404.71 101.155 1404.79 101.339 1404.89 101.448C1405.17 101.754 1405.04 102.217 1405.42 102.524C1406.13 103.089 1406.61 103.801 1406.96 104.7C1407.26 105.466 1408.08 106.023 1408.64 106.698C1408.77 106.849 1408.92 107.103 1408.76 107.317C1408.46 107.713 1408.7 107.843 1409.03 107.936C1409.44 108.051 1409.65 108.358 1409.79 108.712C1410.29 109.988 1410.95 111.199 1411.1 112.605C1411.19 113.512 1411.34 114.595 1411.68 115.257C1412.61 117.1 1412.65 119.043 1412.56 120.889C1412.48 122.561 1412.16 124.273 1412.23 125.948C1412.3 127.395 1411.57 128.574 1411.37 129.921C1411.12 131.552 1409.99 132.976 1409.77 134.671C1409.63 135.713 1408.53 136.504 1408.54 137.328C1408.56 139.235 1406.88 140.261 1406.58 141.98C1406.48 142.527 1406.26 143.346 1405.78 143.866C1404.81 144.934 1404.52 146.412 1403.51 147.476C1402.23 148.815 1401.57 150.609 1400.21 151.938C1399.4 152.737 1398.76 153.768 1398.05 154.687C1397.4 155.519 1397.46 156.809 1397.24 157.909C1396.93 159.5 1397.85 160.74 1398.26 162.138C1399.24 165.479 1401.3 168.241 1403.7 170.47C1408.39 174.822 1414.01 176.252 1420.26 173.974C1420.9 173.743 1421.53 173.51 1422.17 173.295C1425.92 172.035 1429.17 169.953 1432.18 167.397C1436.12 164.052 1437.98 159.387 1440.17 154.971C1440.93 153.427 1441.23 151.534 1441.81 149.819C1442.2 148.645 1442.63 147.473 1442.9 146.268C1443.17 145.053 1443.54 143.873 1443.91 142.689C1444.27 141.507 1444.78 140.365 1445.07 139.167C1445.32 138.101 1445.85 137.15 1446.07 136.045C1446.36 134.569 1446.85 133.099 1447.25 131.625C1448.69 126.327 1449.77 120.959 1450.42 115.503C1450.78 112.479 1451.04 109.427 1451.66 106.455C1453.69 96.8482 1458.11 88.3604 1464.2 80.7321C1466.93 77.3228 1469.82 74.0448 1472.67 70.739C1476.75 66.006 1478.97 60.3724 1480.63 54.4626C1481.67 50.7882 1481.49 47.1581 1480.14 43.6122C1479.37 41.5913 1478.23 39.9038 1475.81 39.505C1473.56 39.1334 1471.36 39.6665 1469.24 40.06C1467.97 40.2944 1466.59 40.8963 1465.32 41.5105C1462.28 42.9847 1459.19 44.3768 1456.54 46.5224C1455.91 47.0326 1455.12 47.101 1454.49 47.6109C1453.68 48.2632 1453.12 49.1442 1452.24 49.7303C1451.73 50.0663 1451.13 50.099 1450.66 50.5297C1447.71 53.2593 1444.37 55.5553 1441.7 58.6154C1440.78 59.6782 1439.63 60.5484 1438.62 61.5425C1434.84 65.2732 1430.43 68.0645 1425.46 69.8883C1419.38 72.1241 1413.7 75.1213 1408.38 78.7832C1406.35 80.1832 1404.18 81.5037 1402.72 83.6323C1401.88 84.867 1400.79 86.1258 1400.66 87.5403C1400.46 89.6324 1400.25 91.8173 1400.96 93.9016C1401.13 94.4044 1400.83 95.1053 1400.93 95.2771C1401.35 95.937 1401.59 96.6834 1402.04 97.3163C1403.01 98.6844 1404.34 99.8537 1404.5 101.693ZM1403.34 142.041C1403.66 141.92 1403.74 141.599 1403.85 141.343C1404.9 138.905 1406.04 136.497 1406.75 133.926C1407.16 132.421 1407.88 130.987 1407.86 129.374C1407.13 132.227 1405.86 134.888 1404.96 137.677C1404.48 139.157 1403.59 140.488 1403.37 142.063C1402.08 143.76 1401.45 145.799 1400.41 147.625C1401.51 145.827 1402.8 144.128 1403.34 142.041ZM1451.11 135.258C1451.07 134.983 1451.11 134.739 1450.84 134.601C1450.79 135.024 1450.45 135.427 1451.01 135.798C1451.33 136.013 1451.03 136.362 1450.94 136.622C1450.19 138.962 1449.46 141.311 1448.74 143.654C1448.05 145.885 1447.23 148.085 1446.71 150.37C1446.45 151.517 1445.9 152.548 1445.48 153.63C1445.28 154.127 1445.12 154.602 1445.12 155.142C1445.12 156.24 1445.04 156.269 1444.03 155.691C1443.94 155.643 1443.81 155.672 1443.68 155.664C1443.68 155.786 1443.64 155.907 1443.68 155.979C1444.33 157.054 1444.19 158.344 1443.43 159.38C1442.93 160.063 1442.47 160.754 1442.26 161.652C1441.93 163.004 1441 164.068 1439.93 164.957C1439.83 165.037 1439.61 165 1439.6 165.188C1439.54 166.302 1438.64 166.837 1437.96 167.5C1437.32 168.133 1436.52 168.596 1435.92 169.292C1434.88 170.483 1433.71 171.469 1432.29 172.262C1431.63 172.628 1430.96 173.324 1430.23 173.61C1427.53 174.67 1424.88 175.855 1422.14 176.843C1417.51 178.512 1412.96 178.022 1408.37 176.908C1405.67 176.253 1403.23 175.045 1401 173.386C1400.14 172.751 1399.45 171.979 1398.75 171.194C1396.07 168.2 1394.19 164.772 1393.25 160.875C1392.65 158.38 1393.03 155.94 1394.28 153.693C1394.61 153.102 1394.86 152.327 1395.97 152.461C1396.45 152.519 1396.93 151.62 1397.31 151.049C1399.96 147.015 1402.11 142.729 1403.85 138.226C1405.67 133.487 1407.27 128.698 1407.88 123.611C1408.33 119.918 1407.83 116.376 1406.93 112.812C1406.21 109.958 1404.72 107.571 1403.02 105.248C1401.75 103.507 1400.61 101.668 1399.35 99.915C1398.9 99.2937 1399.47 98.8973 1399.6 98.0983C1398.91 99.0348 1398.8 98.8467 1398.5 98.0763C1398.21 97.3063 1397.67 96.5873 1397.25 95.8409C1396.34 94.2429 1395.82 92.5008 1395.8 90.7056C1395.8 90.0247 1395.44 89.4564 1395.53 88.8119C1395.65 87.9992 1395.7 87.1658 1395.93 86.3842C1396.34 85.0021 1396.59 83.5449 1397.95 82.6063C1398.32 82.347 1398.1 81.5426 1398.52 81.0874C1400.34 79.1386 1402.05 77.0618 1404.32 75.6167C1409.72 72.178 1415.37 69.2492 1421.3 66.7813C1425.42 65.0628 1429.36 62.892 1432.61 59.6993C1437.4 55.0015 1442.43 50.5795 1447.61 46.3244C1452.52 42.2909 1457.78 38.8294 1463.81 36.6635C1466.34 35.7544 1468.94 35.2147 1471.62 35.0295C1475.45 34.7653 1478.32 36.5086 1480.55 39.4043C1484.82 44.9658 1485.82 51.2248 1484.18 57.9555C1483.07 62.4824 1481.44 66.8232 1479.15 70.8865C1478.07 72.7935 1477.04 74.7237 1475.26 76.1746C1474.42 76.8667 1473.96 78.0356 1473.31 78.975C1471.08 82.1867 1468.28 84.9408 1466.06 88.1719C1465.07 89.6105 1464.23 91.1281 1463.3 92.5927C1461.27 95.7891 1459.88 99.3168 1458.35 102.757C1457.01 105.775 1456.53 109.073 1456.04 112.342C1455.52 115.864 1454.97 119.383 1454.37 122.892C1454.02 124.919 1453.78 127.012 1453.06 128.911C1452.56 130.231 1452.54 131.636 1451.94 132.915C1451.6 133.649 1451.97 134.654 1451.11 135.258Z" fill="#F9896B"/>
<path fill-rule="evenodd" clip-rule="evenodd" d="M1438.63 120.811C1438.75 120.871 1438.86 120.93 1438.97 120.989C1439.33 120.029 1440.36 119.346 1439.89 118.034C1439.47 118.96 1439.05 119.886 1438.63 120.811ZM1417.06 84.6885C1414.71 85.1296 1412.3 87.3414 1412.55 88.84C1413.69 86.9827 1415.34 85.7927 1417.06 84.6885ZM1436.97 70.4915C1436.9 70.4 1436.83 70.3089 1436.76 70.2182C1433.63 72.9308 1430.5 75.6438 1427.37 78.3568C1427.44 78.4343 1427.5 78.5117 1427.57 78.5896L1436.97 70.4915ZM1446 61.86C1448.94 59.6875 1451.97 57.641 1455.22 55.9386C1458.5 54.2176 1461.83 52.5811 1465.2 51.0547C1458.35 53.851 1451.58 56.7981 1446 61.86ZM1424.86 149.71C1425.65 148.42 1426.61 147.282 1427.26 145.871C1428.72 142.679 1430.42 139.593 1431.81 136.362C1433.88 131.547 1436.06 126.783 1438.62 122.201C1438.78 121.914 1438.93 121.626 1438.5 121.209C1433.42 130.532 1429.8 140.44 1424.86 149.71ZM1446.3 66.8335C1444.97 67.4271 1444.32 68.7099 1443.36 69.6886C1442.11 70.4151 1441.42 71.7236 1440.31 72.6013C1438.39 74.1144 1436.42 75.579 1434.63 77.2308C1430.92 80.6501 1426.82 83.4426 1422.27 85.6403C1420.58 86.4567 1418.61 86.6311 1417.17 88.0427C1416.29 88.9059 1415.21 89.6038 1415.14 90.9558C1415.02 92.9589 1415.33 94.8944 1416.3 96.695C1418.08 100.023 1420.48 102.933 1422.58 106.048C1424.77 109.284 1426.72 112.578 1427.22 116.608C1427.69 120.463 1427.4 124.285 1427.18 128.113C1427.13 128.888 1426.61 129.628 1426.58 130.526C1426.54 131.78 1426.53 133.174 1425.73 134.202C1424.29 136.057 1423.82 138.319 1422.88 140.377C1422.57 141.053 1422.76 142.048 1422.16 142.564C1421.37 143.254 1421.16 144.162 1420.78 145.029C1420.63 145.367 1420.43 145.707 1420.17 145.965C1419.31 146.817 1418.77 147.942 1418.18 148.914C1417 150.823 1415.7 152.513 1414.05 154.011C1413.58 154.443 1412.83 154.39 1412.55 155.064C1412.26 155.736 1411.74 156.233 1411.19 156.697C1410.63 157.17 1410.34 157.79 1410.12 158.514C1410.53 158.632 1410.79 158.464 1411.06 158.365C1412.77 157.741 1414.23 156.64 1415.87 155.891C1418.76 154.578 1421.19 152.673 1423.12 150.127C1424.56 148.222 1425.54 146.066 1426.58 143.939C1428.62 139.725 1430.7 135.523 1432.62 131.251C1433.69 128.857 1434.81 126.488 1436 124.154C1437.98 120.277 1439.74 116.301 1441.46 112.309C1442.83 109.112 1443.97 105.817 1444.71 102.399C1445.36 99.4159 1446.5 96.5881 1447.6 93.7554C1449.71 88.3617 1451.85 82.9895 1455.33 78.2725C1458.45 74.0344 1461.61 69.8249 1464.44 65.3722C1466.54 62.0487 1468.37 58.6088 1469.27 54.7447C1469.36 54.3301 1469.67 53.7862 1469.32 53.4814C1469.02 53.2229 1468.53 53.5625 1468.15 53.7116C1464.2 55.2773 1460.39 57.1417 1456.7 59.2744C1456.04 59.6596 1455.45 60.5306 1454.43 60.1048C1454.29 60.0448 1453.99 60.2465 1454.07 60.4192C1454.38 61.0298 1453.78 61.0223 1453.55 61.1739C1452.1 62.1319 1450.67 63.1132 1449.26 64.1243C1448.15 64.915 1447.38 66.042 1446.3 66.8335ZM1417.09 144.951C1417.41 144.929 1417.51 144.67 1417.62 144.44C1419.11 141.53 1420.21 138.451 1421.55 135.482C1422.2 134.056 1421.98 132.347 1423.06 131.079C1423.25 130.862 1423.19 130.648 1422.93 130.537C1422.59 130.391 1422.41 130.618 1422.37 130.896C1422.22 131.978 1421.71 132.927 1421.35 133.935C1420.42 136.531 1419.63 139.164 1418.39 141.653C1417.88 142.688 1417.31 143.778 1417.12 144.976C1416.21 146.188 1415.55 147.538 1415.04 148.962C1415.68 147.603 1416.91 146.546 1417.09 144.951ZM1457.28 81.8601C1457.68 82.5402 1457.55 82.9673 1457.28 83.6259C1456.62 85.2317 1455.28 86.4934 1455.02 88.2848C1454.93 88.9243 1454.43 89.4073 1454.13 89.9453C1453.36 91.3147 1453.21 92.9081 1452.51 94.2423C1451.85 95.5081 1451.57 96.8944 1450.89 98.132C1450.54 98.7889 1450.66 99.607 1450.2 100.244C1449.88 100.673 1449.1 103.344 1449.01 103.858C1448.79 105.153 1448.52 106.442 1448.26 107.73C1448.22 107.951 1448.12 108.179 1447.82 108.131C1447.51 108.082 1447.36 108.224 1447.48 108.499C1447.92 109.533 1447.39 110.459 1446.99 111.271C1445.84 113.631 1444.83 116.056 1443.82 118.471C1443.62 118.95 1442.69 118.82 1443.02 119.774C1443.19 120.255 1442.64 121.09 1442.27 121.713C1441.9 122.321 1441.66 122.999 1441.33 123.63C1438.89 128.277 1436.65 133.016 1434.53 137.816C1433.35 140.479 1431.94 143.039 1430.7 145.675C1430.39 146.341 1430.19 147.089 1429.98 147.801C1429.78 148.456 1429.5 149.394 1428.7 149.806C1428.55 149.882 1428.46 149.949 1428.41 150.101C1427.43 153.18 1424.81 154.79 1422.46 156.593C1420.79 157.884 1418.74 158.646 1416.84 159.539C1415.66 160.09 1414.58 160.968 1413.21 161.162C1411.83 161.357 1410.47 161.605 1409.08 161.633C1407.72 161.661 1406.47 161.344 1405.35 160.567C1404.77 160.16 1404.68 159.643 1404.93 158.99C1405.57 157.37 1406.52 156.014 1408 155.051C1408.56 154.682 1409.16 154.362 1409.54 153.759C1409.81 153.328 1410.26 153.87 1410.76 153.381C1412.52 151.648 1413.62 149.541 1414.75 147.423C1417.09 143.036 1418.83 138.398 1420.51 133.734C1421.23 131.716 1421.61 129.612 1421.94 127.496C1422.15 126.16 1422.29 124.824 1422.38 123.477C1422.42 122.852 1422.67 122.339 1423.44 122.719C1423.9 122.946 1424.04 122.613 1424.25 122.378C1424.41 122.211 1424.37 122.019 1424.23 121.879C1423.96 121.623 1423.73 121.889 1423.52 121.991C1422.66 122.409 1422.38 122.16 1422.42 121.221C1422.54 118.635 1422.61 116.048 1421.94 113.506C1421.6 112.238 1421.13 111.023 1420.52 109.875C1418.73 106.517 1416.42 103.49 1414.38 100.293C1412.89 97.9527 1411.35 95.6128 1411.04 92.7565C1410.96 92.0917 1410.44 91.2815 1411.36 90.7418C1411.41 90.7124 1411.45 90.618 1411.45 90.5575C1411.27 87.9447 1411.35 87.8793 1413.13 86.0481C1414.28 84.8598 1415.68 84.033 1417.12 83.3749C1422.38 80.9522 1426.82 77.4273 1431.17 73.6552C1436.46 69.063 1441.28 63.9393 1446.78 59.6072C1452.8 54.8621 1459.69 51.6106 1467 49.3644C1470.86 48.1789 1473.72 51.0589 1472.88 55.0638C1472.04 59.0625 1470.52 62.8052 1468.5 66.3661C1466.19 70.4534 1463.54 74.3258 1460.98 78.2491C1460.28 79.3256 1459.68 80.4933 1458.82 81.4865C1458.38 82.0014 1458.05 82.4537 1457.28 81.8601Z" fill="#F9896B"/>
<path d="M321 254V2.5" stroke="#3D3D3D" stroke-width="2"/>
<path d="M153.266 105L149.313 91.32H150.767L153.969 102.615L157.151 91.3295L158.614 91.32L161.816 102.615L164.998 91.32H166.461L162.519 105H161.113L157.883 93.7805L154.672 105H153.266ZM170.935 105.285C169.934 105.285 169.067 105.063 168.332 104.62C167.604 104.177 167.037 103.553 166.632 102.748C166.226 101.944 166.024 101 166.024 99.9175C166.024 98.7965 166.223 97.8275 166.622 97.0105C167.021 96.1935 167.582 95.5633 168.304 95.12C169.032 94.6767 169.89 94.455 170.878 94.455C171.891 94.455 172.756 94.6893 173.472 95.158C174.187 95.6203 174.729 96.2853 175.096 97.153C175.463 98.0207 175.631 99.0562 175.6 100.259H174.175V99.7655C174.149 98.4355 173.861 97.4317 173.31 96.754C172.765 96.0763 171.967 95.7375 170.916 95.7375C169.814 95.7375 168.969 96.0953 168.38 96.811C167.797 97.5267 167.506 98.5463 167.506 99.87C167.506 101.162 167.797 102.166 168.38 102.881C168.969 103.591 169.801 103.945 170.878 103.945C171.613 103.945 172.252 103.778 172.797 103.442C173.348 103.1 173.782 102.609 174.099 101.969L175.4 102.473C174.995 103.366 174.396 104.059 173.605 104.553C172.819 105.041 171.929 105.285 170.935 105.285ZM167.012 100.259V99.091H174.849V100.259H167.012ZM184.58 105.276C183.377 105.276 182.386 105.016 181.607 104.496C180.834 103.977 180.359 103.255 180.182 102.33L181.607 102.093C181.759 102.676 182.104 103.141 182.642 103.489C183.187 103.831 183.858 104.002 184.656 104.002C185.435 104.002 186.049 103.841 186.499 103.518C186.949 103.189 187.174 102.742 187.174 102.178C187.174 101.862 187.101 101.605 186.955 101.409C186.816 101.206 186.528 101.019 186.091 100.848C185.654 100.677 185.001 100.475 184.134 100.24C183.203 99.9872 182.474 99.7338 181.949 99.4805C181.423 99.2272 181.049 98.9358 180.828 98.6065C180.606 98.2708 180.495 97.8623 180.495 97.381C180.495 96.7983 180.66 96.2885 180.989 95.8515C181.318 95.4082 181.774 95.0662 182.357 94.8255C182.94 94.5785 183.617 94.455 184.39 94.455C185.163 94.455 185.853 94.5817 186.461 94.835C187.075 95.082 187.569 95.4303 187.943 95.88C188.317 96.3297 188.538 96.8522 188.608 97.4475L187.183 97.704C187.088 97.1023 186.787 96.6273 186.281 96.279C185.78 95.9243 185.144 95.7407 184.371 95.728C183.643 95.709 183.051 95.8483 182.595 96.146C182.139 96.4373 181.911 96.8268 181.911 97.3145C181.911 97.5868 181.993 97.8212 182.158 98.0175C182.322 98.2075 182.62 98.388 183.051 98.559C183.488 98.73 184.108 98.9168 184.913 99.1195C185.856 99.3602 186.597 99.6135 187.136 99.8795C187.674 100.145 188.057 100.459 188.285 100.82C188.513 101.181 188.627 101.627 188.627 102.159C188.627 103.128 188.266 103.892 187.544 104.449C186.828 105 185.84 105.276 184.58 105.276ZM194.961 105.285C194.018 105.285 193.22 105.048 192.567 104.572C191.915 104.091 191.421 103.442 191.085 102.625C190.75 101.802 190.582 100.88 190.582 99.8605C190.582 98.8218 190.75 97.8972 191.085 97.0865C191.427 96.2695 191.928 95.6267 192.586 95.158C193.245 94.6893 194.056 94.455 195.018 94.455C195.956 94.455 196.76 94.6925 197.431 95.1675C198.103 95.6425 198.616 96.2885 198.97 97.1055C199.331 97.9225 199.512 98.8408 199.512 99.8605C199.512 100.886 199.331 101.808 198.97 102.625C198.609 103.442 198.09 104.091 197.412 104.572C196.735 105.048 195.918 105.285 194.961 105.285ZM190.344 109.56V94.74H191.598V102.463H191.75V109.56H190.344ZM194.819 103.983C195.535 103.983 196.13 103.803 196.605 103.442C197.08 103.081 197.435 102.59 197.669 101.969C197.91 101.342 198.03 100.639 198.03 99.8605C198.03 99.0878 197.913 98.3912 197.678 97.7705C197.444 97.1498 197.086 96.659 196.605 96.298C196.13 95.937 195.525 95.7565 194.79 95.7565C194.075 95.7565 193.479 95.9307 193.004 96.279C192.536 96.6273 192.184 97.1118 191.95 97.7325C191.716 98.3468 191.598 99.0562 191.598 99.8605C191.598 100.652 191.716 101.361 191.95 101.988C192.184 102.609 192.539 103.097 193.014 103.451C193.489 103.806 194.091 103.983 194.819 103.983ZM205.56 105.285C204.559 105.285 203.691 105.063 202.957 104.62C202.228 104.177 201.661 103.553 201.256 102.748C200.851 101.944 200.648 101 200.648 99.9175C200.648 98.7965 200.848 97.8275 201.247 97.0105C201.646 96.1935 202.206 95.5633 202.928 95.12C203.656 94.6767 204.515 94.455 205.503 94.455C206.516 94.455 207.38 94.6893 208.096 95.158C208.812 95.6203 209.353 96.2853 209.721 97.153C210.088 98.0207 210.256 99.0562 210.224 100.259H208.799V99.7655C208.774 98.4355 208.486 97.4317 207.935 96.754C207.39 96.0763 206.592 95.7375 205.541 95.7375C204.439 95.7375 203.593 96.0953 203.004 96.811C202.421 97.5267 202.13 98.5463 202.13 99.87C202.13 101.162 202.421 102.166 203.004 102.881C203.593 103.591 204.426 103.945 205.503 103.945C206.237 103.945 206.877 103.778 207.422 103.442C207.973 103.1 208.406 102.609 208.723 101.969L210.025 102.473C209.619 103.366 209.021 104.059 208.229 104.553C207.444 105.041 206.554 105.285 205.56 105.285ZM201.636 100.259V99.091H209.474V100.259H201.636ZM214.702 105.285C213.93 105.285 213.28 105.146 212.755 104.867C212.235 104.588 211.846 104.218 211.586 103.755C211.327 103.293 211.197 102.79 211.197 102.245C211.197 101.688 211.308 101.213 211.529 100.82C211.757 100.421 212.064 100.095 212.451 99.8415C212.843 99.5882 213.296 99.395 213.809 99.262C214.329 99.1353 214.902 99.0245 215.529 98.9295C216.162 98.8282 216.78 98.7427 217.381 98.673C217.989 98.597 218.521 98.5242 218.977 98.4545L218.483 98.7585C218.502 97.7452 218.306 96.9947 217.894 96.507C217.483 96.0193 216.767 95.7755 215.747 95.7755C215.044 95.7755 214.449 95.9338 213.961 96.2505C213.48 96.5672 213.141 97.0675 212.945 97.7515L211.586 97.3525C211.821 96.4342 212.292 95.7217 213.002 95.215C213.711 94.7083 214.633 94.455 215.766 94.455C216.704 94.455 217.498 94.6323 218.151 94.987C218.809 95.3353 219.275 95.842 219.547 96.507C219.674 96.8047 219.756 97.1372 219.794 97.5045C219.832 97.8718 219.851 98.2455 219.851 98.6255V105H218.607V102.425L218.968 102.577C218.619 103.458 218.078 104.129 217.343 104.591C216.609 105.054 215.728 105.285 214.702 105.285ZM214.864 104.078C215.516 104.078 216.086 103.961 216.574 103.727C217.061 103.493 217.454 103.173 217.752 102.767C218.049 102.356 218.243 101.893 218.331 101.38C218.407 101.051 218.448 100.69 218.455 100.297C218.461 99.8985 218.464 99.6008 218.464 99.4045L218.996 99.68C218.521 99.7433 218.005 99.8067 217.448 99.87C216.897 99.9333 216.352 100.006 215.814 100.088C215.282 100.171 214.8 100.269 214.37 100.383C214.078 100.465 213.797 100.582 213.524 100.734C213.252 100.88 213.027 101.076 212.85 101.323C212.679 101.57 212.593 101.878 212.593 102.245C212.593 102.543 212.666 102.831 212.812 103.109C212.964 103.388 213.204 103.619 213.534 103.803C213.869 103.987 214.313 104.078 214.864 104.078ZM221.935 105L221.944 91.32H223.35V99.68L227.929 94.74H229.791L224.984 99.87L230.418 105H228.385L223.35 100.06V105H221.935ZM236.599 105L233.464 94.7305L234.86 94.74L237.292 102.71L239.734 94.74H241.007L243.448 102.71L245.899 94.74H247.286L244.151 105H242.935L240.37 96.83L237.815 105H236.599ZM248.808 92.7925V91.225H250.204V92.7925H248.808ZM248.808 105V94.74H250.204V105H248.808ZM258.258 105C257.682 105.12 257.112 105.168 256.548 105.143C255.991 105.117 255.491 104.997 255.047 104.781C254.61 104.566 254.278 104.23 254.05 103.774C253.866 103.394 253.765 103.011 253.746 102.625C253.733 102.232 253.727 101.786 253.727 101.285V91.89H255.114V101.228C255.114 101.659 255.117 102.02 255.123 102.311C255.136 102.596 255.203 102.85 255.323 103.071C255.551 103.496 255.912 103.749 256.406 103.831C256.906 103.914 257.524 103.895 258.258 103.774V105ZM251.532 95.937V94.74H258.258V95.937H251.532ZM267.31 105V99.7655C267.31 99.1955 267.256 98.673 267.148 98.198C267.041 97.7167 266.867 97.2987 266.626 96.944C266.392 96.583 266.084 96.3043 265.704 96.108C265.331 95.9117 264.875 95.8135 264.336 95.8135C263.842 95.8135 263.405 95.899 263.025 96.07C262.652 96.241 262.335 96.488 262.075 96.811C261.822 97.1277 261.629 97.514 261.496 97.97C261.363 98.426 261.296 98.9453 261.296 99.528L260.308 99.3095C260.308 98.2582 260.492 97.3747 260.859 96.659C261.227 95.9433 261.733 95.4018 262.379 95.0345C263.025 94.6672 263.766 94.4835 264.602 94.4835C265.217 94.4835 265.752 94.5785 266.208 94.7685C266.67 94.9585 267.06 95.215 267.376 95.538C267.699 95.861 267.959 96.2315 268.155 96.6495C268.352 97.0612 268.494 97.5013 268.583 97.97C268.672 98.4323 268.716 98.8947 268.716 99.357V105H267.31ZM259.89 105V91.32H261.154V99.0435H261.296V105H259.89ZM154.615 136.285C153.595 136.285 152.724 136.054 152.002 135.591C151.28 135.129 150.726 134.489 150.34 133.672C149.953 132.855 149.76 131.918 149.76 130.86C149.76 129.784 149.956 128.84 150.349 128.029C150.742 127.219 151.299 126.589 152.021 126.139C152.749 125.683 153.614 125.455 154.615 125.455C155.641 125.455 156.515 125.686 157.237 126.148C157.965 126.604 158.519 127.241 158.899 128.058C159.285 128.869 159.479 129.803 159.479 130.86C159.479 131.937 159.285 132.884 158.899 133.701C158.513 134.512 157.955 135.145 157.227 135.601C156.499 136.057 155.628 136.285 154.615 136.285ZM154.615 134.945C155.755 134.945 156.603 134.569 157.161 133.815C157.718 133.055 157.997 132.07 157.997 130.86C157.997 129.619 157.715 128.631 157.151 127.896C156.594 127.162 155.748 126.794 154.615 126.794C153.848 126.794 153.215 126.969 152.715 127.317C152.221 127.659 151.85 128.137 151.603 128.751C151.362 129.359 151.242 130.062 151.242 130.86C151.242 132.095 151.527 133.087 152.097 133.834C152.667 134.575 153.506 134.945 154.615 134.945ZM165.118 136.257C164.503 136.257 163.965 136.162 163.503 135.971C163.047 135.782 162.657 135.525 162.334 135.202C162.017 134.879 161.761 134.512 161.565 134.1C161.368 133.682 161.226 133.242 161.137 132.779C161.048 132.311 161.004 131.845 161.004 131.383V125.74H162.41V130.974C162.41 131.538 162.464 132.061 162.572 132.542C162.679 133.023 162.85 133.444 163.085 133.805C163.325 134.16 163.632 134.436 164.006 134.632C164.386 134.828 164.845 134.926 165.384 134.926C165.878 134.926 166.311 134.841 166.685 134.67C167.065 134.499 167.382 134.255 167.635 133.938C167.895 133.615 168.091 133.226 168.224 132.77C168.357 132.308 168.424 131.788 168.424 131.212L169.412 131.43C169.412 132.482 169.228 133.365 168.861 134.081C168.493 134.797 167.987 135.338 167.341 135.705C166.695 136.073 165.954 136.257 165.118 136.257ZM168.566 136V133.473H168.424V125.74H169.82V136H168.566ZM172.095 136V125.74H173.349V128.21L173.102 127.887C173.216 127.583 173.365 127.304 173.549 127.051C173.733 126.791 173.932 126.579 174.147 126.414C174.413 126.18 174.724 126.003 175.078 125.882C175.433 125.756 175.791 125.683 176.152 125.664C176.513 125.639 176.842 125.664 177.14 125.74V127.051C176.766 126.956 176.358 126.934 175.914 126.984C175.471 127.035 175.063 127.212 174.689 127.516C174.347 127.782 174.09 128.102 173.919 128.476C173.748 128.843 173.634 129.236 173.577 129.654C173.52 130.066 173.492 130.474 173.492 130.879V136H172.095ZM186.593 136.285C185.65 136.285 184.852 136.048 184.199 135.572C183.547 135.091 183.053 134.442 182.717 133.625C182.382 132.802 182.214 131.88 182.214 130.86C182.214 129.822 182.382 128.897 182.717 128.086C183.059 127.269 183.56 126.627 184.218 126.158C184.877 125.689 185.688 125.455 186.65 125.455C187.588 125.455 188.392 125.692 189.063 126.167C189.735 126.642 190.248 127.288 190.602 128.105C190.963 128.922 191.144 129.841 191.144 130.86C191.144 131.886 190.963 132.808 190.602 133.625C190.241 134.442 189.722 135.091 189.044 135.572C188.367 136.048 187.55 136.285 186.593 136.285ZM181.976 140.56V125.74H183.23V133.463H183.382V140.56H181.976ZM186.451 134.983C187.166 134.983 187.762 134.803 188.237 134.442C188.712 134.081 189.066 133.59 189.301 132.969C189.541 132.342 189.662 131.639 189.662 130.86C189.662 130.088 189.545 129.391 189.31 128.77C189.076 128.15 188.718 127.659 188.237 127.298C187.762 126.937 187.157 126.756 186.422 126.756C185.707 126.756 185.111 126.931 184.636 127.279C184.168 127.627 183.816 128.112 183.582 128.732C183.347 129.347 183.23 130.056 183.23 130.86C183.23 131.652 183.347 132.361 183.582 132.988C183.816 133.609 184.171 134.097 184.646 134.451C185.121 134.806 185.722 134.983 186.451 134.983ZM197.134 136.285C196.115 136.285 195.244 136.054 194.522 135.591C193.8 135.129 193.246 134.489 192.859 133.672C192.473 132.855 192.28 131.918 192.28 130.86C192.28 129.784 192.476 128.84 192.869 128.029C193.262 127.219 193.819 126.589 194.541 126.139C195.269 125.683 196.134 125.455 197.134 125.455C198.16 125.455 199.034 125.686 199.756 126.148C200.485 126.604 201.039 127.241 201.419 128.058C201.805 128.869 201.998 129.803 201.998 130.86C201.998 131.937 201.805 132.884 201.419 133.701C201.033 134.512 200.475 135.145 199.747 135.601C199.019 136.057 198.148 136.285 197.134 136.285ZM197.134 134.945C198.274 134.945 199.123 134.569 199.68 133.815C200.238 133.055 200.516 132.07 200.516 130.86C200.516 129.619 200.235 128.631 199.671 127.896C199.114 127.162 198.268 126.794 197.134 126.794C196.368 126.794 195.735 126.969 195.234 127.317C194.74 127.659 194.37 128.137 194.123 128.751C193.882 129.359 193.762 130.062 193.762 130.86C193.762 132.095 194.047 133.087 194.617 133.834C195.187 134.575 196.026 134.945 197.134 134.945ZM205.528 136L202.393 125.73L203.789 125.74L206.221 133.71L208.663 125.74H209.936L212.377 133.71L214.828 125.74H216.215L213.08 136H211.864L209.299 127.83L206.744 136H205.528ZM221.517 136.285C220.517 136.285 219.649 136.063 218.914 135.62C218.186 135.177 217.619 134.553 217.214 133.748C216.809 132.944 216.606 132 216.606 130.917C216.606 129.796 216.805 128.827 217.204 128.01C217.603 127.193 218.164 126.563 218.886 126.12C219.614 125.677 220.472 125.455 221.46 125.455C222.474 125.455 223.338 125.689 224.054 126.158C224.77 126.62 225.311 127.285 225.678 128.153C226.046 129.021 226.214 130.056 226.182 131.259H224.757V130.766C224.732 129.435 224.443 128.432 223.892 127.754C223.348 127.076 222.55 126.737 221.498 126.737C220.396 126.737 219.551 127.095 218.962 127.811C218.379 128.527 218.088 129.546 218.088 130.87C218.088 132.162 218.379 133.166 218.962 133.881C219.551 134.591 220.384 134.945 221.46 134.945C222.195 134.945 222.835 134.778 223.379 134.442C223.93 134.1 224.364 133.609 224.681 132.969L225.982 133.473C225.577 134.366 224.979 135.059 224.187 135.553C223.402 136.041 222.512 136.285 221.517 136.285ZM217.594 131.259V130.091H225.431V131.259H217.594ZM227.91 136V125.74H229.164V128.21L228.917 127.887C229.031 127.583 229.18 127.304 229.364 127.051C229.547 126.791 229.747 126.579 229.962 126.414C230.228 126.18 230.538 126.003 230.893 125.882C231.248 125.756 231.606 125.683 231.967 125.664C232.328 125.639 232.657 125.664 232.955 125.74V127.051C232.581 126.956 232.172 126.934 231.729 126.984C231.286 127.035 230.877 127.212 230.504 127.516C230.162 127.782 229.905 128.102 229.734 128.476C229.563 128.843 229.449 129.236 229.392 129.654C229.335 130.066 229.307 130.474 229.307 130.879V136H227.91ZM235.393 136V124.98C235.393 124.714 235.406 124.451 235.431 124.191C235.463 123.932 235.523 123.685 235.612 123.45C235.7 123.21 235.84 122.988 236.03 122.785C236.239 122.557 236.467 122.393 236.714 122.291C236.961 122.184 237.217 122.114 237.483 122.082C237.756 122.051 238.022 122.035 238.281 122.035H239.592V123.213H238.376C237.844 123.213 237.445 123.343 237.179 123.602C236.92 123.862 236.79 124.271 236.79 124.828V136H235.393ZM233.617 126.937V125.74H239.592V126.937H233.617ZM244.656 136.257C244.041 136.257 243.503 136.162 243.041 135.971C242.585 135.782 242.195 135.525 241.872 135.202C241.555 134.879 241.299 134.512 241.103 134.1C240.906 133.682 240.764 133.242 240.675 132.779C240.586 132.311 240.542 131.845 240.542 131.383V125.74H241.948V130.974C241.948 131.538 242.002 132.061 242.11 132.542C242.217 133.023 242.388 133.444 242.623 133.805C242.863 134.16 243.17 134.436 243.544 134.632C243.924 134.828 244.383 134.926 244.922 134.926C245.416 134.926 245.849 134.841 246.223 134.67C246.603 134.499 246.92 134.255 247.173 133.938C247.433 133.615 247.629 133.226 247.762 132.77C247.895 132.308 247.962 131.788 247.962 131.212L248.95 131.43C248.95 132.482 248.766 133.365 248.399 134.081C248.031 134.797 247.525 135.338 246.879 135.705C246.233 136.073 245.492 136.257 244.656 136.257ZM248.104 136V133.473H247.962V125.74H249.358V136H248.104ZM251.823 136V122.035H253.22V136H251.823ZM255.878 136V122.035H257.274V136H255.878ZM154.159 167.276C152.955 167.276 151.964 167.016 151.185 166.496C150.412 165.977 149.937 165.255 149.76 164.33L151.185 164.093C151.337 164.676 151.682 165.141 152.221 165.489C152.765 165.831 153.437 166.002 154.234 166.002C155.014 166.002 155.628 165.841 156.078 165.518C156.527 165.189 156.752 164.742 156.752 164.178C156.752 163.862 156.679 163.605 156.534 163.409C156.394 163.206 156.106 163.019 155.669 162.848C155.232 162.677 154.58 162.475 153.712 162.24C152.781 161.987 152.053 161.734 151.527 161.48C151.001 161.227 150.628 160.936 150.406 160.606C150.184 160.271 150.074 159.862 150.074 159.381C150.074 158.798 150.238 158.288 150.568 157.851C150.897 157.408 151.353 157.066 151.936 156.825C152.518 156.578 153.196 156.455 153.969 156.455C154.741 156.455 155.432 156.582 156.04 156.835C156.654 157.082 157.148 157.43 157.522 157.88C157.895 158.33 158.117 158.852 158.187 159.447L156.762 159.704C156.667 159.102 156.366 158.627 155.859 158.279C155.359 157.924 154.722 157.741 153.95 157.728C153.221 157.709 152.629 157.848 152.173 158.146C151.717 158.437 151.489 158.827 151.489 159.314C151.489 159.587 151.571 159.821 151.736 160.017C151.901 160.207 152.198 160.388 152.629 160.559C153.066 160.73 153.687 160.917 154.491 161.119C155.435 161.36 156.176 161.613 156.714 161.879C157.252 162.145 157.636 162.459 157.864 162.82C158.092 163.181 158.206 163.627 158.206 164.159C158.206 165.128 157.845 165.892 157.123 166.449C156.407 167 155.419 167.276 154.159 167.276ZM165.518 167C164.942 167.12 164.372 167.168 163.808 167.143C163.251 167.117 162.751 166.997 162.307 166.781C161.87 166.566 161.538 166.23 161.31 165.774C161.126 165.394 161.025 165.011 161.006 164.625C160.993 164.232 160.987 163.786 160.987 163.285V153.89H162.374V163.228C162.374 163.659 162.377 164.02 162.383 164.311C162.396 164.596 162.463 164.85 162.583 165.071C162.811 165.496 163.172 165.749 163.666 165.831C164.166 165.914 164.784 165.895 165.518 165.774V167ZM158.792 157.937V156.74H165.518V157.937H158.792ZM170.095 167.285C169.323 167.285 168.674 167.146 168.148 166.867C167.629 166.588 167.239 166.218 166.979 165.755C166.72 165.293 166.59 164.79 166.59 164.245C166.59 163.688 166.701 163.213 166.922 162.82C167.15 162.421 167.458 162.095 167.844 161.841C168.237 161.588 168.689 161.395 169.202 161.262C169.722 161.135 170.295 161.024 170.922 160.929C171.555 160.828 172.173 160.743 172.774 160.673C173.382 160.597 173.914 160.524 174.37 160.454L173.876 160.758C173.895 159.745 173.699 158.995 173.287 158.507C172.876 158.019 172.16 157.775 171.14 157.775C170.437 157.775 169.842 157.934 169.354 158.25C168.873 158.567 168.534 159.067 168.338 159.751L166.979 159.352C167.214 158.434 167.686 157.722 168.395 157.215C169.104 156.708 170.026 156.455 171.159 156.455C172.097 156.455 172.892 156.632 173.544 156.987C174.203 157.335 174.668 157.842 174.94 158.507C175.067 158.805 175.149 159.137 175.187 159.504C175.225 159.872 175.244 160.245 175.244 160.625V167H174V164.425L174.361 164.577C174.013 165.458 173.471 166.129 172.736 166.591C172.002 167.054 171.121 167.285 170.095 167.285ZM170.257 166.078C170.909 166.078 171.479 165.961 171.967 165.727C172.455 165.493 172.847 165.173 173.145 164.767C173.443 164.356 173.636 163.893 173.724 163.38C173.8 163.051 173.842 162.69 173.848 162.297C173.854 161.898 173.857 161.601 173.857 161.404L174.389 161.68C173.914 161.743 173.398 161.807 172.841 161.87C172.29 161.933 171.745 162.006 171.207 162.088C170.675 162.171 170.194 162.269 169.763 162.383C169.472 162.465 169.19 162.582 168.917 162.734C168.645 162.88 168.42 163.076 168.243 163.323C168.072 163.57 167.986 163.878 167.986 164.245C167.986 164.543 168.059 164.831 168.205 165.109C168.357 165.388 168.598 165.619 168.927 165.803C169.263 165.987 169.706 166.078 170.257 166.078ZM182.923 167C182.347 167.12 181.777 167.168 181.213 167.143C180.656 167.117 180.156 166.997 179.712 166.781C179.275 166.566 178.943 166.23 178.715 165.774C178.531 165.394 178.43 165.011 178.411 164.625C178.398 164.232 178.392 163.786 178.392 163.285V153.89H179.779V163.228C179.779 163.659 179.782 164.02 179.788 164.311C179.801 164.596 179.868 164.85 179.988 165.071C180.216 165.496 180.577 165.749 181.071 165.831C181.571 165.914 182.189 165.895 182.923 165.774V167ZM176.197 157.937V156.74H182.923V157.937H176.197ZM184.755 154.792V153.225H186.151V154.792H184.755ZM184.755 167V156.74H186.151V167H184.755ZM192.448 167.276C191.245 167.276 190.253 167.016 189.474 166.496C188.702 165.977 188.227 165.255 188.049 164.33L189.474 164.093C189.626 164.676 189.972 165.141 190.51 165.489C191.055 165.831 191.726 166.002 192.524 166.002C193.303 166.002 193.917 165.841 194.367 165.518C194.817 165.189 195.041 164.742 195.041 164.178C195.041 163.862 194.969 163.605 194.823 163.409C194.684 163.206 194.395 163.019 193.958 162.848C193.521 162.677 192.869 162.475 192.001 162.24C191.07 161.987 190.342 161.734 189.816 161.48C189.291 161.227 188.917 160.936 188.695 160.606C188.474 160.271 188.363 159.862 188.363 159.381C188.363 158.798 188.528 158.288 188.857 157.851C189.186 157.408 189.642 157.066 190.225 156.825C190.808 156.578 191.485 156.455 192.258 156.455C193.031 156.455 193.721 156.582 194.329 156.835C194.943 157.082 195.437 157.43 195.811 157.88C196.185 158.33 196.406 158.852 196.476 159.447L195.051 159.704C194.956 159.102 194.655 158.627 194.148 158.279C193.648 157.924 193.012 157.741 192.239 157.728C191.511 157.709 190.918 157.848 190.462 158.146C190.006 158.437 189.778 158.827 189.778 159.314C189.778 159.587 189.861 159.821 190.025 160.017C190.19 160.207 190.488 160.388 190.918 160.559C191.355 160.73 191.976 160.917 192.78 161.119C193.724 161.36 194.465 161.613 195.003 161.879C195.542 162.145 195.925 162.459 196.153 162.82C196.381 163.181 196.495 163.627 196.495 164.159C196.495 165.128 196.134 165.892 195.412 166.449C194.696 167 193.708 167.276 192.448 167.276ZM203.808 167C203.232 167.12 202.662 167.168 202.098 167.143C201.541 167.117 201.04 166.997 200.597 166.781C200.16 166.566 199.827 166.23 199.599 165.774C199.416 165.394 199.314 165.011 199.295 164.625C199.283 164.232 199.276 163.786 199.276 163.285V153.89H200.663V163.228C200.663 163.659 200.667 164.02 200.673 164.311C200.686 164.596 200.752 164.85 200.872 165.071C201.1 165.496 201.461 165.749 201.955 165.831C202.456 165.914 203.073 165.895 203.808 165.774V167ZM197.082 157.937V156.74H203.808V157.937H197.082ZM205.639 154.792V153.225H207.036V154.792H205.639ZM205.639 167V156.74H207.036V167H205.639ZM213.76 167.285C212.728 167.285 211.854 167.054 211.138 166.591C210.422 166.129 209.878 165.493 209.504 164.682C209.137 163.865 208.947 162.928 208.934 161.87C208.947 160.793 209.143 159.85 209.523 159.039C209.903 158.222 210.451 157.589 211.166 157.139C211.882 156.683 212.75 156.455 213.769 156.455C214.808 156.455 215.711 156.708 216.477 157.215C217.25 157.722 217.778 158.415 218.063 159.295L216.695 159.732C216.455 159.118 216.072 158.643 215.546 158.307C215.027 157.965 214.431 157.794 213.76 157.794C213.006 157.794 212.382 157.969 211.888 158.317C211.394 158.659 211.027 159.137 210.786 159.751C210.546 160.366 210.422 161.072 210.416 161.87C210.429 163.099 210.714 164.087 211.271 164.834C211.828 165.575 212.658 165.945 213.76 165.945C214.457 165.945 215.049 165.787 215.536 165.47C216.03 165.147 216.404 164.679 216.657 164.064L218.063 164.482C217.683 165.394 217.126 166.091 216.391 166.572C215.657 167.048 214.78 167.285 213.76 167.285ZM223.473 167.276C222.27 167.276 221.278 167.016 220.499 166.496C219.727 165.977 219.252 165.255 219.074 164.33L220.499 164.093C220.651 164.676 220.997 165.141 221.535 165.489C222.08 165.831 222.751 166.002 223.549 166.002C224.328 166.002 224.942 165.841 225.392 165.518C225.842 165.189 226.066 164.742 226.066 164.178C226.066 163.862 225.994 163.605 225.848 163.409C225.709 163.206 225.42 163.019 224.983 162.848C224.546 162.677 223.894 162.475 223.026 162.24C222.095 161.987 221.367 161.734 220.841 161.48C220.316 161.227 219.942 160.936 219.72 160.606C219.499 160.271 219.388 159.862 219.388 159.381C219.388 158.798 219.553 158.288 219.882 157.851C220.211 157.408 220.667 157.066 221.25 156.825C221.833 156.578 222.51 156.455 223.283 156.455C224.056 156.455 224.746 156.582 225.354 156.835C225.968 157.082 226.462 157.43 226.836 157.88C227.21 158.33 227.431 158.852 227.501 159.447L226.076 159.704C225.981 159.102 225.68 158.627 225.173 158.279C224.673 157.924 224.037 157.741 223.264 157.728C222.536 157.709 221.943 157.848 221.487 158.146C221.031 158.437 220.803 158.827 220.803 159.314C220.803 159.587 220.886 159.821 221.05 160.017C221.215 160.207 221.513 160.388 221.943 160.559C222.38 160.73 223.001 160.917 223.805 161.119C224.749 161.36 225.49 161.613 226.028 161.879C226.567 162.145 226.95 162.459 227.178 162.82C227.406 163.181 227.52 163.627 227.52 164.159C227.52 165.128 227.159 165.892 226.437 166.449C225.721 167 224.733 167.276 223.473 167.276Z" fill="white"/>
<path d="M400.04 133V91.816L390.32 97.792V86.992L400.04 81.16H410.048V133H400.04ZM422.295 133V81.16H431.079L448.215 115.576L465.351 81.16H474.135V133H464.991V102.04L449.943 133H446.487L431.439 102.04V133H422.295ZM494.537 123.28V110.824H482.081V103.264H494.537V90.88H502.097V103.264H514.481V110.824H502.097V123.28H494.537Z" fill="white"/>
<path d="M422.6 189L430.04 167.4H432.965L440.405 189H438.11L431.045 168.63H431.915L424.895 189H422.6ZM425.915 183.765V181.695H437.075V183.765H425.915ZM449.234 189.45C447.604 189.45 446.224 189.085 445.094 188.355C443.964 187.625 443.104 186.62 442.514 185.34C441.934 184.05 441.634 182.57 441.614 180.9C441.634 179.2 441.944 177.71 442.544 176.43C443.144 175.14 444.009 174.14 445.139 173.43C446.269 172.71 447.639 172.35 449.249 172.35C450.889 172.35 452.314 172.75 453.524 173.55C454.744 174.35 455.579 175.445 456.029 176.835L453.869 177.525C453.489 176.555 452.884 175.805 452.054 175.275C451.234 174.735 450.294 174.465 449.234 174.465C448.044 174.465 447.059 174.74 446.279 175.29C445.499 175.83 444.919 176.585 444.539 177.555C444.159 178.525 443.964 179.64 443.954 180.9C443.974 182.84 444.424 184.4 445.304 185.58C446.184 186.75 447.494 187.335 449.234 187.335C450.334 187.335 451.269 187.085 452.039 186.585C452.819 186.075 453.409 185.335 453.809 184.365L456.029 185.025C455.429 186.465 454.549 187.565 453.389 188.325C452.229 189.075 450.844 189.45 449.234 189.45ZM467.345 189C466.435 189.19 465.535 189.265 464.645 189.225C463.765 189.185 462.975 188.995 462.275 188.655C461.585 188.315 461.06 187.785 460.7 187.065C460.41 186.465 460.25 185.86 460.22 185.25C460.2 184.63 460.19 183.925 460.19 183.135V168.3H462.38V183.045C462.38 183.725 462.385 184.295 462.395 184.755C462.415 185.205 462.52 185.605 462.71 185.955C463.07 186.625 463.64 187.025 464.42 187.155C465.21 187.285 466.185 187.255 467.345 187.065V189ZM456.725 174.69V172.8H467.345V174.69H456.725ZM470.237 169.725V167.25H472.442V169.725H470.237ZM470.237 189V172.8H472.442V189H470.237ZM480.719 189L474.839 172.8H477.074L481.859 186.12L486.614 172.8H488.879L482.999 189H480.719ZM497.242 189.45C495.662 189.45 494.292 189.1 493.132 188.4C491.982 187.7 491.087 186.715 490.447 185.445C489.807 184.175 489.487 182.685 489.487 180.975C489.487 179.205 489.802 177.675 490.432 176.385C491.062 175.095 491.947 174.1 493.087 173.4C494.237 172.7 495.592 172.35 497.152 172.35C498.752 172.35 500.117 172.72 501.247 173.46C502.377 174.19 503.232 175.24 503.812 176.61C504.392 177.98 504.657 179.615 504.607 181.515H502.357V180.735C502.317 178.635 501.862 177.05 500.992 175.98C500.132 174.91 498.872 174.375 497.212 174.375C495.472 174.375 494.137 174.94 493.207 176.07C492.287 177.2 491.827 178.81 491.827 180.9C491.827 182.94 492.287 184.525 493.207 185.655C494.137 186.775 495.452 187.335 497.152 187.335C498.312 187.335 499.322 187.07 500.182 186.54C501.052 186 501.737 185.225 502.237 184.215L504.292 185.01C503.652 186.42 502.707 187.515 501.457 188.295C500.217 189.065 498.812 189.45 497.242 189.45ZM491.047 181.515V179.67H503.422V181.515H491.047ZM521.172 189.45C519.522 189.45 518.062 189.11 516.792 188.43C515.532 187.75 514.542 186.79 513.822 185.55C513.102 184.31 512.742 182.86 512.742 181.2V167.415L514.962 167.4V180.915C514.962 182.035 515.152 183.005 515.532 183.825C515.912 184.635 516.407 185.305 517.017 185.835C517.637 186.355 518.312 186.74 519.042 186.99C519.772 187.24 520.482 187.365 521.172 187.365C521.872 187.365 522.587 187.24 523.317 186.99C524.047 186.74 524.717 186.355 525.327 185.835C525.937 185.305 526.432 184.635 526.812 183.825C527.192 183.005 527.382 182.035 527.382 180.915V167.4H529.602V181.2C529.602 182.86 529.242 184.31 528.522 185.55C527.802 186.78 526.807 187.74 525.537 188.43C524.277 189.11 522.822 189.45 521.172 189.45ZM539.251 189.435C537.351 189.435 535.786 189.025 534.556 188.205C533.336 187.385 532.586 186.245 532.306 184.785L534.556 184.41C534.796 185.33 535.341 186.065 536.191 186.615C537.051 187.155 538.111 187.425 539.371 187.425C540.601 187.425 541.571 187.17 542.281 186.66C542.991 186.14 543.346 185.435 543.346 184.545C543.346 184.045 543.231 183.64 543.001 183.33C542.781 183.01 542.326 182.715 541.636 182.445C540.946 182.175 539.916 181.855 538.546 181.485C537.076 181.085 535.926 180.685 535.096 180.285C534.266 179.885 533.676 179.425 533.326 178.905C532.976 178.375 532.801 177.73 532.801 176.97C532.801 176.05 533.061 175.245 533.581 174.555C534.101 173.855 534.821 173.315 535.741 172.935C536.661 172.545 537.731 172.35 538.951 172.35C540.171 172.35 541.261 172.55 542.221 172.95C543.191 173.34 543.971 173.89 544.561 174.6C545.151 175.31 545.501 176.135 545.611 177.075L543.361 177.48C543.211 176.53 542.736 175.78 541.936 175.23C541.146 174.67 540.141 174.38 538.921 174.36C537.771 174.33 536.836 174.55 536.116 175.02C535.396 175.48 535.036 176.095 535.036 176.865C535.036 177.295 535.166 177.665 535.426 177.975C535.686 178.275 536.156 178.56 536.836 178.83C537.526 179.1 538.506 179.395 539.776 179.715C541.266 180.095 542.436 180.495 543.286 180.915C544.136 181.335 544.741 181.83 545.101 182.4C545.461 182.97 545.641 183.675 545.641 184.515C545.641 186.045 545.071 187.25 543.931 188.13C542.801 189 541.241 189.435 539.251 189.435ZM555.223 189.45C553.643 189.45 552.273 189.1 551.113 188.4C549.963 187.7 549.068 186.715 548.428 185.445C547.788 184.175 547.468 182.685 547.468 180.975C547.468 179.205 547.783 177.675 548.413 176.385C549.043 175.095 549.928 174.1 551.068 173.4C552.218 172.7 553.573 172.35 555.133 172.35C556.733 172.35 558.098 172.72 559.228 173.46C560.358 174.19 561.213 175.24 561.793 176.61C562.373 177.98 562.638 179.615 562.588 181.515H560.338V180.735C560.298 178.635 559.843 177.05 558.973 175.98C558.113 174.91 556.853 174.375 555.193 174.375C553.453 174.375 552.118 174.94 551.188 176.07C550.268 177.2 549.808 178.81 549.808 180.9C549.808 182.94 550.268 184.525 551.188 185.655C552.118 186.775 553.433 187.335 555.133 187.335C556.293 187.335 557.303 187.07 558.163 186.54C559.033 186 559.718 185.225 560.218 184.215L562.273 185.01C561.633 186.42 560.688 187.515 559.438 188.295C558.198 189.065 556.793 189.45 555.223 189.45ZM549.028 181.515V179.67H561.403V181.515H549.028ZM565.317 189V172.8H567.297V176.7L566.907 176.19C567.087 175.71 567.322 175.27 567.612 174.87C567.902 174.46 568.217 174.125 568.557 173.865C568.977 173.495 569.467 173.215 570.027 173.025C570.587 172.825 571.152 172.71 571.722 172.68C572.292 172.64 572.812 172.68 573.282 172.8V174.87C572.692 174.72 572.047 174.685 571.347 174.765C570.647 174.845 570.002 175.125 569.412 175.605C568.872 176.025 568.467 176.53 568.197 177.12C567.927 177.7 567.747 178.32 567.657 178.98C567.567 179.63 567.522 180.275 567.522 180.915V189H565.317ZM580.986 189.435C579.086 189.435 577.521 189.025 576.291 188.205C575.071 187.385 574.321 186.245 574.041 184.785L576.291 184.41C576.531 185.33 577.076 186.065 577.926 186.615C578.786 187.155 579.846 187.425 581.106 187.425C582.336 187.425 583.306 187.17 584.016 186.66C584.726 186.14 585.081 185.435 585.081 184.545C585.081 184.045 584.966 183.64 584.736 183.33C584.516 183.01 584.061 182.715 583.371 182.445C582.681 182.175 581.651 181.855 580.281 181.485C578.811 181.085 577.661 180.685 576.831 180.285C576.001 179.885 575.411 179.425 575.061 178.905C574.711 178.375 574.536 177.73 574.536 176.97C574.536 176.05 574.796 175.245 575.316 174.555C575.836 173.855 576.556 173.315 577.476 172.935C578.396 172.545 579.466 172.35 580.686 172.35C581.906 172.35 582.996 172.55 583.956 172.95C584.926 173.34 585.706 173.89 586.296 174.6C586.886 175.31 587.236 176.135 587.346 177.075L585.096 177.48C584.946 176.53 584.471 175.78 583.671 175.23C582.881 174.67 581.876 174.38 580.656 174.36C579.506 174.33 578.571 174.55 577.851 175.02C577.131 175.48 576.771 176.095 576.771 176.865C576.771 177.295 576.901 177.665 577.161 177.975C577.421 178.275 577.891 178.56 578.571 178.83C579.261 179.1 580.241 179.395 581.511 179.715C583.001 180.095 584.171 180.495 585.021 180.915C585.871 181.335 586.476 181.83 586.836 182.4C587.196 182.97 587.376 183.675 587.376 184.515C587.376 186.045 586.806 187.25 585.666 188.13C584.536 189 582.976 189.435 580.986 189.435Z" fill="white"/>
<circle cx="396" cy="171" r="7" fill="#B1CA16"/>
<path d="M406 189H396H386C386 183.477 390.477 179 396 179C401.523 179 406 183.477 406 189Z" fill="#B1CA16"/>
<path d="M735.16 133.936C732.568 133.936 730.096 133.42 727.744 132.388C725.392 131.332 723.34 129.856 721.588 127.96C719.86 126.064 718.624 123.832 717.88 121.264L727.384 118.744C727.888 120.64 728.872 122.116 730.336 123.172C731.824 124.204 733.432 124.72 735.16 124.72C736.648 124.72 738.004 124.36 739.228 123.64C740.476 122.92 741.46 121.948 742.18 120.724C742.924 119.5 743.296 118.144 743.296 116.656C743.296 114.424 742.528 112.516 740.992 110.932C739.48 109.324 737.536 108.52 735.16 108.52C734.44 108.52 733.744 108.628 733.072 108.844C732.4 109.036 731.752 109.312 731.128 109.672L726.736 101.968L743.224 88.288L743.944 90.376H719.896V81.16H752.296V90.376L739.48 102.76L739.408 100.024C742.384 100.48 744.892 101.524 746.932 103.156C748.996 104.764 750.556 106.756 751.612 109.132C752.692 111.484 753.232 113.992 753.232 116.656C753.232 119.92 752.404 122.86 750.748 125.476C749.092 128.068 746.896 130.132 744.16 131.668C741.424 133.18 738.424 133.936 735.16 133.936ZM780.363 134.08C776.523 134.08 773.163 133.276 770.283 131.668C767.403 130.06 765.159 127.816 763.551 124.936C761.943 122.056 761.139 118.696 761.139 114.856V99.304C761.139 95.464 761.943 92.104 763.551 89.224C765.159 86.344 767.403 84.1 770.283 82.492C773.163 80.884 776.523 80.08 780.363 80.08C784.203 80.08 787.563 80.884 790.443 82.492C793.323 84.1 795.567 86.344 797.175 89.224C798.783 92.104 799.587 95.464 799.587 99.304V114.856C799.587 118.696 798.783 122.056 797.175 124.936C795.567 127.816 793.323 130.06 790.443 131.668C787.563 133.276 784.203 134.08 780.363 134.08ZM780.363 124.792C782.091 124.792 783.651 124.384 785.043 123.568C786.435 122.752 787.539 121.648 788.355 120.256C789.171 118.864 789.579 117.304 789.579 115.576V98.512C789.579 96.784 789.171 95.224 788.355 93.832C787.539 92.44 786.435 91.336 785.043 90.52C783.651 89.704 782.091 89.296 780.363 89.296C778.635 89.296 777.075 89.704 775.683 90.52C774.291 91.336 773.187 92.44 772.371 93.832C771.555 95.224 771.147 96.784 771.147 98.512V115.576C771.147 117.304 771.555 118.864 772.371 120.256C773.187 121.648 774.291 122.752 775.683 123.568C777.075 124.384 778.635 124.792 780.363 124.792ZM808.215 133V81.16H818.007V105.064L837.735 81.16H849.687L828.015 106.72L851.055 133H838.671L818.007 109.384V133H808.215ZM866.393 123.28V110.824H853.937V103.264H866.393V90.88H873.953V103.264H886.337V110.824H873.953V123.28H866.393Z" fill="white"/>
<path d="M759.475 189.45C758.355 189.45 757.32 189.22 756.37 188.76C755.42 188.3 754.61 187.665 753.94 186.855C753.27 186.045 752.79 185.115 752.5 184.065L754.615 183.495C754.805 184.275 755.15 184.95 755.65 185.52C756.15 186.08 756.735 186.515 757.405 186.825C758.085 187.135 758.795 187.29 759.535 187.29C760.495 187.29 761.355 187.06 762.115 186.6C762.885 186.13 763.495 185.51 763.945 184.74C764.395 183.97 764.62 183.125 764.62 182.205C764.62 181.255 764.385 180.4 763.915 179.64C763.445 178.87 762.825 178.26 762.055 177.81C761.285 177.36 760.445 177.135 759.535 177.135C758.515 177.135 757.635 177.36 756.895 177.81C756.155 178.25 755.565 178.805 755.125 179.475L753.115 178.635L753.775 167.4H765.31V169.515H754.75L755.845 168.48L755.26 178.065L754.705 177.33C755.325 176.62 756.075 176.065 756.955 175.665C757.835 175.265 758.76 175.065 759.73 175.065C761.06 175.065 762.26 175.385 763.33 176.025C764.4 176.655 765.25 177.51 765.88 178.59C766.51 179.67 766.825 180.875 766.825 182.205C766.825 183.525 766.49 184.735 765.82 185.835C765.15 186.925 764.26 187.8 763.15 188.46C762.04 189.12 760.815 189.45 759.475 189.45ZM769.514 180.495V178.605H778.514V180.495H769.514ZM789.312 189.45C787.802 189.45 786.442 189.2 785.232 188.7C784.032 188.19 783.037 187.47 782.247 186.54C781.467 185.61 780.957 184.505 780.717 183.225L782.967 182.85C783.327 184.25 784.087 185.35 785.247 186.15C786.407 186.94 787.792 187.335 789.402 187.335C790.462 187.335 791.412 187.17 792.252 186.84C793.092 186.5 793.752 186.02 794.232 185.4C794.712 184.78 794.952 184.045 794.952 183.195C794.952 182.635 794.852 182.16 794.652 181.77C794.452 181.37 794.187 181.04 793.857 180.78C793.527 180.52 793.167 180.305 792.777 180.135C792.387 179.955 792.007 179.81 791.637 179.7L786.162 178.065C785.502 177.875 784.892 177.635 784.332 177.345C783.772 177.045 783.282 176.69 782.862 176.28C782.452 175.86 782.132 175.37 781.902 174.81C781.672 174.25 781.557 173.61 781.557 172.89C781.557 171.67 781.877 170.615 782.517 169.725C783.157 168.835 784.032 168.15 785.142 167.67C786.252 167.19 787.517 166.955 788.937 166.965C790.377 166.965 791.662 167.22 792.792 167.73C793.932 168.24 794.872 168.97 795.612 169.92C796.352 170.86 796.842 171.975 797.082 173.265L794.772 173.685C794.622 172.745 794.277 171.93 793.737 171.24C793.197 170.55 792.507 170.02 791.667 169.65C790.837 169.27 789.922 169.075 788.922 169.065C787.952 169.065 787.087 169.23 786.327 169.56C785.577 169.88 784.982 170.32 784.542 170.88C784.102 171.44 783.882 172.08 783.882 172.8C783.882 173.53 784.082 174.115 784.482 174.555C784.892 174.995 785.392 175.34 785.982 175.59C786.582 175.84 787.162 176.045 787.722 176.205L791.952 177.45C792.392 177.57 792.907 177.745 793.497 177.975C794.097 178.195 794.677 178.515 795.237 178.935C795.807 179.345 796.277 179.885 796.647 180.555C797.017 181.225 797.202 182.075 797.202 183.105C797.202 184.105 797.002 185 796.602 185.79C796.212 186.58 795.657 187.245 794.937 187.785C794.227 188.325 793.392 188.735 792.432 189.015C791.482 189.305 790.442 189.45 789.312 189.45ZM808.518 189C807.608 189.19 806.708 189.265 805.818 189.225C804.938 189.185 804.148 188.995 803.448 188.655C802.758 188.315 802.233 187.785 801.873 187.065C801.583 186.465 801.423 185.86 801.393 185.25C801.373 184.63 801.363 183.925 801.363 183.135V168.3H803.553V183.045C803.553 183.725 803.558 184.295 803.568 184.755C803.588 185.205 803.693 185.605 803.883 185.955C804.243 186.625 804.813 187.025 805.593 187.155C806.383 187.285 807.358 187.255 808.518 187.065V189ZM797.898 174.69V172.8H808.518V174.69H797.898ZM815.745 189.45C814.525 189.45 813.5 189.23 812.67 188.79C811.85 188.35 811.235 187.765 810.825 187.035C810.415 186.305 810.21 185.51 810.21 184.65C810.21 183.77 810.385 183.02 810.735 182.4C811.095 181.77 811.58 181.255 812.19 180.855C812.81 180.455 813.525 180.15 814.335 179.94C815.155 179.74 816.06 179.565 817.05 179.415C818.05 179.255 819.025 179.12 819.975 179.01C820.935 178.89 821.775 178.775 822.495 178.665L821.715 179.145C821.745 177.545 821.435 176.36 820.785 175.59C820.135 174.82 819.005 174.435 817.395 174.435C816.285 174.435 815.345 174.685 814.575 175.185C813.815 175.685 813.28 176.475 812.97 177.555L810.825 176.925C811.195 175.475 811.94 174.35 813.06 173.55C814.18 172.75 815.635 172.35 817.425 172.35C818.905 172.35 820.16 172.63 821.19 173.19C822.23 173.74 822.965 174.54 823.395 175.59C823.595 176.06 823.725 176.585 823.785 177.165C823.845 177.745 823.875 178.335 823.875 178.935V189H821.91V184.935L822.48 185.175C821.93 186.565 821.075 187.625 819.915 188.355C818.755 189.085 817.365 189.45 815.745 189.45ZM816 187.545C817.03 187.545 817.93 187.36 818.7 186.99C819.47 186.62 820.09 186.115 820.56 185.475C821.03 184.825 821.335 184.095 821.475 183.285C821.595 182.765 821.66 182.195 821.67 181.575C821.68 180.945 821.685 180.475 821.685 180.165L822.525 180.6C821.775 180.7 820.96 180.8 820.08 180.9C819.21 181 818.35 181.115 817.5 181.245C816.66 181.375 815.9 181.53 815.22 181.71C814.76 181.84 814.315 182.025 813.885 182.265C813.455 182.495 813.1 182.805 812.82 183.195C812.55 183.585 812.415 184.07 812.415 184.65C812.415 185.12 812.53 185.575 812.76 186.015C813 186.455 813.38 186.82 813.9 187.11C814.43 187.4 815.13 187.545 816 187.545ZM827.18 189V172.8H829.16V176.7L828.77 176.19C828.95 175.71 829.185 175.27 829.475 174.87C829.765 174.46 830.08 174.125 830.42 173.865C830.84 173.495 831.33 173.215 831.89 173.025C832.45 172.825 833.015 172.71 833.585 172.68C834.155 172.64 834.675 172.68 835.145 172.8V174.87C834.555 174.72 833.91 174.685 833.21 174.765C832.51 174.845 831.865 175.125 831.275 175.605C830.735 176.025 830.33 176.53 830.06 177.12C829.79 177.7 829.61 178.32 829.52 178.98C829.43 179.63 829.385 180.275 829.385 180.915V189H827.18ZM842.85 189.435C840.95 189.435 839.385 189.025 838.155 188.205C836.935 187.385 836.185 186.245 835.905 184.785L838.155 184.41C838.395 185.33 838.94 186.065 839.79 186.615C840.65 187.155 841.71 187.425 842.97 187.425C844.2 187.425 845.17 187.17 845.88 186.66C846.59 186.14 846.945 185.435 846.945 184.545C846.945 184.045 846.83 183.64 846.6 183.33C846.38 183.01 845.925 182.715 845.235 182.445C844.545 182.175 843.515 181.855 842.145 181.485C840.675 181.085 839.525 180.685 838.695 180.285C837.865 179.885 837.275 179.425 836.925 178.905C836.575 178.375 836.4 177.73 836.4 176.97C836.4 176.05 836.66 175.245 837.18 174.555C837.7 173.855 838.42 173.315 839.34 172.935C840.26 172.545 841.33 172.35 842.55 172.35C843.77 172.35 844.86 172.55 845.82 172.95C846.79 173.34 847.57 173.89 848.16 174.6C848.75 175.31 849.1 176.135 849.21 177.075L846.96 177.48C846.81 176.53 846.335 175.78 845.535 175.23C844.745 174.67 843.74 174.38 842.52 174.36C841.37 174.33 840.435 174.55 839.715 175.02C838.995 175.48 838.635 176.095 838.635 176.865C838.635 177.295 838.765 177.665 839.025 177.975C839.285 178.275 839.755 178.56 840.435 178.83C841.125 179.1 842.105 179.395 843.375 179.715C844.865 180.095 846.035 180.495 846.885 180.915C847.735 181.335 848.34 181.83 848.7 182.4C849.06 182.97 849.24 183.675 849.24 184.515C849.24 186.045 848.67 187.25 847.53 188.13C846.4 189 844.84 189.435 842.85 189.435ZM857.372 189V167.4H865.712C865.922 167.4 866.157 167.41 866.417 167.43C866.687 167.44 866.957 167.47 867.227 167.52C868.357 167.69 869.312 168.085 870.092 168.705C870.882 169.315 871.477 170.085 871.877 171.015C872.287 171.945 872.492 172.975 872.492 174.105C872.492 175.735 872.062 177.15 871.202 178.35C870.342 179.55 869.112 180.305 867.512 180.615L866.747 180.795H859.577V189H857.372ZM870.452 189L866.192 180.21L868.307 179.4L872.987 189H870.452ZM859.577 178.695H865.652C865.832 178.695 866.042 178.685 866.282 178.665C866.522 178.645 866.757 178.61 866.987 178.56C867.727 178.4 868.332 178.095 868.802 177.645C869.282 177.195 869.637 176.66 869.867 176.04C870.107 175.42 870.227 174.775 870.227 174.105C870.227 173.435 870.107 172.79 869.867 172.17C869.637 171.54 869.282 171 868.802 170.55C868.332 170.1 867.727 169.795 866.987 169.635C866.757 169.585 866.522 169.555 866.282 169.545C866.042 169.525 865.832 169.515 865.652 169.515H859.577V178.695ZM882.553 189.45C880.973 189.45 879.603 189.1 878.443 188.4C877.293 187.7 876.398 186.715 875.758 185.445C875.118 184.175 874.798 182.685 874.798 180.975C874.798 179.205 875.113 177.675 875.743 176.385C876.373 175.095 877.258 174.1 878.398 173.4C879.548 172.7 880.903 172.35 882.463 172.35C884.063 172.35 885.428 172.72 886.558 173.46C887.688 174.19 888.543 175.24 889.123 176.61C889.703 177.98 889.968 179.615 889.918 181.515H887.668V180.735C887.628 178.635 887.173 177.05 886.303 175.98C885.443 174.91 884.183 174.375 882.523 174.375C880.783 174.375 879.448 174.94 878.518 176.07C877.598 177.2 877.138 178.81 877.138 180.9C877.138 182.94 877.598 184.525 878.518 185.655C879.448 186.775 880.763 187.335 882.463 187.335C883.623 187.335 884.633 187.07 885.493 186.54C886.363 186 887.048 185.225 887.548 184.215L889.603 185.01C888.963 186.42 888.018 187.515 886.768 188.295C885.528 189.065 884.123 189.45 882.553 189.45ZM876.358 181.515V179.67H888.733V181.515H876.358ZM896.441 189L890.561 172.8H892.796L897.581 186.12L902.336 172.8H904.601L898.721 189H896.441ZM906.995 169.725V167.25H909.2V169.725H906.995ZM906.995 189V172.8H909.2V189H906.995ZM919.952 189.45C918.372 189.45 917.002 189.1 915.842 188.4C914.692 187.7 913.797 186.715 913.157 185.445C912.517 184.175 912.197 182.685 912.197 180.975C912.197 179.205 912.512 177.675 913.142 176.385C913.772 175.095 914.657 174.1 915.797 173.4C916.947 172.7 918.302 172.35 919.862 172.35C921.462 172.35 922.827 172.72 923.957 173.46C925.087 174.19 925.942 175.24 926.522 176.61C927.102 177.98 927.367 179.615 927.317 181.515H925.067V180.735C925.027 178.635 924.572 177.05 923.702 175.98C922.842 174.91 921.582 174.375 919.922 174.375C918.182 174.375 916.847 174.94 915.917 176.07C914.997 177.2 914.537 178.81 914.537 180.9C914.537 182.94 914.997 184.525 915.917 185.655C916.847 186.775 918.162 187.335 919.862 187.335C921.022 187.335 922.032 187.07 922.892 186.54C923.762 186 924.447 185.225 924.947 184.215L927.002 185.01C926.362 186.42 925.417 187.515 924.167 188.295C922.927 189.065 921.522 189.45 919.952 189.45ZM913.757 181.515V179.67H926.132V181.515H913.757ZM932.91 189L927.96 172.785L930.165 172.8L934.005 185.385L937.86 172.8H939.87L943.725 185.385L947.595 172.8H949.785L944.835 189H942.915L938.865 176.1L934.83 189H932.91ZM957.347 189.435C955.447 189.435 953.882 189.025 952.652 188.205C951.432 187.385 950.682 186.245 950.402 184.785L952.652 184.41C952.892 185.33 953.437 186.065 954.287 186.615C955.147 187.155 956.207 187.425 957.467 187.425C958.697 187.425 959.667 187.17 960.377 186.66C961.087 186.14 961.442 185.435 961.442 184.545C961.442 184.045 961.327 183.64 961.097 183.33C960.877 183.01 960.422 182.715 959.732 182.445C959.042 182.175 958.012 181.855 956.642 181.485C955.172 181.085 954.022 180.685 953.192 180.285C952.362 179.885 951.772 179.425 951.422 178.905C951.072 178.375 950.897 177.73 950.897 176.97C950.897 176.05 951.157 175.245 951.677 174.555C952.197 173.855 952.917 173.315 953.837 172.935C954.757 172.545 955.827 172.35 957.047 172.35C958.267 172.35 959.357 172.55 960.317 172.95C961.287 173.34 962.067 173.89 962.657 174.6C963.247 175.31 963.597 176.135 963.707 177.075L961.457 177.48C961.307 176.53 960.832 175.78 960.032 175.23C959.242 174.67 958.237 174.38 957.017 174.36C955.867 174.33 954.932 174.55 954.212 175.02C953.492 175.48 953.132 176.095 953.132 176.865C953.132 177.295 953.262 177.665 953.522 177.975C953.782 178.275 954.252 178.56 954.932 178.83C955.622 179.1 956.602 179.395 957.872 179.715C959.362 180.095 960.532 180.495 961.382 180.915C962.232 181.335 962.837 181.83 963.197 182.4C963.557 182.97 963.737 183.675 963.737 184.515C963.737 186.045 963.167 187.25 962.027 188.13C960.897 189 959.337 189.435 957.347 189.435Z" fill="white"/>
<path d="M727.049 165.927C727.348 165.006 728.652 165.006 728.951 165.927L730.694 171.292C730.828 171.704 731.212 171.983 731.645 171.983H737.286C738.255 171.983 738.658 173.222 737.874 173.792L733.31 177.107C732.96 177.362 732.813 177.813 732.947 178.225L734.69 183.59C734.99 184.511 733.935 185.278 733.151 184.708L728.588 181.393C728.237 181.138 727.763 181.138 727.412 181.393L722.849 184.708C722.065 185.278 721.01 184.511 721.31 183.59L723.053 178.225C723.187 177.813 723.04 177.362 722.69 177.107L718.126 173.792C717.342 173.222 717.745 171.983 718.714 171.983H724.355C724.788 171.983 725.172 171.704 725.306 171.292L727.049 165.927Z" fill="#B1CA16"/>
<path d="M1070.58 140.2V131.56H1080.37V140.2H1070.58ZM1070.58 82.672V74.032H1080.37V82.672H1070.58ZM1075.54 134.08C1071.82 134.08 1068.5 133.396 1065.57 132.028C1062.64 130.636 1060.26 128.68 1058.41 126.16C1056.56 123.616 1055.38 120.616 1054.88 117.16L1064.6 115.648C1065.25 118.48 1066.6 120.736 1068.67 122.416C1070.76 124.096 1073.24 124.936 1076.12 124.936C1078.83 124.936 1081.08 124.3 1082.85 123.028C1084.65 121.756 1085.55 120.184 1085.55 118.312C1085.55 117.04 1085.16 115.996 1084.36 115.18C1083.6 114.34 1082.38 113.656 1080.73 113.128L1067.91 109.168C1060.52 106.888 1056.82 102.376 1056.82 95.632C1056.82 92.464 1057.57 89.716 1059.06 87.388C1060.57 85.06 1062.69 83.272 1065.43 82.024C1068.19 80.752 1071.44 80.128 1075.18 80.152C1078.62 80.2 1081.66 80.824 1084.33 82.024C1086.99 83.2 1089.21 84.916 1090.99 87.172C1092.79 89.404 1094.1 92.128 1094.91 95.344L1084.83 97.144C1084.5 95.608 1083.87 94.264 1082.96 93.112C1082.05 91.936 1080.91 91.024 1079.54 90.376C1078.2 89.704 1076.7 89.344 1075.04 89.296C1073.46 89.248 1072.02 89.476 1070.72 89.98C1069.45 90.484 1068.43 91.192 1067.66 92.104C1066.92 92.992 1066.54 94 1066.54 95.128C1066.54 96.376 1067.07 97.456 1068.13 98.368C1069.18 99.256 1070.86 100.024 1073.17 100.672L1082.31 103.264C1086.9 104.584 1090.2 106.372 1092.21 108.628C1094.25 110.884 1095.27 113.872 1095.27 117.592C1095.27 120.856 1094.44 123.724 1092.79 126.196C1091.13 128.668 1088.82 130.6 1085.84 131.992C1082.89 133.384 1079.46 134.08 1075.54 134.08ZM1100.29 132.928V124.432L1122.03 105.136C1123.66 103.696 1124.81 102.34 1125.49 101.068C1126.16 99.796 1126.49 98.608 1126.49 97.504C1126.49 95.92 1126.17 94.516 1125.52 93.292C1124.87 92.044 1123.96 91.072 1122.79 90.376C1121.61 89.656 1120.23 89.296 1118.65 89.296C1116.99 89.296 1115.53 89.68 1114.25 90.448C1113.01 91.192 1112.03 92.188 1111.34 93.436C1110.64 94.66 1110.32 95.992 1110.37 97.432H1100.29C1100.29 93.88 1101.07 90.808 1102.63 88.216C1104.19 85.624 1106.36 83.62 1109.14 82.204C1111.93 80.788 1115.17 80.08 1118.86 80.08C1122.25 80.08 1125.27 80.824 1127.93 82.312C1130.62 83.776 1132.73 85.828 1134.27 88.468C1135.81 91.108 1136.57 94.168 1136.57 97.648C1136.57 100.216 1136.21 102.352 1135.49 104.056C1134.77 105.736 1133.71 107.296 1132.29 108.736C1130.87 110.152 1129.13 111.76 1127.07 113.56L1113.03 125.872L1112.24 123.712H1136.57V132.928H1100.29ZM1159.15 134.08C1156.53 134.08 1154.07 133.54 1151.77 132.46C1149.49 131.38 1147.52 129.88 1145.86 127.96C1144.21 126.04 1143.02 123.808 1142.3 121.264L1151.73 118.744C1152.04 119.968 1152.59 121.024 1153.39 121.912C1154.2 122.8 1155.14 123.496 1156.19 124C1157.27 124.48 1158.38 124.72 1159.51 124.72C1160.99 124.72 1162.35 124.36 1163.57 123.64C1164.82 122.92 1165.81 121.948 1166.53 120.724C1167.27 119.5 1167.64 118.144 1167.64 116.656C1167.64 115.168 1167.27 113.812 1166.53 112.588C1165.81 111.364 1164.82 110.392 1163.57 109.672C1162.35 108.952 1160.99 108.592 1159.51 108.592C1157.68 108.592 1156.19 108.904 1155.04 109.528C1153.89 110.128 1153.03 110.704 1152.45 111.256L1144.17 108.736L1145.75 81.16H1174.05V90.304H1151.15L1154.61 87.064L1153.53 104.848L1151.87 102.832C1153.17 101.776 1154.65 101.008 1156.3 100.528C1157.96 100.048 1159.51 99.808 1160.95 99.808C1164.21 99.808 1167.08 100.54 1169.55 102.004C1172.05 103.444 1173.99 105.436 1175.38 107.98C1176.8 110.5 1177.51 113.392 1177.51 116.656C1177.51 119.92 1176.65 122.872 1174.95 125.512C1173.25 128.128 1171 130.216 1168.22 131.776C1165.43 133.312 1162.41 134.08 1159.15 134.08ZM1181.43 132.928V124.432L1203.17 105.136C1204.8 103.696 1205.96 102.34 1206.63 101.068C1207.3 99.796 1207.64 98.608 1207.64 97.504C1207.64 95.92 1207.31 94.516 1206.66 93.292C1206.02 92.044 1205.1 91.072 1203.93 90.376C1202.75 89.656 1201.37 89.296 1199.79 89.296C1198.13 89.296 1196.67 89.68 1195.4 90.448C1194.15 91.192 1193.18 92.188 1192.48 93.436C1191.78 94.66 1191.46 95.992 1191.51 97.432H1181.43C1181.43 93.88 1182.21 90.808 1183.77 88.216C1185.33 85.624 1187.5 83.62 1190.28 82.204C1193.07 80.788 1196.31 80.08 1200 80.08C1203.39 80.08 1206.41 80.824 1209.08 82.312C1211.76 83.776 1213.88 85.828 1215.41 88.468C1216.95 91.108 1217.72 94.168 1217.72 97.648C1217.72 100.216 1217.36 102.352 1216.64 104.056C1215.92 105.736 1214.85 107.296 1213.43 108.736C1212.02 110.152 1210.28 111.76 1208.21 113.56L1194.17 125.872L1193.38 123.712H1217.72V132.928H1181.43ZM1224.88 133V81.16H1233.67L1250.8 115.576L1267.94 81.16H1276.72V133H1267.58V102.04L1252.53 133H1249.07L1234.03 102.04V133H1224.88Z" fill="white"/>
<path d="M1095.85 189V169.515H1088.3V167.4H1105.6V169.515H1098.05V189H1095.85ZM1105.91 189V172.8H1107.89V176.7L1107.5 176.19C1107.68 175.71 1107.91 175.27 1108.2 174.87C1108.49 174.46 1108.81 174.125 1109.15 173.865C1109.57 173.495 1110.06 173.215 1110.62 173.025C1111.18 172.825 1111.74 172.71 1112.31 172.68C1112.88 172.64 1113.4 172.68 1113.87 172.8V174.87C1113.28 174.72 1112.64 174.685 1111.94 174.765C1111.24 174.845 1110.59 175.125 1110 175.605C1109.46 176.025 1109.06 176.53 1108.79 177.12C1108.52 177.7 1108.34 178.32 1108.25 178.98C1108.16 179.63 1108.11 180.275 1108.11 180.915V189H1105.91ZM1120.17 189.45C1118.95 189.45 1117.92 189.23 1117.09 188.79C1116.27 188.35 1115.66 187.765 1115.25 187.035C1114.84 186.305 1114.63 185.51 1114.63 184.65C1114.63 183.77 1114.81 183.02 1115.16 182.4C1115.52 181.77 1116 181.255 1116.61 180.855C1117.23 180.455 1117.95 180.15 1118.76 179.94C1119.58 179.74 1120.48 179.565 1121.47 179.415C1122.47 179.255 1123.45 179.12 1124.4 179.01C1125.36 178.89 1126.2 178.775 1126.92 178.665L1126.14 179.145C1126.17 177.545 1125.86 176.36 1125.21 175.59C1124.56 174.82 1123.43 174.435 1121.82 174.435C1120.71 174.435 1119.77 174.685 1119 175.185C1118.24 175.685 1117.7 176.475 1117.39 177.555L1115.25 176.925C1115.62 175.475 1116.36 174.35 1117.48 173.55C1118.6 172.75 1120.06 172.35 1121.85 172.35C1123.33 172.35 1124.58 172.63 1125.61 173.19C1126.65 173.74 1127.39 174.54 1127.82 175.59C1128.02 176.06 1128.15 176.585 1128.21 177.165C1128.27 177.745 1128.3 178.335 1128.3 178.935V189H1126.33V184.935L1126.9 185.175C1126.35 186.565 1125.5 187.625 1124.34 188.355C1123.18 189.085 1121.79 189.45 1120.17 189.45ZM1120.42 187.545C1121.45 187.545 1122.35 187.36 1123.12 186.99C1123.89 186.62 1124.51 186.115 1124.98 185.475C1125.45 184.825 1125.76 184.095 1125.9 183.285C1126.02 182.765 1126.08 182.195 1126.09 181.575C1126.1 180.945 1126.11 180.475 1126.11 180.165L1126.95 180.6C1126.2 180.7 1125.38 180.8 1124.5 180.9C1123.63 181 1122.77 181.115 1121.92 181.245C1121.08 181.375 1120.32 181.53 1119.64 181.71C1119.18 181.84 1118.74 182.025 1118.31 182.265C1117.88 182.495 1117.52 182.805 1117.24 183.195C1116.97 183.585 1116.84 184.07 1116.84 184.65C1116.84 185.12 1116.95 185.575 1117.18 186.015C1117.42 186.455 1117.8 186.82 1118.32 187.11C1118.85 187.4 1119.55 187.545 1120.42 187.545ZM1143.3 189V180.735C1143.3 179.835 1143.22 179.01 1143.05 178.26C1142.88 177.5 1142.6 176.84 1142.22 176.28C1141.85 175.71 1141.37 175.27 1140.77 174.96C1140.18 174.65 1139.46 174.495 1138.61 174.495C1137.83 174.495 1137.14 174.63 1136.54 174.9C1135.95 175.17 1135.45 175.56 1135.04 176.07C1134.64 176.57 1134.33 177.18 1134.12 177.9C1133.91 178.62 1133.81 179.44 1133.81 180.36L1132.25 180.015C1132.25 178.355 1132.54 176.96 1133.12 175.83C1133.7 174.7 1134.5 173.845 1135.52 173.265C1136.54 172.685 1137.71 172.395 1139.03 172.395C1140 172.395 1140.84 172.545 1141.56 172.845C1142.29 173.145 1142.91 173.55 1143.41 174.06C1143.92 174.57 1144.33 175.155 1144.64 175.815C1144.95 176.465 1145.17 177.16 1145.31 177.9C1145.45 178.63 1145.52 179.36 1145.52 180.09V189H1143.3ZM1131.59 189V172.8H1133.58V176.79H1133.81V189H1131.59ZM1154.86 189.435C1152.96 189.435 1151.39 189.025 1150.16 188.205C1148.94 187.385 1148.19 186.245 1147.91 184.785L1150.16 184.41C1150.4 185.33 1150.95 186.065 1151.8 186.615C1152.66 187.155 1153.72 187.425 1154.98 187.425C1156.21 187.425 1157.18 187.17 1157.89 186.66C1158.6 186.14 1158.95 185.435 1158.95 184.545C1158.95 184.045 1158.84 183.64 1158.61 183.33C1158.39 183.01 1157.93 182.715 1157.24 182.445C1156.55 182.175 1155.52 181.855 1154.15 181.485C1152.68 181.085 1151.53 180.685 1150.7 180.285C1149.87 179.885 1149.28 179.425 1148.93 178.905C1148.58 178.375 1148.41 177.73 1148.41 176.97C1148.41 176.05 1148.67 175.245 1149.19 174.555C1149.71 173.855 1150.43 173.315 1151.35 172.935C1152.27 172.545 1153.34 172.35 1154.56 172.35C1155.78 172.35 1156.87 172.55 1157.83 172.95C1158.8 173.34 1159.58 173.89 1160.17 174.6C1160.76 175.31 1161.11 176.135 1161.22 177.075L1158.97 177.48C1158.82 176.53 1158.34 175.78 1157.54 175.23C1156.75 174.67 1155.75 174.38 1154.53 174.36C1153.38 174.33 1152.44 174.55 1151.72 175.02C1151 175.48 1150.64 176.095 1150.64 176.865C1150.64 177.295 1150.77 177.665 1151.03 177.975C1151.29 178.275 1151.76 178.56 1152.44 178.83C1153.13 179.1 1154.11 179.395 1155.38 179.715C1156.87 180.095 1158.04 180.495 1158.89 180.915C1159.74 181.335 1160.35 181.83 1160.71 182.4C1161.07 182.97 1161.25 183.675 1161.25 184.515C1161.25 186.045 1160.68 187.25 1159.54 188.13C1158.41 189 1156.85 189.435 1154.86 189.435ZM1168.61 189.45C1167.39 189.45 1166.37 189.23 1165.54 188.79C1164.72 188.35 1164.1 187.765 1163.69 187.035C1163.28 186.305 1163.08 185.51 1163.08 184.65C1163.08 183.77 1163.25 183.02 1163.6 182.4C1163.96 181.77 1164.45 181.255 1165.06 180.855C1165.68 180.455 1166.39 180.15 1167.2 179.94C1168.02 179.74 1168.93 179.565 1169.92 179.415C1170.92 179.255 1171.89 179.12 1172.84 179.01C1173.8 178.89 1174.64 178.775 1175.36 178.665L1174.58 179.145C1174.61 177.545 1174.3 176.36 1173.65 175.59C1173 174.82 1171.87 174.435 1170.26 174.435C1169.15 174.435 1168.21 174.685 1167.44 175.185C1166.68 175.685 1166.15 176.475 1165.83 177.555L1163.69 176.925C1164.06 175.475 1164.81 174.35 1165.93 173.55C1167.05 172.75 1168.5 172.35 1170.29 172.35C1171.77 172.35 1173.03 172.63 1174.06 173.19C1175.1 173.74 1175.83 174.54 1176.26 175.59C1176.46 176.06 1176.59 176.585 1176.65 177.165C1176.71 177.745 1176.74 178.335 1176.74 178.935V189H1174.78V184.935L1175.35 185.175C1174.8 186.565 1173.94 187.625 1172.78 188.355C1171.62 189.085 1170.23 189.45 1168.61 189.45ZM1168.87 187.545C1169.9 187.545 1170.8 187.36 1171.57 186.99C1172.34 186.62 1172.96 186.115 1173.43 185.475C1173.9 184.825 1174.2 184.095 1174.34 183.285C1174.46 182.765 1174.53 182.195 1174.54 181.575C1174.55 180.945 1174.55 180.475 1174.55 180.165L1175.39 180.6C1174.64 180.7 1173.83 180.8 1172.95 180.9C1172.08 181 1171.22 181.115 1170.37 181.245C1169.53 181.375 1168.77 181.53 1168.09 181.71C1167.63 181.84 1167.18 182.025 1166.75 182.265C1166.32 182.495 1165.97 182.805 1165.69 183.195C1165.42 183.585 1165.28 184.07 1165.28 184.65C1165.28 185.12 1165.4 185.575 1165.62 186.015C1165.87 186.455 1166.25 186.82 1166.77 187.11C1167.3 187.4 1168 187.545 1168.87 187.545ZM1186.76 189.45C1185.13 189.45 1183.75 189.085 1182.62 188.355C1181.49 187.625 1180.63 186.62 1180.04 185.34C1179.46 184.05 1179.16 182.57 1179.14 180.9C1179.16 179.2 1179.47 177.71 1180.07 176.43C1180.67 175.14 1181.54 174.14 1182.67 173.43C1183.8 172.71 1185.17 172.35 1186.78 172.35C1188.42 172.35 1189.84 172.75 1191.05 173.55C1192.27 174.35 1193.11 175.445 1193.56 176.835L1191.4 177.525C1191.02 176.555 1190.41 175.805 1189.58 175.275C1188.76 174.735 1187.82 174.465 1186.76 174.465C1185.57 174.465 1184.59 174.74 1183.81 175.29C1183.03 175.83 1182.45 176.585 1182.07 177.555C1181.69 178.525 1181.49 179.64 1181.48 180.9C1181.5 182.84 1181.95 184.4 1182.83 185.58C1183.71 186.75 1185.02 187.335 1186.76 187.335C1187.86 187.335 1188.8 187.085 1189.57 186.585C1190.35 186.075 1190.94 185.335 1191.34 184.365L1193.56 185.025C1192.96 186.465 1192.08 187.565 1190.92 188.325C1189.76 189.075 1188.37 189.45 1186.76 189.45ZM1204.88 189C1203.97 189.19 1203.07 189.265 1202.18 189.225C1201.3 189.185 1200.51 188.995 1199.81 188.655C1199.12 188.315 1198.59 187.785 1198.23 187.065C1197.94 186.465 1197.78 185.86 1197.75 185.25C1197.73 184.63 1197.72 183.925 1197.72 183.135V168.3H1199.91V183.045C1199.91 183.725 1199.92 184.295 1199.93 184.755C1199.95 185.205 1200.05 185.605 1200.24 185.955C1200.6 186.625 1201.17 187.025 1201.95 187.155C1202.74 187.285 1203.72 187.255 1204.88 187.065V189ZM1194.26 174.69V172.8H1204.88V174.69H1194.26ZM1207.77 169.725V167.25H1209.97V169.725H1207.77ZM1207.77 189V172.8H1209.97V189H1207.77ZM1220.63 189.45C1219.02 189.45 1217.65 189.085 1216.51 188.355C1215.37 187.625 1214.49 186.615 1213.88 185.325C1213.27 184.035 1212.97 182.555 1212.97 180.885C1212.97 179.185 1213.28 177.695 1213.9 176.415C1214.52 175.135 1215.4 174.14 1216.54 173.43C1217.69 172.71 1219.05 172.35 1220.63 172.35C1222.25 172.35 1223.63 172.715 1224.77 173.445C1225.92 174.165 1226.8 175.17 1227.4 176.46C1228.01 177.74 1228.31 179.215 1228.31 180.885C1228.31 182.585 1228.01 184.08 1227.4 185.37C1226.79 186.65 1225.91 187.65 1224.76 188.37C1223.61 189.09 1222.23 189.45 1220.63 189.45ZM1220.63 187.335C1222.43 187.335 1223.77 186.74 1224.65 185.55C1225.53 184.35 1225.97 182.795 1225.97 180.885C1225.97 178.925 1225.53 177.365 1224.64 176.205C1223.76 175.045 1222.42 174.465 1220.63 174.465C1219.42 174.465 1218.42 174.74 1217.63 175.29C1216.85 175.83 1216.27 176.585 1215.88 177.555C1215.5 178.515 1215.31 179.625 1215.31 180.885C1215.31 182.835 1215.76 184.4 1216.66 185.58C1217.56 186.75 1218.88 187.335 1220.63 187.335ZM1242.72 189V180.735C1242.72 179.835 1242.64 179.01 1242.47 178.26C1242.3 177.5 1242.02 176.84 1241.64 176.28C1241.27 175.71 1240.79 175.27 1240.19 174.96C1239.6 174.65 1238.88 174.495 1238.03 174.495C1237.25 174.495 1236.56 174.63 1235.96 174.9C1235.37 175.17 1234.87 175.56 1234.46 176.07C1234.06 176.57 1233.75 177.18 1233.54 177.9C1233.33 178.62 1233.23 179.44 1233.23 180.36L1231.67 180.015C1231.67 178.355 1231.96 176.96 1232.54 175.83C1233.12 174.7 1233.92 173.845 1234.94 173.265C1235.96 172.685 1237.13 172.395 1238.45 172.395C1239.42 172.395 1240.26 172.545 1240.98 172.845C1241.71 173.145 1242.33 173.55 1242.83 174.06C1243.34 174.57 1243.75 175.155 1244.06 175.815C1244.37 176.465 1244.59 177.16 1244.73 177.9C1244.87 178.63 1244.94 179.36 1244.94 180.09V189H1242.72ZM1231.01 189V172.8H1233V176.79H1233.23V189H1231.01ZM1254.28 189.435C1252.38 189.435 1250.82 189.025 1249.59 188.205C1248.37 187.385 1247.62 186.245 1247.34 184.785L1249.59 184.41C1249.83 185.33 1250.37 186.065 1251.22 186.615C1252.08 187.155 1253.14 187.425 1254.4 187.425C1255.63 187.425 1256.6 187.17 1257.31 186.66C1258.02 186.14 1258.38 185.435 1258.38 184.545C1258.38 184.045 1258.26 183.64 1258.03 183.33C1257.81 183.01 1257.36 182.715 1256.67 182.445C1255.98 182.175 1254.95 181.855 1253.58 181.485C1252.11 181.085 1250.96 180.685 1250.13 180.285C1249.3 179.885 1248.71 179.425 1248.36 178.905C1248.01 178.375 1247.83 177.73 1247.83 176.97C1247.83 176.05 1248.09 175.245 1248.61 174.555C1249.13 173.855 1249.85 173.315 1250.77 172.935C1251.69 172.545 1252.76 172.35 1253.98 172.35C1255.2 172.35 1256.29 172.55 1257.25 172.95C1258.22 173.34 1259 173.89 1259.59 174.6C1260.18 175.31 1260.53 176.135 1260.64 177.075L1258.39 177.48C1258.24 176.53 1257.77 175.78 1256.97 175.23C1256.18 174.67 1255.17 174.38 1253.95 174.36C1252.8 174.33 1251.87 174.55 1251.15 175.02C1250.43 175.48 1250.07 176.095 1250.07 176.865C1250.07 177.295 1250.2 177.665 1250.46 177.975C1250.72 178.275 1251.19 178.56 1251.87 178.83C1252.56 179.1 1253.54 179.395 1254.81 179.715C1256.3 180.095 1257.47 180.495 1258.32 180.915C1259.17 181.335 1259.77 181.83 1260.13 182.4C1260.49 182.97 1260.67 183.675 1260.67 184.515C1260.67 186.045 1260.1 187.25 1258.96 188.13C1257.83 189 1256.27 189.435 1254.28 189.435Z" fill="white"/>
<path d="M1064.05 165.927C1064.35 165.006 1065.65 165.006 1065.95 165.927L1067.69 171.292C1067.83 171.704 1068.21 171.983 1068.65 171.983H1074.29C1075.25 171.983 1075.66 173.222 1074.87 173.792L1070.31 177.107C1069.96 177.362 1069.81 177.813 1069.95 178.225L1071.69 183.59C1071.99 184.511 1070.94 185.278 1070.15 184.708L1065.59 181.393C1065.24 181.138 1064.76 181.138 1064.41 181.393L1059.85 184.708C1059.06 185.278 1058.01 184.511 1058.31 183.59L1060.05 178.225C1060.19 177.813 1060.04 177.362 1059.69 177.107L1055.13 173.792C1054.34 173.222 1054.75 171.983 1055.71 171.983H1061.35C1061.79 171.983 1062.17 171.704 1062.31 171.292L1064.05 165.927Z" fill="#B1CA16"/>
</svg>
